%TF.GenerationSoftware,KiCad,Pcbnew,(6.0.9-0)*%
%TF.CreationDate,2023-01-06T11:38:35+01:00*%
%TF.ProjectId,HumidityLoggerBreakout,48756d69-6469-4747-994c-6f6767657242,rev?*%
%TF.SameCoordinates,Original*%
%TF.FileFunction,Soldermask,Bot*%
%TF.FilePolarity,Negative*%
%FSLAX46Y46*%
G04 Gerber Fmt 4.6, Leading zero omitted, Abs format (unit mm)*
G04 Created by KiCad (PCBNEW (6.0.9-0)) date 2023-01-06 11:38:35*
%MOMM*%
%LPD*%
G01*
G04 APERTURE LIST*
G04 Aperture macros list*
%AMRoundRect*
0 Rectangle with rounded corners*
0 $1 Rounding radius*
0 $2 $3 $4 $5 $6 $7 $8 $9 X,Y pos of 4 corners*
0 Add a 4 corners polygon primitive as box body*
4,1,4,$2,$3,$4,$5,$6,$7,$8,$9,$2,$3,0*
0 Add four circle primitives for the rounded corners*
1,1,$1+$1,$2,$3*
1,1,$1+$1,$4,$5*
1,1,$1+$1,$6,$7*
1,1,$1+$1,$8,$9*
0 Add four rect primitives between the rounded corners*
20,1,$1+$1,$2,$3,$4,$5,0*
20,1,$1+$1,$4,$5,$6,$7,0*
20,1,$1+$1,$6,$7,$8,$9,0*
20,1,$1+$1,$8,$9,$2,$3,0*%
G04 Aperture macros list end*
%ADD10R,2.400000X2.400000*%
%ADD11C,2.400000*%
%ADD12R,1.700000X1.700000*%
%ADD13O,1.700000X1.700000*%
%ADD14R,3.500000X3.500000*%
%ADD15RoundRect,0.750000X-0.750000X-1.000000X0.750000X-1.000000X0.750000X1.000000X-0.750000X1.000000X0*%
%ADD16RoundRect,0.875000X-0.875000X-0.875000X0.875000X-0.875000X0.875000X0.875000X-0.875000X0.875000X0*%
G04 APERTURE END LIST*
D10*
%TO.C,J2*%
X95377000Y-56642000D03*
D11*
X95377000Y-60142000D03*
%TD*%
D12*
%TO.C,J3*%
X156845000Y-67691000D03*
D13*
X156845000Y-70231000D03*
X156845000Y-72771000D03*
X156845000Y-75311000D03*
X156845000Y-77851000D03*
X156845000Y-80391000D03*
%TD*%
D12*
%TO.C,J6*%
X141150000Y-100000000D03*
D13*
X138610000Y-100000000D03*
X136070000Y-100000000D03*
X133530000Y-100000000D03*
X130990000Y-100000000D03*
X128450000Y-100000000D03*
X125910000Y-100000000D03*
X123370000Y-100000000D03*
X120830000Y-100000000D03*
X118290000Y-100000000D03*
X115750000Y-100000000D03*
%TD*%
D12*
%TO.C,J9*%
X156845000Y-86233000D03*
D13*
X156845000Y-88773000D03*
X156845000Y-91313000D03*
X156845000Y-93853000D03*
%TD*%
D12*
%TO.C,J7*%
X141150000Y-52000000D03*
D13*
X138610000Y-52000000D03*
X136070000Y-52000000D03*
X133530000Y-52000000D03*
X130990000Y-52000000D03*
X128450000Y-52000000D03*
X125910000Y-52000000D03*
X123370000Y-52000000D03*
X120830000Y-52000000D03*
X118290000Y-52000000D03*
X115750000Y-52000000D03*
%TD*%
D12*
%TO.C,J4*%
X156845000Y-53721000D03*
D13*
X156845000Y-56261000D03*
X156845000Y-58801000D03*
X156845000Y-61341000D03*
%TD*%
D12*
%TO.C,J5*%
X131318000Y-89911000D03*
D13*
X131318000Y-92451000D03*
%TD*%
D14*
%TO.C,J1*%
X104100000Y-68960000D03*
D15*
X98100000Y-68960000D03*
D16*
X101100000Y-73660000D03*
%TD*%
D12*
%TO.C,J8*%
X153600000Y-100000000D03*
D13*
X151060000Y-100000000D03*
X148520000Y-100000000D03*
X145980000Y-100000000D03*
%TD*%
D10*
%TO.C,J10*%
X95061000Y-86388000D03*
D11*
X95061000Y-89888000D03*
%TD*%
M02*
