%TF.GenerationSoftware,KiCad,Pcbnew,(6.0.9-0)*%
%TF.CreationDate,2023-01-06T11:38:34+01:00*%
%TF.ProjectId,HumidityLoggerBreakout,48756d69-6469-4747-994c-6f6767657242,rev?*%
%TF.SameCoordinates,Original*%
%TF.FileFunction,Legend,Top*%
%TF.FilePolarity,Positive*%
%FSLAX46Y46*%
G04 Gerber Fmt 4.6, Leading zero omitted, Abs format (unit mm)*
G04 Created by KiCad (PCBNEW (6.0.9-0)) date 2023-01-06 11:38:34*
%MOMM*%
%LPD*%
G01*
G04 APERTURE LIST*
G04 Aperture macros list*
%AMRoundRect*
0 Rectangle with rounded corners*
0 $1 Rounding radius*
0 $2 $3 $4 $5 $6 $7 $8 $9 X,Y pos of 4 corners*
0 Add a 4 corners polygon primitive as box body*
4,1,4,$2,$3,$4,$5,$6,$7,$8,$9,$2,$3,0*
0 Add four circle primitives for the rounded corners*
1,1,$1+$1,$2,$3*
1,1,$1+$1,$4,$5*
1,1,$1+$1,$6,$7*
1,1,$1+$1,$8,$9*
0 Add four rect primitives between the rounded corners*
20,1,$1+$1,$2,$3,$4,$5,0*
20,1,$1+$1,$4,$5,$6,$7,0*
20,1,$1+$1,$6,$7,$8,$9,0*
20,1,$1+$1,$8,$9,$2,$3,0*%
G04 Aperture macros list end*
%ADD10C,0.150000*%
%ADD11C,0.250000*%
%ADD12C,0.120000*%
%ADD13RoundRect,0.250000X0.450000X-0.350000X0.450000X0.350000X-0.450000X0.350000X-0.450000X-0.350000X0*%
%ADD14R,2.400000X2.400000*%
%ADD15C,2.400000*%
%ADD16RoundRect,0.250000X0.337500X0.475000X-0.337500X0.475000X-0.337500X-0.475000X0.337500X-0.475000X0*%
%ADD17RoundRect,0.250000X0.450000X-0.325000X0.450000X0.325000X-0.450000X0.325000X-0.450000X-0.325000X0*%
%ADD18R,1.700000X1.700000*%
%ADD19O,1.700000X1.700000*%
%ADD20R,2.200000X1.200000*%
%ADD21R,6.400000X5.800000*%
%ADD22RoundRect,0.250000X-0.350000X-0.450000X0.350000X-0.450000X0.350000X0.450000X-0.350000X0.450000X0*%
%ADD23RoundRect,0.250001X0.499999X0.924999X-0.499999X0.924999X-0.499999X-0.924999X0.499999X-0.924999X0*%
%ADD24RoundRect,0.250000X-0.337500X-0.475000X0.337500X-0.475000X0.337500X0.475000X-0.337500X0.475000X0*%
%ADD25RoundRect,0.250000X-0.450000X0.350000X-0.450000X-0.350000X0.450000X-0.350000X0.450000X0.350000X0*%
%ADD26RoundRect,0.250000X-0.475000X0.337500X-0.475000X-0.337500X0.475000X-0.337500X0.475000X0.337500X0*%
%ADD27R,3.500000X3.500000*%
%ADD28RoundRect,0.750000X-0.750000X-1.000000X0.750000X-1.000000X0.750000X1.000000X-0.750000X1.000000X0*%
%ADD29RoundRect,0.875000X-0.875000X-0.875000X0.875000X-0.875000X0.875000X0.875000X-0.875000X0.875000X0*%
%ADD30RoundRect,0.250000X-0.450000X0.325000X-0.450000X-0.325000X0.450000X-0.325000X0.450000X0.325000X0*%
G04 APERTURE END LIST*
D10*
X152741333Y-68143380D02*
X152265142Y-68143380D01*
X152265142Y-67143380D01*
X153598476Y-68143380D02*
X153027047Y-68143380D01*
X153312761Y-68143380D02*
X153312761Y-67143380D01*
X153217523Y-67286238D01*
X153122285Y-67381476D01*
X153027047Y-67429095D01*
X151146095Y-86431428D02*
X151908000Y-86431428D01*
X151527047Y-86812380D02*
X151527047Y-86050476D01*
X152288952Y-85812380D02*
X152908000Y-85812380D01*
X152574666Y-86193333D01*
X152717523Y-86193333D01*
X152812761Y-86240952D01*
X152860380Y-86288571D01*
X152908000Y-86383809D01*
X152908000Y-86621904D01*
X152860380Y-86717142D01*
X152812761Y-86764761D01*
X152717523Y-86812380D01*
X152431809Y-86812380D01*
X152336571Y-86764761D01*
X152288952Y-86717142D01*
X153193714Y-85812380D02*
X153527047Y-86812380D01*
X153860380Y-85812380D01*
X154098476Y-85812380D02*
X154717523Y-85812380D01*
X154384190Y-86193333D01*
X154527047Y-86193333D01*
X154622285Y-86240952D01*
X154669904Y-86288571D01*
X154717523Y-86383809D01*
X154717523Y-86621904D01*
X154669904Y-86717142D01*
X154622285Y-86764761D01*
X154527047Y-86812380D01*
X154241333Y-86812380D01*
X154146095Y-86764761D01*
X154098476Y-86717142D01*
X127762047Y-83256428D02*
X128523952Y-83256428D01*
X128143000Y-83637380D02*
X128143000Y-82875476D01*
X128651047Y-92400428D02*
X129412952Y-92400428D01*
X151717523Y-91844761D02*
X151860380Y-91892380D01*
X152098476Y-91892380D01*
X152193714Y-91844761D01*
X152241333Y-91797142D01*
X152288952Y-91701904D01*
X152288952Y-91606666D01*
X152241333Y-91511428D01*
X152193714Y-91463809D01*
X152098476Y-91416190D01*
X151908000Y-91368571D01*
X151812761Y-91320952D01*
X151765142Y-91273333D01*
X151717523Y-91178095D01*
X151717523Y-91082857D01*
X151765142Y-90987619D01*
X151812761Y-90940000D01*
X151908000Y-90892380D01*
X152146095Y-90892380D01*
X152288952Y-90940000D01*
X153288952Y-91797142D02*
X153241333Y-91844761D01*
X153098476Y-91892380D01*
X153003238Y-91892380D01*
X152860380Y-91844761D01*
X152765142Y-91749523D01*
X152717523Y-91654285D01*
X152669904Y-91463809D01*
X152669904Y-91320952D01*
X152717523Y-91130476D01*
X152765142Y-91035238D01*
X152860380Y-90940000D01*
X153003238Y-90892380D01*
X153098476Y-90892380D01*
X153241333Y-90940000D01*
X153288952Y-90987619D01*
X154193714Y-91892380D02*
X153717523Y-91892380D01*
X153717523Y-90892380D01*
X152146095Y-60841000D02*
X152050857Y-60793380D01*
X151908000Y-60793380D01*
X151765142Y-60841000D01*
X151669904Y-60936238D01*
X151622285Y-61031476D01*
X151574666Y-61221952D01*
X151574666Y-61364809D01*
X151622285Y-61555285D01*
X151669904Y-61650523D01*
X151765142Y-61745761D01*
X151908000Y-61793380D01*
X152003238Y-61793380D01*
X152146095Y-61745761D01*
X152193714Y-61698142D01*
X152193714Y-61364809D01*
X152003238Y-61364809D01*
X152622285Y-61793380D02*
X152622285Y-60793380D01*
X153193714Y-61793380D01*
X153193714Y-60793380D01*
X153669904Y-61793380D02*
X153669904Y-60793380D01*
X153908000Y-60793380D01*
X154050857Y-60841000D01*
X154146095Y-60936238D01*
X154193714Y-61031476D01*
X154241333Y-61221952D01*
X154241333Y-61364809D01*
X154193714Y-61555285D01*
X154146095Y-61650523D01*
X154050857Y-61745761D01*
X153908000Y-61793380D01*
X153669904Y-61793380D01*
X135509047Y-79954428D02*
X136270952Y-79954428D01*
X135890000Y-80335380D02*
X135890000Y-79573476D01*
D11*
X98873714Y-56731285D02*
X99826095Y-56731285D01*
X99349904Y-57207476D02*
X99349904Y-56255095D01*
X100242761Y-55957476D02*
X100659428Y-57207476D01*
X101076095Y-55957476D01*
X101492761Y-57207476D02*
X101492761Y-55957476D01*
X102088000Y-57207476D02*
X102088000Y-55957476D01*
X102802285Y-57207476D01*
X102802285Y-55957476D01*
D10*
X152741333Y-70683380D02*
X152265142Y-70683380D01*
X152265142Y-69683380D01*
X153027047Y-69778619D02*
X153074666Y-69731000D01*
X153169904Y-69683380D01*
X153408000Y-69683380D01*
X153503238Y-69731000D01*
X153550857Y-69778619D01*
X153598476Y-69873857D01*
X153598476Y-69969095D01*
X153550857Y-70111952D01*
X152979428Y-70683380D01*
X153598476Y-70683380D01*
X152193714Y-56427666D02*
X152669904Y-56427666D01*
X152098476Y-56713380D02*
X152431809Y-55713380D01*
X152765142Y-56713380D01*
X153527047Y-56046714D02*
X153527047Y-56713380D01*
X153288952Y-55665761D02*
X153050857Y-56380047D01*
X153669904Y-56380047D01*
X152146095Y-77351000D02*
X152050857Y-77303380D01*
X151908000Y-77303380D01*
X151765142Y-77351000D01*
X151669904Y-77446238D01*
X151622285Y-77541476D01*
X151574666Y-77731952D01*
X151574666Y-77874809D01*
X151622285Y-78065285D01*
X151669904Y-78160523D01*
X151765142Y-78255761D01*
X151908000Y-78303380D01*
X152003238Y-78303380D01*
X152146095Y-78255761D01*
X152193714Y-78208142D01*
X152193714Y-77874809D01*
X152003238Y-77874809D01*
X152622285Y-78303380D02*
X152622285Y-77303380D01*
X153193714Y-78303380D01*
X153193714Y-77303380D01*
X153669904Y-78303380D02*
X153669904Y-77303380D01*
X153908000Y-77303380D01*
X154050857Y-77351000D01*
X154146095Y-77446238D01*
X154193714Y-77541476D01*
X154241333Y-77731952D01*
X154241333Y-77874809D01*
X154193714Y-78065285D01*
X154146095Y-78160523D01*
X154050857Y-78255761D01*
X153908000Y-78303380D01*
X153669904Y-78303380D01*
X114681047Y-89987428D02*
X115442952Y-89987428D01*
X115062000Y-90368380D02*
X115062000Y-89606476D01*
X129921047Y-79954428D02*
X130682952Y-79954428D01*
X130302000Y-80335380D02*
X130302000Y-79573476D01*
X152741333Y-73223380D02*
X152265142Y-73223380D01*
X152265142Y-72223380D01*
X152979428Y-72223380D02*
X153598476Y-72223380D01*
X153265142Y-72604333D01*
X153408000Y-72604333D01*
X153503238Y-72651952D01*
X153550857Y-72699571D01*
X153598476Y-72794809D01*
X153598476Y-73032904D01*
X153550857Y-73128142D01*
X153503238Y-73175761D01*
X153408000Y-73223380D01*
X153122285Y-73223380D01*
X153027047Y-73175761D01*
X152979428Y-73128142D01*
X151622285Y-80462428D02*
X152384190Y-80462428D01*
X152003238Y-80843380D02*
X152003238Y-80081476D01*
X153336571Y-79843380D02*
X152860380Y-79843380D01*
X152812761Y-80319571D01*
X152860380Y-80271952D01*
X152955619Y-80224333D01*
X153193714Y-80224333D01*
X153288952Y-80271952D01*
X153336571Y-80319571D01*
X153384190Y-80414809D01*
X153384190Y-80652904D01*
X153336571Y-80748142D01*
X153288952Y-80795761D01*
X153193714Y-80843380D01*
X152955619Y-80843380D01*
X152860380Y-80795761D01*
X152812761Y-80748142D01*
X153669904Y-79843380D02*
X154003238Y-80843380D01*
X154336571Y-79843380D01*
X151622285Y-53792428D02*
X152384190Y-53792428D01*
X152003238Y-54173380D02*
X152003238Y-53411476D01*
X153336571Y-53173380D02*
X152860380Y-53173380D01*
X152812761Y-53649571D01*
X152860380Y-53601952D01*
X152955619Y-53554333D01*
X153193714Y-53554333D01*
X153288952Y-53601952D01*
X153336571Y-53649571D01*
X153384190Y-53744809D01*
X153384190Y-53982904D01*
X153336571Y-54078142D01*
X153288952Y-54125761D01*
X153193714Y-54173380D01*
X152955619Y-54173380D01*
X152860380Y-54125761D01*
X152812761Y-54078142D01*
X153669904Y-53173380D02*
X154003238Y-54173380D01*
X154336571Y-53173380D01*
X126984285Y-90114428D02*
X127746190Y-90114428D01*
X127365238Y-90495380D02*
X127365238Y-89733476D01*
X128698571Y-89495380D02*
X128222380Y-89495380D01*
X128174761Y-89971571D01*
X128222380Y-89923952D01*
X128317619Y-89876333D01*
X128555714Y-89876333D01*
X128650952Y-89923952D01*
X128698571Y-89971571D01*
X128746190Y-90066809D01*
X128746190Y-90304904D01*
X128698571Y-90400142D01*
X128650952Y-90447761D01*
X128555714Y-90495380D01*
X128317619Y-90495380D01*
X128222380Y-90447761D01*
X128174761Y-90400142D01*
X129031904Y-89495380D02*
X129365238Y-90495380D01*
X129698571Y-89495380D01*
X151693714Y-94384761D02*
X151836571Y-94432380D01*
X152074666Y-94432380D01*
X152169904Y-94384761D01*
X152217523Y-94337142D01*
X152265142Y-94241904D01*
X152265142Y-94146666D01*
X152217523Y-94051428D01*
X152169904Y-94003809D01*
X152074666Y-93956190D01*
X151884190Y-93908571D01*
X151788952Y-93860952D01*
X151741333Y-93813333D01*
X151693714Y-93718095D01*
X151693714Y-93622857D01*
X151741333Y-93527619D01*
X151788952Y-93480000D01*
X151884190Y-93432380D01*
X152122285Y-93432380D01*
X152265142Y-93480000D01*
X152693714Y-94432380D02*
X152693714Y-93432380D01*
X152931809Y-93432380D01*
X153074666Y-93480000D01*
X153169904Y-93575238D01*
X153217523Y-93670476D01*
X153265142Y-93860952D01*
X153265142Y-94003809D01*
X153217523Y-94194285D01*
X153169904Y-94289523D01*
X153074666Y-94384761D01*
X152931809Y-94432380D01*
X152693714Y-94432380D01*
X153646095Y-94146666D02*
X154122285Y-94146666D01*
X153550857Y-94432380D02*
X153884190Y-93432380D01*
X154217523Y-94432380D01*
X152193714Y-58967666D02*
X152669904Y-58967666D01*
X152098476Y-59253380D02*
X152431809Y-58253380D01*
X152765142Y-59253380D01*
X153574666Y-58253380D02*
X153098476Y-58253380D01*
X153050857Y-58729571D01*
X153098476Y-58681952D01*
X153193714Y-58634333D01*
X153431809Y-58634333D01*
X153527047Y-58681952D01*
X153574666Y-58729571D01*
X153622285Y-58824809D01*
X153622285Y-59062904D01*
X153574666Y-59158142D01*
X153527047Y-59205761D01*
X153431809Y-59253380D01*
X153193714Y-59253380D01*
X153098476Y-59205761D01*
X153050857Y-59158142D01*
X152741333Y-75763380D02*
X152265142Y-75763380D01*
X152265142Y-74763380D01*
X153503238Y-75096714D02*
X153503238Y-75763380D01*
X153265142Y-74715761D02*
X153027047Y-75430047D01*
X153646095Y-75430047D01*
X141097047Y-79954428D02*
X141858952Y-79954428D01*
X141478000Y-80335380D02*
X141478000Y-79573476D01*
X152146095Y-88400000D02*
X152050857Y-88352380D01*
X151908000Y-88352380D01*
X151765142Y-88400000D01*
X151669904Y-88495238D01*
X151622285Y-88590476D01*
X151574666Y-88780952D01*
X151574666Y-88923809D01*
X151622285Y-89114285D01*
X151669904Y-89209523D01*
X151765142Y-89304761D01*
X151908000Y-89352380D01*
X152003238Y-89352380D01*
X152146095Y-89304761D01*
X152193714Y-89257142D01*
X152193714Y-88923809D01*
X152003238Y-88923809D01*
X152622285Y-89352380D02*
X152622285Y-88352380D01*
X153193714Y-89352380D01*
X153193714Y-88352380D01*
X153669904Y-89352380D02*
X153669904Y-88352380D01*
X153908000Y-88352380D01*
X154050857Y-88400000D01*
X154146095Y-88495238D01*
X154193714Y-88590476D01*
X154241333Y-88780952D01*
X154241333Y-88923809D01*
X154193714Y-89114285D01*
X154146095Y-89209523D01*
X154050857Y-89304761D01*
X153908000Y-89352380D01*
X153669904Y-89352380D01*
X120015047Y-89987428D02*
X120776952Y-89987428D01*
X120396000Y-90368380D02*
X120396000Y-89606476D01*
%TO.C,R12*%
X137866380Y-74302857D02*
X137390190Y-74636190D01*
X137866380Y-74874285D02*
X136866380Y-74874285D01*
X136866380Y-74493333D01*
X136914000Y-74398095D01*
X136961619Y-74350476D01*
X137056857Y-74302857D01*
X137199714Y-74302857D01*
X137294952Y-74350476D01*
X137342571Y-74398095D01*
X137390190Y-74493333D01*
X137390190Y-74874285D01*
X137866380Y-73350476D02*
X137866380Y-73921904D01*
X137866380Y-73636190D02*
X136866380Y-73636190D01*
X137009238Y-73731428D01*
X137104476Y-73826666D01*
X137152095Y-73921904D01*
X136961619Y-72969523D02*
X136914000Y-72921904D01*
X136866380Y-72826666D01*
X136866380Y-72588571D01*
X136914000Y-72493333D01*
X136961619Y-72445714D01*
X137056857Y-72398095D01*
X137152095Y-72398095D01*
X137294952Y-72445714D01*
X137866380Y-73017142D01*
X137866380Y-72398095D01*
%TO.C,R10*%
X143454380Y-74302857D02*
X142978190Y-74636190D01*
X143454380Y-74874285D02*
X142454380Y-74874285D01*
X142454380Y-74493333D01*
X142502000Y-74398095D01*
X142549619Y-74350476D01*
X142644857Y-74302857D01*
X142787714Y-74302857D01*
X142882952Y-74350476D01*
X142930571Y-74398095D01*
X142978190Y-74493333D01*
X142978190Y-74874285D01*
X143454380Y-73350476D02*
X143454380Y-73921904D01*
X143454380Y-73636190D02*
X142454380Y-73636190D01*
X142597238Y-73731428D01*
X142692476Y-73826666D01*
X142740095Y-73921904D01*
X142454380Y-72731428D02*
X142454380Y-72636190D01*
X142502000Y-72540952D01*
X142549619Y-72493333D01*
X142644857Y-72445714D01*
X142835333Y-72398095D01*
X143073428Y-72398095D01*
X143263904Y-72445714D01*
X143359142Y-72493333D01*
X143406761Y-72540952D01*
X143454380Y-72636190D01*
X143454380Y-72731428D01*
X143406761Y-72826666D01*
X143359142Y-72874285D01*
X143263904Y-72921904D01*
X143073428Y-72969523D01*
X142835333Y-72969523D01*
X142644857Y-72921904D01*
X142549619Y-72874285D01*
X142502000Y-72826666D01*
X142454380Y-72731428D01*
%TO.C,J2*%
X98989380Y-58725333D02*
X99703666Y-58725333D01*
X99846523Y-58772952D01*
X99941761Y-58868190D01*
X99989380Y-59011047D01*
X99989380Y-59106285D01*
X99084619Y-58296761D02*
X99037000Y-58249142D01*
X98989380Y-58153904D01*
X98989380Y-57915809D01*
X99037000Y-57820571D01*
X99084619Y-57772952D01*
X99179857Y-57725333D01*
X99275095Y-57725333D01*
X99417952Y-57772952D01*
X99989380Y-58344380D01*
X99989380Y-57725333D01*
D11*
X91061523Y-63938476D02*
X91061523Y-62688476D01*
X91537714Y-62688476D01*
X91656761Y-62748000D01*
X91716285Y-62807523D01*
X91775809Y-62926571D01*
X91775809Y-63105142D01*
X91716285Y-63224190D01*
X91656761Y-63283714D01*
X91537714Y-63343238D01*
X91061523Y-63343238D01*
X92549619Y-62688476D02*
X92787714Y-62688476D01*
X92906761Y-62748000D01*
X93025809Y-62867047D01*
X93085333Y-63105142D01*
X93085333Y-63521809D01*
X93025809Y-63759904D01*
X92906761Y-63878952D01*
X92787714Y-63938476D01*
X92549619Y-63938476D01*
X92430571Y-63878952D01*
X92311523Y-63759904D01*
X92252000Y-63521809D01*
X92252000Y-63105142D01*
X92311523Y-62867047D01*
X92430571Y-62748000D01*
X92549619Y-62688476D01*
X93502000Y-62688476D02*
X93799619Y-63938476D01*
X94037714Y-63045619D01*
X94275809Y-63938476D01*
X94573428Y-62688476D01*
X95049619Y-63283714D02*
X95466285Y-63283714D01*
X95644857Y-63938476D02*
X95049619Y-63938476D01*
X95049619Y-62688476D01*
X95644857Y-62688476D01*
X96894857Y-63938476D02*
X96478190Y-63343238D01*
X96180571Y-63938476D02*
X96180571Y-62688476D01*
X96656761Y-62688476D01*
X96775809Y-62748000D01*
X96835333Y-62807523D01*
X96894857Y-62926571D01*
X96894857Y-63105142D01*
X96835333Y-63224190D01*
X96775809Y-63283714D01*
X96656761Y-63343238D01*
X96180571Y-63343238D01*
X97132952Y-64057523D02*
X98085333Y-64057523D01*
X98382952Y-63938476D02*
X98382952Y-62688476D01*
X98978190Y-63938476D02*
X98978190Y-62688476D01*
X99692476Y-63938476D01*
X99692476Y-62688476D01*
D10*
%TO.C,C7*%
X149312333Y-55758142D02*
X149264714Y-55805761D01*
X149121857Y-55853380D01*
X149026619Y-55853380D01*
X148883761Y-55805761D01*
X148788523Y-55710523D01*
X148740904Y-55615285D01*
X148693285Y-55424809D01*
X148693285Y-55281952D01*
X148740904Y-55091476D01*
X148788523Y-54996238D01*
X148883761Y-54901000D01*
X149026619Y-54853380D01*
X149121857Y-54853380D01*
X149264714Y-54901000D01*
X149312333Y-54948619D01*
X149645666Y-54853380D02*
X150312333Y-54853380D01*
X149883761Y-55853380D01*
%TO.C,D3*%
X113864380Y-92940095D02*
X112864380Y-92940095D01*
X112864380Y-92702000D01*
X112912000Y-92559142D01*
X113007238Y-92463904D01*
X113102476Y-92416285D01*
X113292952Y-92368666D01*
X113435809Y-92368666D01*
X113626285Y-92416285D01*
X113721523Y-92463904D01*
X113816761Y-92559142D01*
X113864380Y-92702000D01*
X113864380Y-92940095D01*
X112864380Y-92035333D02*
X112864380Y-91416285D01*
X113245333Y-91749619D01*
X113245333Y-91606761D01*
X113292952Y-91511523D01*
X113340571Y-91463904D01*
X113435809Y-91416285D01*
X113673904Y-91416285D01*
X113769142Y-91463904D01*
X113816761Y-91511523D01*
X113864380Y-91606761D01*
X113864380Y-91892476D01*
X113816761Y-91987714D01*
X113769142Y-92035333D01*
X116164380Y-92392476D02*
X116164380Y-92868666D01*
X116640571Y-92916285D01*
X116592952Y-92868666D01*
X116545333Y-92773428D01*
X116545333Y-92535333D01*
X116592952Y-92440095D01*
X116640571Y-92392476D01*
X116735809Y-92344857D01*
X116973904Y-92344857D01*
X117069142Y-92392476D01*
X117116761Y-92440095D01*
X117164380Y-92535333D01*
X117164380Y-92773428D01*
X117116761Y-92868666D01*
X117069142Y-92916285D01*
X116164380Y-92059142D02*
X117164380Y-91725809D01*
X116164380Y-91392476D01*
D11*
%TO.C,J3*%
X152281000Y-64456571D02*
X152281000Y-65528000D01*
X152209571Y-65742285D01*
X152066714Y-65885142D01*
X151852428Y-65956571D01*
X151709571Y-65956571D01*
X152852428Y-64456571D02*
X153781000Y-64456571D01*
X153281000Y-65028000D01*
X153495285Y-65028000D01*
X153638142Y-65099428D01*
X153709571Y-65170857D01*
X153781000Y-65313714D01*
X153781000Y-65670857D01*
X153709571Y-65813714D01*
X153638142Y-65885142D01*
X153495285Y-65956571D01*
X153066714Y-65956571D01*
X152923857Y-65885142D01*
X152852428Y-65813714D01*
D10*
X155416428Y-83173380D02*
X154940238Y-83173380D01*
X154940238Y-82173380D01*
X155749761Y-82649571D02*
X156083095Y-82649571D01*
X156225952Y-83173380D02*
X155749761Y-83173380D01*
X155749761Y-82173380D01*
X156225952Y-82173380D01*
X156511666Y-82173380D02*
X156845000Y-83173380D01*
X157178333Y-82173380D01*
X157511666Y-82649571D02*
X157845000Y-82649571D01*
X157987857Y-83173380D02*
X157511666Y-83173380D01*
X157511666Y-82173380D01*
X157987857Y-82173380D01*
X158892619Y-83173380D02*
X158416428Y-83173380D01*
X158416428Y-82173380D01*
%TO.C,J6*%
X142752380Y-100333333D02*
X143466666Y-100333333D01*
X143609523Y-100380952D01*
X143704761Y-100476190D01*
X143752380Y-100619047D01*
X143752380Y-100714285D01*
X142752380Y-99428571D02*
X142752380Y-99619047D01*
X142800000Y-99714285D01*
X142847619Y-99761904D01*
X142990476Y-99857142D01*
X143180952Y-99904761D01*
X143561904Y-99904761D01*
X143657142Y-99857142D01*
X143704761Y-99809523D01*
X143752380Y-99714285D01*
X143752380Y-99523809D01*
X143704761Y-99428571D01*
X143657142Y-99380952D01*
X143561904Y-99333333D01*
X143323809Y-99333333D01*
X143228571Y-99380952D01*
X143180952Y-99428571D01*
X143133333Y-99523809D01*
X143133333Y-99714285D01*
X143180952Y-99809523D01*
X143228571Y-99857142D01*
X143323809Y-99904761D01*
%TO.C,U1*%
X116205095Y-64548380D02*
X116205095Y-65357904D01*
X116252714Y-65453142D01*
X116300333Y-65500761D01*
X116395571Y-65548380D01*
X116586047Y-65548380D01*
X116681285Y-65500761D01*
X116728904Y-65453142D01*
X116776523Y-65357904D01*
X116776523Y-64548380D01*
X117776523Y-65548380D02*
X117205095Y-65548380D01*
X117490809Y-65548380D02*
X117490809Y-64548380D01*
X117395571Y-64691238D01*
X117300333Y-64786476D01*
X117205095Y-64834095D01*
X115499190Y-76398380D02*
X115023000Y-76398380D01*
X115023000Y-75398380D01*
X115832523Y-76398380D02*
X115832523Y-75398380D01*
X116165857Y-76112666D01*
X116499190Y-75398380D01*
X116499190Y-76398380D01*
X116880142Y-75398380D02*
X117499190Y-75398380D01*
X117165857Y-75779333D01*
X117308714Y-75779333D01*
X117403952Y-75826952D01*
X117451571Y-75874571D01*
X117499190Y-75969809D01*
X117499190Y-76207904D01*
X117451571Y-76303142D01*
X117403952Y-76350761D01*
X117308714Y-76398380D01*
X117023000Y-76398380D01*
X116927761Y-76350761D01*
X116880142Y-76303142D01*
X118451571Y-76398380D02*
X117880142Y-76398380D01*
X118165857Y-76398380D02*
X118165857Y-75398380D01*
X118070619Y-75541238D01*
X117975380Y-75636476D01*
X117880142Y-75684095D01*
X118784904Y-75398380D02*
X119451571Y-75398380D01*
X119023000Y-76398380D01*
X119594428Y-76493619D02*
X120356333Y-76493619D01*
X120451571Y-75398380D02*
X121023000Y-75398380D01*
X120737285Y-76398380D02*
X120737285Y-75398380D01*
X121546809Y-75398380D02*
X121737285Y-75398380D01*
X121832523Y-75446000D01*
X121927761Y-75541238D01*
X121975380Y-75731714D01*
X121975380Y-76065047D01*
X121927761Y-76255523D01*
X121832523Y-76350761D01*
X121737285Y-76398380D01*
X121546809Y-76398380D01*
X121451571Y-76350761D01*
X121356333Y-76255523D01*
X121308714Y-76065047D01*
X121308714Y-75731714D01*
X121356333Y-75541238D01*
X121451571Y-75446000D01*
X121546809Y-75398380D01*
X122403952Y-76017428D02*
X123165857Y-76017428D01*
X123594428Y-75493619D02*
X123642047Y-75446000D01*
X123737285Y-75398380D01*
X123975380Y-75398380D01*
X124070619Y-75446000D01*
X124118238Y-75493619D01*
X124165857Y-75588857D01*
X124165857Y-75684095D01*
X124118238Y-75826952D01*
X123546809Y-76398380D01*
X124165857Y-76398380D01*
X125070619Y-75398380D02*
X124594428Y-75398380D01*
X124546809Y-75874571D01*
X124594428Y-75826952D01*
X124689666Y-75779333D01*
X124927761Y-75779333D01*
X125023000Y-75826952D01*
X125070619Y-75874571D01*
X125118238Y-75969809D01*
X125118238Y-76207904D01*
X125070619Y-76303142D01*
X125023000Y-76350761D01*
X124927761Y-76398380D01*
X124689666Y-76398380D01*
X124594428Y-76350761D01*
X124546809Y-76303142D01*
X125499190Y-75493619D02*
X125546809Y-75446000D01*
X125642047Y-75398380D01*
X125880142Y-75398380D01*
X125975380Y-75446000D01*
X126023000Y-75493619D01*
X126070619Y-75588857D01*
X126070619Y-75684095D01*
X126023000Y-75826952D01*
X125451571Y-76398380D01*
X126070619Y-76398380D01*
%TO.C,R8*%
X146772333Y-75763380D02*
X146439000Y-75287190D01*
X146200904Y-75763380D02*
X146200904Y-74763380D01*
X146581857Y-74763380D01*
X146677095Y-74811000D01*
X146724714Y-74858619D01*
X146772333Y-74953857D01*
X146772333Y-75096714D01*
X146724714Y-75191952D01*
X146677095Y-75239571D01*
X146581857Y-75287190D01*
X146200904Y-75287190D01*
X147343761Y-75191952D02*
X147248523Y-75144333D01*
X147200904Y-75096714D01*
X147153285Y-75001476D01*
X147153285Y-74953857D01*
X147200904Y-74858619D01*
X147248523Y-74811000D01*
X147343761Y-74763380D01*
X147534238Y-74763380D01*
X147629476Y-74811000D01*
X147677095Y-74858619D01*
X147724714Y-74953857D01*
X147724714Y-75001476D01*
X147677095Y-75096714D01*
X147629476Y-75144333D01*
X147534238Y-75191952D01*
X147343761Y-75191952D01*
X147248523Y-75239571D01*
X147200904Y-75287190D01*
X147153285Y-75382428D01*
X147153285Y-75572904D01*
X147200904Y-75668142D01*
X147248523Y-75715761D01*
X147343761Y-75763380D01*
X147534238Y-75763380D01*
X147629476Y-75715761D01*
X147677095Y-75668142D01*
X147724714Y-75572904D01*
X147724714Y-75382428D01*
X147677095Y-75287190D01*
X147629476Y-75239571D01*
X147534238Y-75191952D01*
D11*
%TO.C,J9*%
X152281000Y-82998571D02*
X152281000Y-84070000D01*
X152209571Y-84284285D01*
X152066714Y-84427142D01*
X151852428Y-84498571D01*
X151709571Y-84498571D01*
X153066714Y-84498571D02*
X153352428Y-84498571D01*
X153495285Y-84427142D01*
X153566714Y-84355714D01*
X153709571Y-84141428D01*
X153781000Y-83855714D01*
X153781000Y-83284285D01*
X153709571Y-83141428D01*
X153638142Y-83070000D01*
X153495285Y-82998571D01*
X153209571Y-82998571D01*
X153066714Y-83070000D01*
X152995285Y-83141428D01*
X152923857Y-83284285D01*
X152923857Y-83641428D01*
X152995285Y-83784285D01*
X153066714Y-83855714D01*
X153209571Y-83927142D01*
X153495285Y-83927142D01*
X153638142Y-83855714D01*
X153709571Y-83784285D01*
X153781000Y-83641428D01*
D10*
X154059285Y-96635380D02*
X154059285Y-95635380D01*
X154487857Y-95730619D02*
X154535476Y-95683000D01*
X154630714Y-95635380D01*
X154868809Y-95635380D01*
X154964047Y-95683000D01*
X155011666Y-95730619D01*
X155059285Y-95825857D01*
X155059285Y-95921095D01*
X155011666Y-96063952D01*
X154440238Y-96635380D01*
X155059285Y-96635380D01*
X156059285Y-96540142D02*
X156011666Y-96587761D01*
X155868809Y-96635380D01*
X155773571Y-96635380D01*
X155630714Y-96587761D01*
X155535476Y-96492523D01*
X155487857Y-96397285D01*
X155440238Y-96206809D01*
X155440238Y-96063952D01*
X155487857Y-95873476D01*
X155535476Y-95778238D01*
X155630714Y-95683000D01*
X155773571Y-95635380D01*
X155868809Y-95635380D01*
X156011666Y-95683000D01*
X156059285Y-95730619D01*
X156249761Y-96730619D02*
X157011666Y-96730619D01*
X157440238Y-95635380D02*
X157630714Y-95635380D01*
X157725952Y-95683000D01*
X157821190Y-95778238D01*
X157868809Y-95968714D01*
X157868809Y-96302047D01*
X157821190Y-96492523D01*
X157725952Y-96587761D01*
X157630714Y-96635380D01*
X157440238Y-96635380D01*
X157345000Y-96587761D01*
X157249761Y-96492523D01*
X157202142Y-96302047D01*
X157202142Y-95968714D01*
X157249761Y-95778238D01*
X157345000Y-95683000D01*
X157440238Y-95635380D01*
X158297380Y-95635380D02*
X158297380Y-96444904D01*
X158345000Y-96540142D01*
X158392619Y-96587761D01*
X158487857Y-96635380D01*
X158678333Y-96635380D01*
X158773571Y-96587761D01*
X158821190Y-96540142D01*
X158868809Y-96444904D01*
X158868809Y-95635380D01*
X159202142Y-95635380D02*
X159773571Y-95635380D01*
X159487857Y-96635380D02*
X159487857Y-95635380D01*
%TO.C,J7*%
X142932380Y-52333333D02*
X143646666Y-52333333D01*
X143789523Y-52380952D01*
X143884761Y-52476190D01*
X143932380Y-52619047D01*
X143932380Y-52714285D01*
X142932380Y-51952380D02*
X142932380Y-51285714D01*
X143932380Y-51714285D01*
D11*
%TO.C,J4*%
X152281000Y-50867571D02*
X152281000Y-51939000D01*
X152209571Y-52153285D01*
X152066714Y-52296142D01*
X151852428Y-52367571D01*
X151709571Y-52367571D01*
X153638142Y-51367571D02*
X153638142Y-52367571D01*
X153281000Y-50796142D02*
X152923857Y-51867571D01*
X153852428Y-51867571D01*
D10*
X155440238Y-64123380D02*
X155106904Y-63647190D01*
X154868809Y-64123380D02*
X154868809Y-63123380D01*
X155249761Y-63123380D01*
X155345000Y-63171000D01*
X155392619Y-63218619D01*
X155440238Y-63313857D01*
X155440238Y-63456714D01*
X155392619Y-63551952D01*
X155345000Y-63599571D01*
X155249761Y-63647190D01*
X154868809Y-63647190D01*
X155868809Y-63599571D02*
X156202142Y-63599571D01*
X156345000Y-64123380D02*
X155868809Y-64123380D01*
X155868809Y-63123380D01*
X156345000Y-63123380D01*
X157249761Y-64123380D02*
X156773571Y-64123380D01*
X156773571Y-63123380D01*
X157535476Y-63837666D02*
X158011666Y-63837666D01*
X157440238Y-64123380D02*
X157773571Y-63123380D01*
X158106904Y-64123380D01*
X158630714Y-63647190D02*
X158630714Y-64123380D01*
X158297380Y-63123380D02*
X158630714Y-63647190D01*
X158964047Y-63123380D01*
%TO.C,C5*%
X124700333Y-86019142D02*
X124652714Y-86066761D01*
X124509857Y-86114380D01*
X124414619Y-86114380D01*
X124271761Y-86066761D01*
X124176523Y-85971523D01*
X124128904Y-85876285D01*
X124081285Y-85685809D01*
X124081285Y-85542952D01*
X124128904Y-85352476D01*
X124176523Y-85257238D01*
X124271761Y-85162000D01*
X124414619Y-85114380D01*
X124509857Y-85114380D01*
X124652714Y-85162000D01*
X124700333Y-85209619D01*
X125605095Y-85114380D02*
X125128904Y-85114380D01*
X125081285Y-85590571D01*
X125128904Y-85542952D01*
X125224142Y-85495333D01*
X125462238Y-85495333D01*
X125557476Y-85542952D01*
X125605095Y-85590571D01*
X125652714Y-85685809D01*
X125652714Y-85923904D01*
X125605095Y-86019142D01*
X125557476Y-86066761D01*
X125462238Y-86114380D01*
X125224142Y-86114380D01*
X125128904Y-86066761D01*
X125081285Y-86019142D01*
%TO.C,C3*%
X110450333Y-64238142D02*
X110402714Y-64285761D01*
X110259857Y-64333380D01*
X110164619Y-64333380D01*
X110021761Y-64285761D01*
X109926523Y-64190523D01*
X109878904Y-64095285D01*
X109831285Y-63904809D01*
X109831285Y-63761952D01*
X109878904Y-63571476D01*
X109926523Y-63476238D01*
X110021761Y-63381000D01*
X110164619Y-63333380D01*
X110259857Y-63333380D01*
X110402714Y-63381000D01*
X110450333Y-63428619D01*
X110783666Y-63333380D02*
X111402714Y-63333380D01*
X111069380Y-63714333D01*
X111212238Y-63714333D01*
X111307476Y-63761952D01*
X111355095Y-63809571D01*
X111402714Y-63904809D01*
X111402714Y-64142904D01*
X111355095Y-64238142D01*
X111307476Y-64285761D01*
X111212238Y-64333380D01*
X110926523Y-64333380D01*
X110831285Y-64285761D01*
X110783666Y-64238142D01*
%TO.C,J5*%
X130984666Y-87033380D02*
X130984666Y-87747666D01*
X130937047Y-87890523D01*
X130841809Y-87985761D01*
X130698952Y-88033380D01*
X130603714Y-88033380D01*
X131937047Y-87033380D02*
X131460857Y-87033380D01*
X131413238Y-87509571D01*
X131460857Y-87461952D01*
X131556095Y-87414333D01*
X131794190Y-87414333D01*
X131889428Y-87461952D01*
X131937047Y-87509571D01*
X131984666Y-87604809D01*
X131984666Y-87842904D01*
X131937047Y-87938142D01*
X131889428Y-87985761D01*
X131794190Y-88033380D01*
X131556095Y-88033380D01*
X131460857Y-87985761D01*
X131413238Y-87938142D01*
%TO.C,R4*%
X144089380Y-60618666D02*
X143613190Y-60952000D01*
X144089380Y-61190095D02*
X143089380Y-61190095D01*
X143089380Y-60809142D01*
X143137000Y-60713904D01*
X143184619Y-60666285D01*
X143279857Y-60618666D01*
X143422714Y-60618666D01*
X143517952Y-60666285D01*
X143565571Y-60713904D01*
X143613190Y-60809142D01*
X143613190Y-61190095D01*
X143422714Y-59761523D02*
X144089380Y-59761523D01*
X143041761Y-59999619D02*
X143756047Y-60237714D01*
X143756047Y-59618666D01*
%TO.C,C10*%
X104624142Y-91574857D02*
X104671761Y-91622476D01*
X104719380Y-91765333D01*
X104719380Y-91860571D01*
X104671761Y-92003428D01*
X104576523Y-92098666D01*
X104481285Y-92146285D01*
X104290809Y-92193904D01*
X104147952Y-92193904D01*
X103957476Y-92146285D01*
X103862238Y-92098666D01*
X103767000Y-92003428D01*
X103719380Y-91860571D01*
X103719380Y-91765333D01*
X103767000Y-91622476D01*
X103814619Y-91574857D01*
X104719380Y-90622476D02*
X104719380Y-91193904D01*
X104719380Y-90908190D02*
X103719380Y-90908190D01*
X103862238Y-91003428D01*
X103957476Y-91098666D01*
X104005095Y-91193904D01*
X103719380Y-90003428D02*
X103719380Y-89908190D01*
X103767000Y-89812952D01*
X103814619Y-89765333D01*
X103909857Y-89717714D01*
X104100333Y-89670095D01*
X104338428Y-89670095D01*
X104528904Y-89717714D01*
X104624142Y-89765333D01*
X104671761Y-89812952D01*
X104719380Y-89908190D01*
X104719380Y-90003428D01*
X104671761Y-90098666D01*
X104624142Y-90146285D01*
X104528904Y-90193904D01*
X104338428Y-90241523D01*
X104100333Y-90241523D01*
X103909857Y-90193904D01*
X103814619Y-90146285D01*
X103767000Y-90098666D01*
X103719380Y-90003428D01*
%TO.C,J1*%
X95316666Y-74162380D02*
X95316666Y-74876666D01*
X95269047Y-75019523D01*
X95173809Y-75114761D01*
X95030952Y-75162380D01*
X94935714Y-75162380D01*
X96316666Y-75162380D02*
X95745238Y-75162380D01*
X96030952Y-75162380D02*
X96030952Y-74162380D01*
X95935714Y-74305238D01*
X95840476Y-74400476D01*
X95745238Y-74448095D01*
%TO.C,C12*%
X100306142Y-91574857D02*
X100353761Y-91622476D01*
X100401380Y-91765333D01*
X100401380Y-91860571D01*
X100353761Y-92003428D01*
X100258523Y-92098666D01*
X100163285Y-92146285D01*
X99972809Y-92193904D01*
X99829952Y-92193904D01*
X99639476Y-92146285D01*
X99544238Y-92098666D01*
X99449000Y-92003428D01*
X99401380Y-91860571D01*
X99401380Y-91765333D01*
X99449000Y-91622476D01*
X99496619Y-91574857D01*
X100401380Y-90622476D02*
X100401380Y-91193904D01*
X100401380Y-90908190D02*
X99401380Y-90908190D01*
X99544238Y-91003428D01*
X99639476Y-91098666D01*
X99687095Y-91193904D01*
X99496619Y-90241523D02*
X99449000Y-90193904D01*
X99401380Y-90098666D01*
X99401380Y-89860571D01*
X99449000Y-89765333D01*
X99496619Y-89717714D01*
X99591857Y-89670095D01*
X99687095Y-89670095D01*
X99829952Y-89717714D01*
X100401380Y-90289142D01*
X100401380Y-89670095D01*
%TO.C,R14*%
X120466380Y-87002857D02*
X119990190Y-87336190D01*
X120466380Y-87574285D02*
X119466380Y-87574285D01*
X119466380Y-87193333D01*
X119514000Y-87098095D01*
X119561619Y-87050476D01*
X119656857Y-87002857D01*
X119799714Y-87002857D01*
X119894952Y-87050476D01*
X119942571Y-87098095D01*
X119990190Y-87193333D01*
X119990190Y-87574285D01*
X120466380Y-86050476D02*
X120466380Y-86621904D01*
X120466380Y-86336190D02*
X119466380Y-86336190D01*
X119609238Y-86431428D01*
X119704476Y-86526666D01*
X119752095Y-86621904D01*
X119799714Y-85193333D02*
X120466380Y-85193333D01*
X119418761Y-85431428D02*
X120133047Y-85669523D01*
X120133047Y-85050476D01*
%TO.C,R13*%
X117164380Y-87018857D02*
X116688190Y-87352190D01*
X117164380Y-87590285D02*
X116164380Y-87590285D01*
X116164380Y-87209333D01*
X116212000Y-87114095D01*
X116259619Y-87066476D01*
X116354857Y-87018857D01*
X116497714Y-87018857D01*
X116592952Y-87066476D01*
X116640571Y-87114095D01*
X116688190Y-87209333D01*
X116688190Y-87590285D01*
X117164380Y-86066476D02*
X117164380Y-86637904D01*
X117164380Y-86352190D02*
X116164380Y-86352190D01*
X116307238Y-86447428D01*
X116402476Y-86542666D01*
X116450095Y-86637904D01*
X116164380Y-85733142D02*
X116164380Y-85114095D01*
X116545333Y-85447428D01*
X116545333Y-85304571D01*
X116592952Y-85209333D01*
X116640571Y-85161714D01*
X116735809Y-85114095D01*
X116973904Y-85114095D01*
X117069142Y-85161714D01*
X117116761Y-85209333D01*
X117164380Y-85304571D01*
X117164380Y-85590285D01*
X117116761Y-85685523D01*
X117069142Y-85733142D01*
%TO.C,R1*%
X150185380Y-60618666D02*
X149709190Y-60952000D01*
X150185380Y-61190095D02*
X149185380Y-61190095D01*
X149185380Y-60809142D01*
X149233000Y-60713904D01*
X149280619Y-60666285D01*
X149375857Y-60618666D01*
X149518714Y-60618666D01*
X149613952Y-60666285D01*
X149661571Y-60713904D01*
X149709190Y-60809142D01*
X149709190Y-61190095D01*
X150185380Y-59666285D02*
X150185380Y-60237714D01*
X150185380Y-59952000D02*
X149185380Y-59952000D01*
X149328238Y-60047238D01*
X149423476Y-60142476D01*
X149471095Y-60237714D01*
%TO.C,R11*%
X114879380Y-64142857D02*
X114403190Y-64476190D01*
X114879380Y-64714285D02*
X113879380Y-64714285D01*
X113879380Y-64333333D01*
X113927000Y-64238095D01*
X113974619Y-64190476D01*
X114069857Y-64142857D01*
X114212714Y-64142857D01*
X114307952Y-64190476D01*
X114355571Y-64238095D01*
X114403190Y-64333333D01*
X114403190Y-64714285D01*
X114879380Y-63190476D02*
X114879380Y-63761904D01*
X114879380Y-63476190D02*
X113879380Y-63476190D01*
X114022238Y-63571428D01*
X114117476Y-63666666D01*
X114165095Y-63761904D01*
X114879380Y-62238095D02*
X114879380Y-62809523D01*
X114879380Y-62523809D02*
X113879380Y-62523809D01*
X114022238Y-62619047D01*
X114117476Y-62714285D01*
X114165095Y-62809523D01*
%TO.C,C2*%
X110450333Y-59920142D02*
X110402714Y-59967761D01*
X110259857Y-60015380D01*
X110164619Y-60015380D01*
X110021761Y-59967761D01*
X109926523Y-59872523D01*
X109878904Y-59777285D01*
X109831285Y-59586809D01*
X109831285Y-59443952D01*
X109878904Y-59253476D01*
X109926523Y-59158238D01*
X110021761Y-59063000D01*
X110164619Y-59015380D01*
X110259857Y-59015380D01*
X110402714Y-59063000D01*
X110450333Y-59110619D01*
X110831285Y-59110619D02*
X110878904Y-59063000D01*
X110974142Y-59015380D01*
X111212238Y-59015380D01*
X111307476Y-59063000D01*
X111355095Y-59110619D01*
X111402714Y-59205857D01*
X111402714Y-59301095D01*
X111355095Y-59443952D01*
X110783666Y-60015380D01*
X111402714Y-60015380D01*
%TO.C,D1*%
X143580380Y-78462095D02*
X142580380Y-78462095D01*
X142580380Y-78224000D01*
X142628000Y-78081142D01*
X142723238Y-77985904D01*
X142818476Y-77938285D01*
X143008952Y-77890666D01*
X143151809Y-77890666D01*
X143342285Y-77938285D01*
X143437523Y-77985904D01*
X143532761Y-78081142D01*
X143580380Y-78224000D01*
X143580380Y-78462095D01*
X143580380Y-76938285D02*
X143580380Y-77509714D01*
X143580380Y-77224000D02*
X142580380Y-77224000D01*
X142723238Y-77319238D01*
X142818476Y-77414476D01*
X142866095Y-77509714D01*
%TO.C,J8*%
X155382380Y-100333333D02*
X156096666Y-100333333D01*
X156239523Y-100380952D01*
X156334761Y-100476190D01*
X156382380Y-100619047D01*
X156382380Y-100714285D01*
X155810952Y-99714285D02*
X155763333Y-99809523D01*
X155715714Y-99857142D01*
X155620476Y-99904761D01*
X155572857Y-99904761D01*
X155477619Y-99857142D01*
X155430000Y-99809523D01*
X155382380Y-99714285D01*
X155382380Y-99523809D01*
X155430000Y-99428571D01*
X155477619Y-99380952D01*
X155572857Y-99333333D01*
X155620476Y-99333333D01*
X155715714Y-99380952D01*
X155763333Y-99428571D01*
X155810952Y-99523809D01*
X155810952Y-99714285D01*
X155858571Y-99809523D01*
X155906190Y-99857142D01*
X156001428Y-99904761D01*
X156191904Y-99904761D01*
X156287142Y-99857142D01*
X156334761Y-99809523D01*
X156382380Y-99714285D01*
X156382380Y-99523809D01*
X156334761Y-99428571D01*
X156287142Y-99380952D01*
X156191904Y-99333333D01*
X156001428Y-99333333D01*
X155906190Y-99380952D01*
X155858571Y-99428571D01*
X155810952Y-99523809D01*
%TO.C,R6*%
X146772333Y-70683380D02*
X146439000Y-70207190D01*
X146200904Y-70683380D02*
X146200904Y-69683380D01*
X146581857Y-69683380D01*
X146677095Y-69731000D01*
X146724714Y-69778619D01*
X146772333Y-69873857D01*
X146772333Y-70016714D01*
X146724714Y-70111952D01*
X146677095Y-70159571D01*
X146581857Y-70207190D01*
X146200904Y-70207190D01*
X147629476Y-69683380D02*
X147439000Y-69683380D01*
X147343761Y-69731000D01*
X147296142Y-69778619D01*
X147200904Y-69921476D01*
X147153285Y-70111952D01*
X147153285Y-70492904D01*
X147200904Y-70588142D01*
X147248523Y-70635761D01*
X147343761Y-70683380D01*
X147534238Y-70683380D01*
X147629476Y-70635761D01*
X147677095Y-70588142D01*
X147724714Y-70492904D01*
X147724714Y-70254809D01*
X147677095Y-70159571D01*
X147629476Y-70111952D01*
X147534238Y-70064333D01*
X147343761Y-70064333D01*
X147248523Y-70111952D01*
X147200904Y-70159571D01*
X147153285Y-70254809D01*
%TO.C,R5*%
X146772333Y-68143380D02*
X146439000Y-67667190D01*
X146200904Y-68143380D02*
X146200904Y-67143380D01*
X146581857Y-67143380D01*
X146677095Y-67191000D01*
X146724714Y-67238619D01*
X146772333Y-67333857D01*
X146772333Y-67476714D01*
X146724714Y-67571952D01*
X146677095Y-67619571D01*
X146581857Y-67667190D01*
X146200904Y-67667190D01*
X147677095Y-67143380D02*
X147200904Y-67143380D01*
X147153285Y-67619571D01*
X147200904Y-67571952D01*
X147296142Y-67524333D01*
X147534238Y-67524333D01*
X147629476Y-67571952D01*
X147677095Y-67619571D01*
X147724714Y-67714809D01*
X147724714Y-67952904D01*
X147677095Y-68048142D01*
X147629476Y-68095761D01*
X147534238Y-68143380D01*
X147296142Y-68143380D01*
X147200904Y-68095761D01*
X147153285Y-68048142D01*
%TO.C,R15*%
X132278380Y-74302857D02*
X131802190Y-74636190D01*
X132278380Y-74874285D02*
X131278380Y-74874285D01*
X131278380Y-74493333D01*
X131326000Y-74398095D01*
X131373619Y-74350476D01*
X131468857Y-74302857D01*
X131611714Y-74302857D01*
X131706952Y-74350476D01*
X131754571Y-74398095D01*
X131802190Y-74493333D01*
X131802190Y-74874285D01*
X132278380Y-73350476D02*
X132278380Y-73921904D01*
X132278380Y-73636190D02*
X131278380Y-73636190D01*
X131421238Y-73731428D01*
X131516476Y-73826666D01*
X131564095Y-73921904D01*
X131278380Y-72445714D02*
X131278380Y-72921904D01*
X131754571Y-72969523D01*
X131706952Y-72921904D01*
X131659333Y-72826666D01*
X131659333Y-72588571D01*
X131706952Y-72493333D01*
X131754571Y-72445714D01*
X131849809Y-72398095D01*
X132087904Y-72398095D01*
X132183142Y-72445714D01*
X132230761Y-72493333D01*
X132278380Y-72588571D01*
X132278380Y-72826666D01*
X132230761Y-72921904D01*
X132183142Y-72969523D01*
%TO.C,C9*%
X149185333Y-88270142D02*
X149137714Y-88317761D01*
X148994857Y-88365380D01*
X148899619Y-88365380D01*
X148756761Y-88317761D01*
X148661523Y-88222523D01*
X148613904Y-88127285D01*
X148566285Y-87936809D01*
X148566285Y-87793952D01*
X148613904Y-87603476D01*
X148661523Y-87508238D01*
X148756761Y-87413000D01*
X148899619Y-87365380D01*
X148994857Y-87365380D01*
X149137714Y-87413000D01*
X149185333Y-87460619D01*
X149661523Y-88365380D02*
X149852000Y-88365380D01*
X149947238Y-88317761D01*
X149994857Y-88270142D01*
X150090095Y-88127285D01*
X150137714Y-87936809D01*
X150137714Y-87555857D01*
X150090095Y-87460619D01*
X150042476Y-87413000D01*
X149947238Y-87365380D01*
X149756761Y-87365380D01*
X149661523Y-87413000D01*
X149613904Y-87460619D01*
X149566285Y-87555857D01*
X149566285Y-87793952D01*
X149613904Y-87889190D01*
X149661523Y-87936809D01*
X149756761Y-87984428D01*
X149947238Y-87984428D01*
X150042476Y-87936809D01*
X150090095Y-87889190D01*
X150137714Y-87793952D01*
%TO.C,R3*%
X146121380Y-60618666D02*
X145645190Y-60952000D01*
X146121380Y-61190095D02*
X145121380Y-61190095D01*
X145121380Y-60809142D01*
X145169000Y-60713904D01*
X145216619Y-60666285D01*
X145311857Y-60618666D01*
X145454714Y-60618666D01*
X145549952Y-60666285D01*
X145597571Y-60713904D01*
X145645190Y-60809142D01*
X145645190Y-61190095D01*
X145121380Y-60285333D02*
X145121380Y-59666285D01*
X145502333Y-59999619D01*
X145502333Y-59856761D01*
X145549952Y-59761523D01*
X145597571Y-59713904D01*
X145692809Y-59666285D01*
X145930904Y-59666285D01*
X146026142Y-59713904D01*
X146073761Y-59761523D01*
X146121380Y-59856761D01*
X146121380Y-60142476D01*
X146073761Y-60237714D01*
X146026142Y-60285333D01*
%TO.C,D2*%
X137992380Y-78462095D02*
X136992380Y-78462095D01*
X136992380Y-78224000D01*
X137040000Y-78081142D01*
X137135238Y-77985904D01*
X137230476Y-77938285D01*
X137420952Y-77890666D01*
X137563809Y-77890666D01*
X137754285Y-77938285D01*
X137849523Y-77985904D01*
X137944761Y-78081142D01*
X137992380Y-78224000D01*
X137992380Y-78462095D01*
X137087619Y-77509714D02*
X137040000Y-77462095D01*
X136992380Y-77366857D01*
X136992380Y-77128761D01*
X137040000Y-77033523D01*
X137087619Y-76985904D01*
X137182857Y-76938285D01*
X137278095Y-76938285D01*
X137420952Y-76985904D01*
X137992380Y-77557333D01*
X137992380Y-76938285D01*
%TO.C,C4*%
X132399833Y-80211142D02*
X132352214Y-80258761D01*
X132209357Y-80306380D01*
X132114119Y-80306380D01*
X131971261Y-80258761D01*
X131876023Y-80163523D01*
X131828404Y-80068285D01*
X131780785Y-79877809D01*
X131780785Y-79734952D01*
X131828404Y-79544476D01*
X131876023Y-79449238D01*
X131971261Y-79354000D01*
X132114119Y-79306380D01*
X132209357Y-79306380D01*
X132352214Y-79354000D01*
X132399833Y-79401619D01*
X133256976Y-79639714D02*
X133256976Y-80306380D01*
X133018880Y-79258761D02*
X132780785Y-79973047D01*
X133399833Y-79973047D01*
%TO.C,C1*%
X110450333Y-62079142D02*
X110402714Y-62126761D01*
X110259857Y-62174380D01*
X110164619Y-62174380D01*
X110021761Y-62126761D01*
X109926523Y-62031523D01*
X109878904Y-61936285D01*
X109831285Y-61745809D01*
X109831285Y-61602952D01*
X109878904Y-61412476D01*
X109926523Y-61317238D01*
X110021761Y-61222000D01*
X110164619Y-61174380D01*
X110259857Y-61174380D01*
X110402714Y-61222000D01*
X110450333Y-61269619D01*
X111402714Y-62174380D02*
X110831285Y-62174380D01*
X111117000Y-62174380D02*
X111117000Y-61174380D01*
X111021761Y-61317238D01*
X110926523Y-61412476D01*
X110831285Y-61460095D01*
%TO.C,C6*%
X149185333Y-82428142D02*
X149137714Y-82475761D01*
X148994857Y-82523380D01*
X148899619Y-82523380D01*
X148756761Y-82475761D01*
X148661523Y-82380523D01*
X148613904Y-82285285D01*
X148566285Y-82094809D01*
X148566285Y-81951952D01*
X148613904Y-81761476D01*
X148661523Y-81666238D01*
X148756761Y-81571000D01*
X148899619Y-81523380D01*
X148994857Y-81523380D01*
X149137714Y-81571000D01*
X149185333Y-81618619D01*
X150042476Y-81523380D02*
X149852000Y-81523380D01*
X149756761Y-81571000D01*
X149709142Y-81618619D01*
X149613904Y-81761476D01*
X149566285Y-81951952D01*
X149566285Y-82332904D01*
X149613904Y-82428142D01*
X149661523Y-82475761D01*
X149756761Y-82523380D01*
X149947238Y-82523380D01*
X150042476Y-82475761D01*
X150090095Y-82428142D01*
X150137714Y-82332904D01*
X150137714Y-82094809D01*
X150090095Y-81999571D01*
X150042476Y-81951952D01*
X149947238Y-81904333D01*
X149756761Y-81904333D01*
X149661523Y-81951952D01*
X149613904Y-81999571D01*
X149566285Y-82094809D01*
%TO.C,R7*%
X146772333Y-73223380D02*
X146439000Y-72747190D01*
X146200904Y-73223380D02*
X146200904Y-72223380D01*
X146581857Y-72223380D01*
X146677095Y-72271000D01*
X146724714Y-72318619D01*
X146772333Y-72413857D01*
X146772333Y-72556714D01*
X146724714Y-72651952D01*
X146677095Y-72699571D01*
X146581857Y-72747190D01*
X146200904Y-72747190D01*
X147105666Y-72223380D02*
X147772333Y-72223380D01*
X147343761Y-73223380D01*
%TO.C,D5*%
X132404380Y-78462095D02*
X131404380Y-78462095D01*
X131404380Y-78224000D01*
X131452000Y-78081142D01*
X131547238Y-77985904D01*
X131642476Y-77938285D01*
X131832952Y-77890666D01*
X131975809Y-77890666D01*
X132166285Y-77938285D01*
X132261523Y-77985904D01*
X132356761Y-78081142D01*
X132404380Y-78224000D01*
X132404380Y-78462095D01*
X131404380Y-76985904D02*
X131404380Y-77462095D01*
X131880571Y-77509714D01*
X131832952Y-77462095D01*
X131785333Y-77366857D01*
X131785333Y-77128761D01*
X131832952Y-77033523D01*
X131880571Y-76985904D01*
X131975809Y-76938285D01*
X132213904Y-76938285D01*
X132309142Y-76985904D01*
X132356761Y-77033523D01*
X132404380Y-77128761D01*
X132404380Y-77366857D01*
X132356761Y-77462095D01*
X132309142Y-77509714D01*
%TO.C,D4*%
X119198380Y-92940095D02*
X118198380Y-92940095D01*
X118198380Y-92702000D01*
X118246000Y-92559142D01*
X118341238Y-92463904D01*
X118436476Y-92416285D01*
X118626952Y-92368666D01*
X118769809Y-92368666D01*
X118960285Y-92416285D01*
X119055523Y-92463904D01*
X119150761Y-92559142D01*
X119198380Y-92702000D01*
X119198380Y-92940095D01*
X118531714Y-91511523D02*
X119198380Y-91511523D01*
X118150761Y-91749619D02*
X118865047Y-91987714D01*
X118865047Y-91368666D01*
X121498380Y-93440095D02*
X121498380Y-92821047D01*
X121879333Y-93154380D01*
X121879333Y-93011523D01*
X121926952Y-92916285D01*
X121974571Y-92868666D01*
X122069809Y-92821047D01*
X122307904Y-92821047D01*
X122403142Y-92868666D01*
X122450761Y-92916285D01*
X122498380Y-93011523D01*
X122498380Y-93297238D01*
X122450761Y-93392476D01*
X122403142Y-93440095D01*
X121498380Y-92535333D02*
X122498380Y-92202000D01*
X121498380Y-91868666D01*
X121498380Y-91630571D02*
X121498380Y-91011523D01*
X121879333Y-91344857D01*
X121879333Y-91202000D01*
X121926952Y-91106761D01*
X121974571Y-91059142D01*
X122069809Y-91011523D01*
X122307904Y-91011523D01*
X122403142Y-91059142D01*
X122450761Y-91106761D01*
X122498380Y-91202000D01*
X122498380Y-91487714D01*
X122450761Y-91582952D01*
X122403142Y-91630571D01*
%TO.C,J10*%
X96218476Y-91908380D02*
X96218476Y-92622666D01*
X96170857Y-92765523D01*
X96075619Y-92860761D01*
X95932761Y-92908380D01*
X95837523Y-92908380D01*
X97218476Y-92908380D02*
X96647047Y-92908380D01*
X96932761Y-92908380D02*
X96932761Y-91908380D01*
X96837523Y-92051238D01*
X96742285Y-92146476D01*
X96647047Y-92194095D01*
X97837523Y-91908380D02*
X97932761Y-91908380D01*
X98028000Y-91956000D01*
X98075619Y-92003619D01*
X98123238Y-92098857D01*
X98170857Y-92289333D01*
X98170857Y-92527428D01*
X98123238Y-92717904D01*
X98075619Y-92813142D01*
X98028000Y-92860761D01*
X97932761Y-92908380D01*
X97837523Y-92908380D01*
X97742285Y-92860761D01*
X97694666Y-92813142D01*
X97647047Y-92717904D01*
X97599428Y-92527428D01*
X97599428Y-92289333D01*
X97647047Y-92098857D01*
X97694666Y-92003619D01*
X97742285Y-91956000D01*
X97837523Y-91908380D01*
D11*
X91357285Y-83609571D02*
X90857285Y-82895285D01*
X90500142Y-83609571D02*
X90500142Y-82109571D01*
X91071571Y-82109571D01*
X91214428Y-82181000D01*
X91285857Y-82252428D01*
X91357285Y-82395285D01*
X91357285Y-82609571D01*
X91285857Y-82752428D01*
X91214428Y-82823857D01*
X91071571Y-82895285D01*
X90500142Y-82895285D01*
X92000142Y-82823857D02*
X92500142Y-82823857D01*
X92714428Y-83609571D02*
X92000142Y-83609571D01*
X92000142Y-82109571D01*
X92714428Y-82109571D01*
X94071571Y-83609571D02*
X93357285Y-83609571D01*
X93357285Y-82109571D01*
X94500142Y-83181000D02*
X95214428Y-83181000D01*
X94357285Y-83609571D02*
X94857285Y-82109571D01*
X95357285Y-83609571D01*
X96143000Y-82895285D02*
X96143000Y-83609571D01*
X95643000Y-82109571D02*
X96143000Y-82895285D01*
X96643000Y-82109571D01*
X96785857Y-83752428D02*
X97928714Y-83752428D01*
X98285857Y-83609571D02*
X98285857Y-82109571D01*
X98857285Y-82109571D01*
X99000142Y-82181000D01*
X99071571Y-82252428D01*
X99143000Y-82395285D01*
X99143000Y-82609571D01*
X99071571Y-82752428D01*
X99000142Y-82823857D01*
X98857285Y-82895285D01*
X98285857Y-82895285D01*
X99643000Y-82109571D02*
X100000142Y-83609571D01*
X100285857Y-82538142D01*
X100571571Y-83609571D01*
X100928714Y-82109571D01*
X102357285Y-83609571D02*
X101857285Y-82895285D01*
X101500142Y-83609571D02*
X101500142Y-82109571D01*
X102071571Y-82109571D01*
X102214428Y-82181000D01*
X102285857Y-82252428D01*
X102357285Y-82395285D01*
X102357285Y-82609571D01*
X102285857Y-82752428D01*
X102214428Y-82823857D01*
X102071571Y-82895285D01*
X101500142Y-82895285D01*
D10*
%TO.C,R9*%
X114878380Y-59729666D02*
X114402190Y-60063000D01*
X114878380Y-60301095D02*
X113878380Y-60301095D01*
X113878380Y-59920142D01*
X113926000Y-59824904D01*
X113973619Y-59777285D01*
X114068857Y-59729666D01*
X114211714Y-59729666D01*
X114306952Y-59777285D01*
X114354571Y-59824904D01*
X114402190Y-59920142D01*
X114402190Y-60301095D01*
X114878380Y-59253476D02*
X114878380Y-59063000D01*
X114830761Y-58967761D01*
X114783142Y-58920142D01*
X114640285Y-58824904D01*
X114449809Y-58777285D01*
X114068857Y-58777285D01*
X113973619Y-58824904D01*
X113926000Y-58872523D01*
X113878380Y-58967761D01*
X113878380Y-59158238D01*
X113926000Y-59253476D01*
X113973619Y-59301095D01*
X114068857Y-59348714D01*
X114306952Y-59348714D01*
X114402190Y-59301095D01*
X114449809Y-59253476D01*
X114497428Y-59158238D01*
X114497428Y-58967761D01*
X114449809Y-58872523D01*
X114402190Y-58824904D01*
X114306952Y-58777285D01*
%TO.C,R2*%
X148153380Y-60618666D02*
X147677190Y-60952000D01*
X148153380Y-61190095D02*
X147153380Y-61190095D01*
X147153380Y-60809142D01*
X147201000Y-60713904D01*
X147248619Y-60666285D01*
X147343857Y-60618666D01*
X147486714Y-60618666D01*
X147581952Y-60666285D01*
X147629571Y-60713904D01*
X147677190Y-60809142D01*
X147677190Y-61190095D01*
X147248619Y-60237714D02*
X147201000Y-60190095D01*
X147153380Y-60094857D01*
X147153380Y-59856761D01*
X147201000Y-59761523D01*
X147248619Y-59713904D01*
X147343857Y-59666285D01*
X147439095Y-59666285D01*
X147581952Y-59713904D01*
X148153380Y-60285333D01*
X148153380Y-59666285D01*
%TO.C,C11*%
X102465142Y-91574857D02*
X102512761Y-91622476D01*
X102560380Y-91765333D01*
X102560380Y-91860571D01*
X102512761Y-92003428D01*
X102417523Y-92098666D01*
X102322285Y-92146285D01*
X102131809Y-92193904D01*
X101988952Y-92193904D01*
X101798476Y-92146285D01*
X101703238Y-92098666D01*
X101608000Y-92003428D01*
X101560380Y-91860571D01*
X101560380Y-91765333D01*
X101608000Y-91622476D01*
X101655619Y-91574857D01*
X102560380Y-90622476D02*
X102560380Y-91193904D01*
X102560380Y-90908190D02*
X101560380Y-90908190D01*
X101703238Y-91003428D01*
X101798476Y-91098666D01*
X101846095Y-91193904D01*
X102560380Y-89670095D02*
X102560380Y-90241523D01*
X102560380Y-89955809D02*
X101560380Y-89955809D01*
X101703238Y-90051047D01*
X101798476Y-90146285D01*
X101846095Y-90241523D01*
%TO.C,C8*%
X136403142Y-91120166D02*
X136450761Y-91167785D01*
X136498380Y-91310642D01*
X136498380Y-91405880D01*
X136450761Y-91548738D01*
X136355523Y-91643976D01*
X136260285Y-91691595D01*
X136069809Y-91739214D01*
X135926952Y-91739214D01*
X135736476Y-91691595D01*
X135641238Y-91643976D01*
X135546000Y-91548738D01*
X135498380Y-91405880D01*
X135498380Y-91310642D01*
X135546000Y-91167785D01*
X135593619Y-91120166D01*
X135926952Y-90548738D02*
X135879333Y-90643976D01*
X135831714Y-90691595D01*
X135736476Y-90739214D01*
X135688857Y-90739214D01*
X135593619Y-90691595D01*
X135546000Y-90643976D01*
X135498380Y-90548738D01*
X135498380Y-90358261D01*
X135546000Y-90263023D01*
X135593619Y-90215404D01*
X135688857Y-90167785D01*
X135736476Y-90167785D01*
X135831714Y-90215404D01*
X135879333Y-90263023D01*
X135926952Y-90358261D01*
X135926952Y-90548738D01*
X135974571Y-90643976D01*
X136022190Y-90691595D01*
X136117428Y-90739214D01*
X136307904Y-90739214D01*
X136403142Y-90691595D01*
X136450761Y-90643976D01*
X136498380Y-90548738D01*
X136498380Y-90358261D01*
X136450761Y-90263023D01*
X136403142Y-90215404D01*
X136307904Y-90167785D01*
X136117428Y-90167785D01*
X136022190Y-90215404D01*
X135974571Y-90263023D01*
X135926952Y-90358261D01*
D12*
%TO.C,R12*%
X135155000Y-73887064D02*
X135155000Y-73432936D01*
X136625000Y-73887064D02*
X136625000Y-73432936D01*
%TO.C,R10*%
X140743000Y-73887064D02*
X140743000Y-73432936D01*
X142213000Y-73887064D02*
X142213000Y-73432936D01*
%TO.C,J2*%
X91277000Y-54832000D02*
X91277000Y-61952000D01*
X92377000Y-54832000D02*
X92377000Y-61952000D01*
X90817000Y-54832000D02*
X90817000Y-61952000D01*
X90577000Y-54592000D02*
X90577000Y-54992000D01*
X96446000Y-61417000D02*
X96318000Y-61288000D01*
X96652000Y-61212000D02*
X96558000Y-61118000D01*
X98537000Y-54832000D02*
X98537000Y-61952000D01*
X98537000Y-61952000D02*
X90817000Y-61952000D01*
X98537000Y-54832000D02*
X90817000Y-54832000D01*
X91217000Y-54592000D02*
X90577000Y-54592000D01*
X94196000Y-59167000D02*
X94103000Y-59073000D01*
X94436000Y-58997000D02*
X94308000Y-58868000D01*
X94486000Y-58067000D02*
G75*
G03*
X96267193Y-58067504I891000J1425003D01*
G01*
X96817001Y-57508000D02*
G75*
G03*
X96802358Y-55752106I-1439999J866000D01*
G01*
X93937000Y-55776000D02*
G75*
G03*
X93696901Y-56670674I1440014J-866003D01*
G01*
X93697000Y-56642000D02*
G75*
G03*
X93952279Y-57532264I1679990J-3D01*
G01*
X96243000Y-55201999D02*
G75*
G03*
X94487106Y-55216642I-866000J-1439999D01*
G01*
X97057000Y-60142000D02*
G75*
G03*
X97057000Y-60142000I-1680000J0D01*
G01*
%TO.C,C7*%
X149740252Y-54456000D02*
X149217748Y-54456000D01*
X149740252Y-52986000D02*
X149217748Y-52986000D01*
%TO.C,D3*%
X116022000Y-94062000D02*
X116022000Y-91202000D01*
X114102000Y-94062000D02*
X116022000Y-94062000D01*
X114102000Y-91202000D02*
X114102000Y-94062000D01*
%TO.C,J3*%
X155515000Y-68961000D02*
X158175000Y-68961000D01*
X155515000Y-81721000D02*
X158175000Y-81721000D01*
X155515000Y-68961000D02*
X155515000Y-81721000D01*
X155515000Y-66361000D02*
X156845000Y-66361000D01*
X158175000Y-68961000D02*
X158175000Y-81721000D01*
X155515000Y-67691000D02*
X155515000Y-66361000D01*
%TO.C,J6*%
X141150000Y-98670000D02*
X142480000Y-98670000D01*
X139880000Y-98670000D02*
X139880000Y-101330000D01*
X114420000Y-98670000D02*
X114420000Y-101330000D01*
X139880000Y-98670000D02*
X114420000Y-98670000D01*
X142480000Y-98670000D02*
X142480000Y-100000000D01*
X139880000Y-101330000D02*
X114420000Y-101330000D01*
%TO.C,U1*%
X115997000Y-66146000D02*
X114497000Y-66146000D01*
X114497000Y-66416000D02*
X111667000Y-66416000D01*
X114497000Y-66146000D02*
X114497000Y-66416000D01*
X114497000Y-73046000D02*
X114497000Y-72776000D01*
X114497000Y-72776000D02*
X113397000Y-72776000D01*
X115997000Y-73046000D02*
X114497000Y-73046000D01*
%TO.C,R8*%
X149394936Y-76046000D02*
X149849064Y-76046000D01*
X149394936Y-74576000D02*
X149849064Y-74576000D01*
%TO.C,J9*%
X155515000Y-84903000D02*
X156845000Y-84903000D01*
X158175000Y-87503000D02*
X158175000Y-95183000D01*
X155515000Y-86233000D02*
X155515000Y-84903000D01*
X155515000Y-87503000D02*
X155515000Y-95183000D01*
X155515000Y-87503000D02*
X158175000Y-87503000D01*
X155515000Y-95183000D02*
X158175000Y-95183000D01*
%TO.C,J7*%
X139880000Y-50670000D02*
X114420000Y-50670000D01*
X139880000Y-53330000D02*
X114420000Y-53330000D01*
X139880000Y-50670000D02*
X139880000Y-53330000D01*
X142480000Y-50670000D02*
X142480000Y-52000000D01*
X141150000Y-50670000D02*
X142480000Y-50670000D01*
X114420000Y-50670000D02*
X114420000Y-53330000D01*
%TO.C,J4*%
X155515000Y-62671000D02*
X158175000Y-62671000D01*
X155515000Y-54991000D02*
X158175000Y-54991000D01*
X155515000Y-54991000D02*
X155515000Y-62671000D01*
X155515000Y-52391000D02*
X156845000Y-52391000D01*
X155515000Y-53721000D02*
X155515000Y-52391000D01*
X158175000Y-54991000D02*
X158175000Y-62671000D01*
%TO.C,C5*%
X123117000Y-84822000D02*
X127502000Y-84822000D01*
X127502000Y-81802000D02*
X123117000Y-81802000D01*
X127502000Y-84822000D02*
X127502000Y-81802000D01*
%TO.C,C3*%
X107815748Y-63146000D02*
X108338252Y-63146000D01*
X107815748Y-64616000D02*
X108338252Y-64616000D01*
%TO.C,J5*%
X129988000Y-91181000D02*
X132648000Y-91181000D01*
X129988000Y-88581000D02*
X131318000Y-88581000D01*
X132648000Y-91181000D02*
X132648000Y-93781000D01*
X129988000Y-91181000D02*
X129988000Y-93781000D01*
X129988000Y-93781000D02*
X132648000Y-93781000D01*
X129988000Y-89911000D02*
X129988000Y-88581000D01*
%TO.C,R4*%
X144372000Y-62764936D02*
X144372000Y-63219064D01*
X142902000Y-62764936D02*
X142902000Y-63219064D01*
%TO.C,C10*%
X103532000Y-87622748D02*
X103532000Y-88145252D01*
X105002000Y-87622748D02*
X105002000Y-88145252D01*
%TO.C,J1*%
X99100000Y-73560000D02*
X90300000Y-73560000D01*
X90300000Y-73560000D02*
X90300000Y-64360000D01*
X90300000Y-64360000D02*
X105000000Y-64360000D01*
X105000000Y-70860000D02*
X105000000Y-73560000D01*
X105000000Y-73560000D02*
X103100000Y-73560000D01*
X105000000Y-64360000D02*
X105000000Y-66960000D01*
X105200000Y-65210000D02*
X105200000Y-64160000D01*
X104150000Y-64160000D02*
X105200000Y-64160000D01*
%TO.C,C12*%
X99214000Y-87622748D02*
X99214000Y-88145252D01*
X100684000Y-87622748D02*
X100684000Y-88145252D01*
%TO.C,R14*%
X119099000Y-86132936D02*
X119099000Y-86587064D01*
X117629000Y-86132936D02*
X117629000Y-86587064D01*
%TO.C,R13*%
X114327000Y-86148936D02*
X114327000Y-86603064D01*
X115797000Y-86148936D02*
X115797000Y-86603064D01*
%TO.C,R1*%
X150468000Y-62748936D02*
X150468000Y-63203064D01*
X148998000Y-62748936D02*
X148998000Y-63203064D01*
%TO.C,R11*%
X112041000Y-63727064D02*
X112041000Y-63272936D01*
X113511000Y-63727064D02*
X113511000Y-63272936D01*
%TO.C,C2*%
X107815748Y-60298000D02*
X108338252Y-60298000D01*
X107815748Y-58828000D02*
X108338252Y-58828000D01*
%TO.C,D1*%
X140518000Y-75864000D02*
X140518000Y-78724000D01*
X142438000Y-78724000D02*
X142438000Y-75864000D01*
X142438000Y-75864000D02*
X140518000Y-75864000D01*
%TO.C,J8*%
X154930000Y-98670000D02*
X154930000Y-100000000D01*
X144650000Y-98670000D02*
X144650000Y-101330000D01*
X152330000Y-101330000D02*
X144650000Y-101330000D01*
X153600000Y-98670000D02*
X154930000Y-98670000D01*
X152330000Y-98670000D02*
X152330000Y-101330000D01*
X152330000Y-98670000D02*
X144650000Y-98670000D01*
%TO.C,R6*%
X149394936Y-70966000D02*
X149849064Y-70966000D01*
X149394936Y-69496000D02*
X149849064Y-69496000D01*
%TO.C,R5*%
X149378936Y-68426000D02*
X149833064Y-68426000D01*
X149378936Y-66956000D02*
X149833064Y-66956000D01*
%TO.C,R15*%
X129567000Y-73887064D02*
X129567000Y-73432936D01*
X131037000Y-73887064D02*
X131037000Y-73432936D01*
%TO.C,C9*%
X149613252Y-86968000D02*
X149090748Y-86968000D01*
X149613252Y-85498000D02*
X149090748Y-85498000D01*
%TO.C,R3*%
X144934000Y-62764936D02*
X144934000Y-63219064D01*
X146404000Y-62764936D02*
X146404000Y-63219064D01*
%TO.C,D2*%
X136850000Y-75864000D02*
X134930000Y-75864000D01*
X136850000Y-78724000D02*
X136850000Y-75864000D01*
X134930000Y-75864000D02*
X134930000Y-78724000D01*
%TO.C,C4*%
X132305248Y-80799000D02*
X132827752Y-80799000D01*
X132305248Y-82269000D02*
X132827752Y-82269000D01*
%TO.C,C1*%
X107815748Y-60987000D02*
X108338252Y-60987000D01*
X107815748Y-62457000D02*
X108338252Y-62457000D01*
%TO.C,C6*%
X149613252Y-81126000D02*
X149090748Y-81126000D01*
X149613252Y-79656000D02*
X149090748Y-79656000D01*
%TO.C,R7*%
X149378936Y-72036000D02*
X149833064Y-72036000D01*
X149378936Y-73506000D02*
X149833064Y-73506000D01*
%TO.C,D5*%
X131262000Y-75864000D02*
X129342000Y-75864000D01*
X129342000Y-75864000D02*
X129342000Y-78724000D01*
X131262000Y-78724000D02*
X131262000Y-75864000D01*
%TO.C,D4*%
X121356000Y-94062000D02*
X121356000Y-91202000D01*
X119436000Y-94062000D02*
X121356000Y-94062000D01*
X119436000Y-91202000D02*
X119436000Y-94062000D01*
%TO.C,J10*%
X90961000Y-84578000D02*
X90961000Y-91698000D01*
X90901000Y-84338000D02*
X90261000Y-84338000D01*
X94120000Y-88743000D02*
X93992000Y-88614000D01*
X90501000Y-84578000D02*
X90501000Y-91698000D01*
X96130000Y-91163000D02*
X96002000Y-91034000D01*
X96336000Y-90958000D02*
X96242000Y-90864000D01*
X98221000Y-91698000D02*
X90501000Y-91698000D01*
X93880000Y-88913000D02*
X93787000Y-88819000D01*
X98221000Y-84578000D02*
X90501000Y-84578000D01*
X92061000Y-84578000D02*
X92061000Y-91698000D01*
X98221000Y-84578000D02*
X98221000Y-91698000D01*
X90261000Y-84338000D02*
X90261000Y-84738000D01*
X96501001Y-87254000D02*
G75*
G03*
X96486358Y-85498106I-1439999J866000D01*
G01*
X93621000Y-85522000D02*
G75*
G03*
X93380901Y-86416674I1440014J-866003D01*
G01*
X95927000Y-84947999D02*
G75*
G03*
X94171106Y-84962642I-866000J-1439999D01*
G01*
X94170000Y-87813000D02*
G75*
G03*
X95951193Y-87813504I891000J1425003D01*
G01*
X93381000Y-86388000D02*
G75*
G03*
X93636279Y-87278264I1679990J-3D01*
G01*
X96741000Y-89888000D02*
G75*
G03*
X96741000Y-89888000I-1680000J0D01*
G01*
%TO.C,R9*%
X112041000Y-59335936D02*
X112041000Y-59790064D01*
X113511000Y-59335936D02*
X113511000Y-59790064D01*
%TO.C,R2*%
X148436000Y-62764936D02*
X148436000Y-63219064D01*
X146966000Y-62764936D02*
X146966000Y-63219064D01*
%TO.C,C11*%
X101373000Y-87622748D02*
X101373000Y-88145252D01*
X102843000Y-87622748D02*
X102843000Y-88145252D01*
%TO.C,C8*%
X133631000Y-90692248D02*
X133631000Y-91214752D01*
X135101000Y-90692248D02*
X135101000Y-91214752D01*
%TD*%
%LPC*%
D11*
X91078595Y-51844380D02*
X91078595Y-50844380D01*
X91078595Y-51320571D02*
X91650023Y-51320571D01*
X91650023Y-51844380D02*
X91650023Y-50844380D01*
X92554785Y-51177714D02*
X92554785Y-51844380D01*
X92126214Y-51177714D02*
X92126214Y-51701523D01*
X92173833Y-51796761D01*
X92269071Y-51844380D01*
X92411928Y-51844380D01*
X92507166Y-51796761D01*
X92554785Y-51749142D01*
X93030976Y-51844380D02*
X93030976Y-50844380D01*
X93030976Y-51225333D02*
X93126214Y-51177714D01*
X93316690Y-51177714D01*
X93411928Y-51225333D01*
X93459547Y-51272952D01*
X93507166Y-51368190D01*
X93507166Y-51653904D01*
X93459547Y-51749142D01*
X93411928Y-51796761D01*
X93316690Y-51844380D01*
X93126214Y-51844380D01*
X93030976Y-51796761D01*
X94316690Y-51796761D02*
X94221452Y-51844380D01*
X94030976Y-51844380D01*
X93935738Y-51796761D01*
X93888119Y-51701523D01*
X93888119Y-51320571D01*
X93935738Y-51225333D01*
X94030976Y-51177714D01*
X94221452Y-51177714D01*
X94316690Y-51225333D01*
X94364309Y-51320571D01*
X94364309Y-51415809D01*
X93888119Y-51511047D01*
X94792880Y-51844380D02*
X94792880Y-51177714D01*
X94792880Y-51368190D02*
X94840500Y-51272952D01*
X94888119Y-51225333D01*
X94983357Y-51177714D01*
X95078595Y-51177714D01*
X95269071Y-51177714D02*
X95650023Y-51177714D01*
X95411928Y-50844380D02*
X95411928Y-51701523D01*
X95459547Y-51796761D01*
X95554785Y-51844380D01*
X95650023Y-51844380D01*
X96602404Y-51177714D02*
X96983357Y-51177714D01*
X96745261Y-50844380D02*
X96745261Y-51701523D01*
X96792880Y-51796761D01*
X96888119Y-51844380D01*
X96983357Y-51844380D01*
X97316690Y-51844380D02*
X97316690Y-50844380D01*
X97745261Y-51844380D02*
X97745261Y-51320571D01*
X97697642Y-51225333D01*
X97602404Y-51177714D01*
X97459547Y-51177714D01*
X97364309Y-51225333D01*
X97316690Y-51272952D01*
X98602404Y-51796761D02*
X98507166Y-51844380D01*
X98316690Y-51844380D01*
X98221452Y-51796761D01*
X98173833Y-51701523D01*
X98173833Y-51320571D01*
X98221452Y-51225333D01*
X98316690Y-51177714D01*
X98507166Y-51177714D01*
X98602404Y-51225333D01*
X98650023Y-51320571D01*
X98650023Y-51415809D01*
X98173833Y-51511047D01*
X99840500Y-51844380D02*
X99840500Y-50844380D01*
X99840500Y-51320571D02*
X100411928Y-51320571D01*
X100411928Y-51844380D02*
X100411928Y-50844380D01*
X101316690Y-51177714D02*
X101316690Y-51844380D01*
X100888119Y-51177714D02*
X100888119Y-51701523D01*
X100935738Y-51796761D01*
X101030976Y-51844380D01*
X101173833Y-51844380D01*
X101269071Y-51796761D01*
X101316690Y-51749142D01*
X101792880Y-51844380D02*
X101792880Y-51177714D01*
X101792880Y-51272952D02*
X101840500Y-51225333D01*
X101935738Y-51177714D01*
X102078595Y-51177714D01*
X102173833Y-51225333D01*
X102221452Y-51320571D01*
X102221452Y-51844380D01*
X102221452Y-51320571D02*
X102269071Y-51225333D01*
X102364309Y-51177714D01*
X102507166Y-51177714D01*
X102602404Y-51225333D01*
X102650023Y-51320571D01*
X102650023Y-51844380D01*
X103126214Y-51844380D02*
X103126214Y-51177714D01*
X103126214Y-50844380D02*
X103078595Y-50892000D01*
X103126214Y-50939619D01*
X103173833Y-50892000D01*
X103126214Y-50844380D01*
X103126214Y-50939619D01*
X104030976Y-51844380D02*
X104030976Y-50844380D01*
X104030976Y-51796761D02*
X103935738Y-51844380D01*
X103745261Y-51844380D01*
X103650023Y-51796761D01*
X103602404Y-51749142D01*
X103554785Y-51653904D01*
X103554785Y-51368190D01*
X103602404Y-51272952D01*
X103650023Y-51225333D01*
X103745261Y-51177714D01*
X103935738Y-51177714D01*
X104030976Y-51225333D01*
X104507166Y-51844380D02*
X104507166Y-51177714D01*
X104507166Y-50844380D02*
X104459547Y-50892000D01*
X104507166Y-50939619D01*
X104554785Y-50892000D01*
X104507166Y-50844380D01*
X104507166Y-50939619D01*
X104840500Y-51177714D02*
X105221452Y-51177714D01*
X104983357Y-50844380D02*
X104983357Y-51701523D01*
X105030976Y-51796761D01*
X105126214Y-51844380D01*
X105221452Y-51844380D01*
X105459547Y-51177714D02*
X105697642Y-51844380D01*
X105935738Y-51177714D02*
X105697642Y-51844380D01*
X105602404Y-52082476D01*
X105554785Y-52130095D01*
X105459547Y-52177714D01*
X107554785Y-51844380D02*
X107078595Y-51844380D01*
X107078595Y-50844380D01*
X108030976Y-51844380D02*
X107935738Y-51796761D01*
X107888119Y-51749142D01*
X107840500Y-51653904D01*
X107840500Y-51368190D01*
X107888119Y-51272952D01*
X107935738Y-51225333D01*
X108030976Y-51177714D01*
X108173833Y-51177714D01*
X108269071Y-51225333D01*
X108316690Y-51272952D01*
X108364309Y-51368190D01*
X108364309Y-51653904D01*
X108316690Y-51749142D01*
X108269071Y-51796761D01*
X108173833Y-51844380D01*
X108030976Y-51844380D01*
X109221452Y-51177714D02*
X109221452Y-51987238D01*
X109173833Y-52082476D01*
X109126214Y-52130095D01*
X109030976Y-52177714D01*
X108888119Y-52177714D01*
X108792880Y-52130095D01*
X109221452Y-51796761D02*
X109126214Y-51844380D01*
X108935738Y-51844380D01*
X108840500Y-51796761D01*
X108792880Y-51749142D01*
X108745261Y-51653904D01*
X108745261Y-51368190D01*
X108792880Y-51272952D01*
X108840500Y-51225333D01*
X108935738Y-51177714D01*
X109126214Y-51177714D01*
X109221452Y-51225333D01*
X110126214Y-51177714D02*
X110126214Y-51987238D01*
X110078595Y-52082476D01*
X110030976Y-52130095D01*
X109935738Y-52177714D01*
X109792880Y-52177714D01*
X109697642Y-52130095D01*
X110126214Y-51796761D02*
X110030976Y-51844380D01*
X109840500Y-51844380D01*
X109745261Y-51796761D01*
X109697642Y-51749142D01*
X109650023Y-51653904D01*
X109650023Y-51368190D01*
X109697642Y-51272952D01*
X109745261Y-51225333D01*
X109840500Y-51177714D01*
X110030976Y-51177714D01*
X110126214Y-51225333D01*
X110983357Y-51796761D02*
X110888119Y-51844380D01*
X110697642Y-51844380D01*
X110602404Y-51796761D01*
X110554785Y-51701523D01*
X110554785Y-51320571D01*
X110602404Y-51225333D01*
X110697642Y-51177714D01*
X110888119Y-51177714D01*
X110983357Y-51225333D01*
X111030976Y-51320571D01*
X111030976Y-51415809D01*
X110554785Y-51511047D01*
X111459547Y-51844380D02*
X111459547Y-51177714D01*
X111459547Y-51368190D02*
X111507166Y-51272952D01*
X111554785Y-51225333D01*
X111650023Y-51177714D01*
X111745261Y-51177714D01*
X91078595Y-53454380D02*
X91078595Y-52454380D01*
X91411928Y-53168666D01*
X91745261Y-52454380D01*
X91745261Y-53454380D01*
X92650023Y-53454380D02*
X92650023Y-52930571D01*
X92602404Y-52835333D01*
X92507166Y-52787714D01*
X92316690Y-52787714D01*
X92221452Y-52835333D01*
X92650023Y-53406761D02*
X92554785Y-53454380D01*
X92316690Y-53454380D01*
X92221452Y-53406761D01*
X92173833Y-53311523D01*
X92173833Y-53216285D01*
X92221452Y-53121047D01*
X92316690Y-53073428D01*
X92554785Y-53073428D01*
X92650023Y-53025809D01*
X93126214Y-53454380D02*
X93126214Y-52787714D01*
X93126214Y-52978190D02*
X93173833Y-52882952D01*
X93221452Y-52835333D01*
X93316690Y-52787714D01*
X93411928Y-52787714D01*
X94173833Y-53406761D02*
X94078595Y-53454380D01*
X93888119Y-53454380D01*
X93792880Y-53406761D01*
X93745261Y-53359142D01*
X93697642Y-53263904D01*
X93697642Y-52978190D01*
X93745261Y-52882952D01*
X93792880Y-52835333D01*
X93888119Y-52787714D01*
X94078595Y-52787714D01*
X94173833Y-52835333D01*
X94602404Y-53454380D02*
X94602404Y-52787714D01*
X94602404Y-52454380D02*
X94554785Y-52502000D01*
X94602404Y-52549619D01*
X94650023Y-52502000D01*
X94602404Y-52454380D01*
X94602404Y-52549619D01*
X95078595Y-52787714D02*
X95078595Y-53454380D01*
X95078595Y-52882952D02*
X95126214Y-52835333D01*
X95221452Y-52787714D01*
X95364309Y-52787714D01*
X95459547Y-52835333D01*
X95507166Y-52930571D01*
X95507166Y-53454380D01*
X96745261Y-53454380D02*
X96745261Y-52454380D01*
X96983357Y-52454380D01*
X97126214Y-52502000D01*
X97221452Y-52597238D01*
X97269071Y-52692476D01*
X97316690Y-52882952D01*
X97316690Y-53025809D01*
X97269071Y-53216285D01*
X97221452Y-53311523D01*
X97126214Y-53406761D01*
X96983357Y-53454380D01*
X96745261Y-53454380D01*
X97650023Y-52787714D02*
X97888119Y-53454380D01*
X98126214Y-52787714D02*
X97888119Y-53454380D01*
X97792880Y-53692476D01*
X97745261Y-53740095D01*
X97650023Y-53787714D01*
X98507166Y-53454380D02*
X98507166Y-52787714D01*
X98507166Y-52882952D02*
X98554785Y-52835333D01*
X98650023Y-52787714D01*
X98792880Y-52787714D01*
X98888119Y-52835333D01*
X98935738Y-52930571D01*
X98935738Y-53454380D01*
X98935738Y-52930571D02*
X98983357Y-52835333D01*
X99078595Y-52787714D01*
X99221452Y-52787714D01*
X99316690Y-52835333D01*
X99364309Y-52930571D01*
X99364309Y-53454380D01*
X100269071Y-53406761D02*
X100173833Y-53454380D01*
X99983357Y-53454380D01*
X99888119Y-53406761D01*
X99840500Y-53359142D01*
X99792880Y-53263904D01*
X99792880Y-52978190D01*
X99840500Y-52882952D01*
X99888119Y-52835333D01*
X99983357Y-52787714D01*
X100173833Y-52787714D01*
X100269071Y-52835333D01*
X100602404Y-52787714D02*
X101126214Y-52787714D01*
X100602404Y-53454380D01*
X101126214Y-53454380D01*
X101411928Y-52787714D02*
X101650023Y-53454380D01*
X101888119Y-52787714D02*
X101650023Y-53454380D01*
X101554785Y-53692476D01*
X101507166Y-53740095D01*
X101411928Y-53787714D01*
X102269071Y-53454380D02*
X102269071Y-52454380D01*
X102364309Y-53073428D02*
X102650023Y-53454380D01*
X102650023Y-52787714D02*
X102269071Y-53168666D01*
X103792880Y-52549619D02*
X103840500Y-52502000D01*
X103935738Y-52454380D01*
X104173833Y-52454380D01*
X104269071Y-52502000D01*
X104316690Y-52549619D01*
X104364309Y-52644857D01*
X104364309Y-52740095D01*
X104316690Y-52882952D01*
X103745261Y-53454380D01*
X104364309Y-53454380D01*
X104983357Y-52454380D02*
X105078595Y-52454380D01*
X105173833Y-52502000D01*
X105221452Y-52549619D01*
X105269071Y-52644857D01*
X105316690Y-52835333D01*
X105316690Y-53073428D01*
X105269071Y-53263904D01*
X105221452Y-53359142D01*
X105173833Y-53406761D01*
X105078595Y-53454380D01*
X104983357Y-53454380D01*
X104888119Y-53406761D01*
X104840500Y-53359142D01*
X104792880Y-53263904D01*
X104745261Y-53073428D01*
X104745261Y-52835333D01*
X104792880Y-52644857D01*
X104840500Y-52549619D01*
X104888119Y-52502000D01*
X104983357Y-52454380D01*
X105697642Y-52549619D02*
X105745261Y-52502000D01*
X105840500Y-52454380D01*
X106078595Y-52454380D01*
X106173833Y-52502000D01*
X106221452Y-52549619D01*
X106269071Y-52644857D01*
X106269071Y-52740095D01*
X106221452Y-52882952D01*
X105650023Y-53454380D01*
X106269071Y-53454380D01*
X106602404Y-52454380D02*
X107221452Y-52454380D01*
X106888119Y-52835333D01*
X107030976Y-52835333D01*
X107126214Y-52882952D01*
X107173833Y-52930571D01*
X107221452Y-53025809D01*
X107221452Y-53263904D01*
X107173833Y-53359142D01*
X107126214Y-53406761D01*
X107030976Y-53454380D01*
X106745261Y-53454380D01*
X106650023Y-53406761D01*
X106602404Y-53359142D01*
D13*
%TO.C,R12*%
X135890000Y-74660000D03*
X135890000Y-72660000D03*
%TD*%
%TO.C,R10*%
X141478000Y-74660000D03*
X141478000Y-72660000D03*
%TD*%
D14*
%TO.C,J2*%
X95377000Y-56642000D03*
D15*
X95377000Y-60142000D03*
%TD*%
D16*
%TO.C,C7*%
X150516500Y-53721000D03*
X148441500Y-53721000D03*
%TD*%
D17*
%TO.C,D3*%
X115062000Y-93227000D03*
X115062000Y-91177000D03*
%TD*%
D18*
%TO.C,J3*%
X156845000Y-67691000D03*
D19*
X156845000Y-70231000D03*
X156845000Y-72771000D03*
X156845000Y-75311000D03*
X156845000Y-77851000D03*
X156845000Y-80391000D03*
%TD*%
D18*
%TO.C,J6*%
X141150000Y-100000000D03*
D19*
X138610000Y-100000000D03*
X136070000Y-100000000D03*
X133530000Y-100000000D03*
X130990000Y-100000000D03*
X128450000Y-100000000D03*
X125910000Y-100000000D03*
X123370000Y-100000000D03*
X120830000Y-100000000D03*
X118290000Y-100000000D03*
X115750000Y-100000000D03*
%TD*%
D20*
%TO.C,U1*%
X112767000Y-67316000D03*
D21*
X119067000Y-69596000D03*
D20*
X112767000Y-71876000D03*
%TD*%
D22*
%TO.C,R8*%
X148622000Y-75311000D03*
X150622000Y-75311000D03*
%TD*%
D18*
%TO.C,J9*%
X156845000Y-86233000D03*
D19*
X156845000Y-88773000D03*
X156845000Y-91313000D03*
X156845000Y-93853000D03*
%TD*%
D18*
%TO.C,J7*%
X141150000Y-52000000D03*
D19*
X138610000Y-52000000D03*
X136070000Y-52000000D03*
X133530000Y-52000000D03*
X130990000Y-52000000D03*
X128450000Y-52000000D03*
X125910000Y-52000000D03*
X123370000Y-52000000D03*
X120830000Y-52000000D03*
X118290000Y-52000000D03*
X115750000Y-52000000D03*
%TD*%
D18*
%TO.C,J4*%
X156845000Y-53721000D03*
D19*
X156845000Y-56261000D03*
X156845000Y-58801000D03*
X156845000Y-61341000D03*
%TD*%
D23*
%TO.C,C5*%
X126492000Y-83312000D03*
X123242000Y-83312000D03*
%TD*%
D24*
%TO.C,C3*%
X107039500Y-63881000D03*
X109114500Y-63881000D03*
%TD*%
D18*
%TO.C,J5*%
X131318000Y-89911000D03*
D19*
X131318000Y-92451000D03*
%TD*%
D25*
%TO.C,R4*%
X143637000Y-61992000D03*
X143637000Y-63992000D03*
%TD*%
D26*
%TO.C,C10*%
X104267000Y-86846500D03*
X104267000Y-88921500D03*
%TD*%
D27*
%TO.C,J1*%
X104100000Y-68960000D03*
D28*
X98100000Y-68960000D03*
D29*
X101100000Y-73660000D03*
%TD*%
D26*
%TO.C,C12*%
X99949000Y-86846500D03*
X99949000Y-88921500D03*
%TD*%
D25*
%TO.C,R14*%
X118364000Y-85360000D03*
X118364000Y-87360000D03*
%TD*%
%TO.C,R13*%
X115062000Y-85376000D03*
X115062000Y-87376000D03*
%TD*%
%TO.C,R1*%
X149733000Y-61976000D03*
X149733000Y-63976000D03*
%TD*%
D13*
%TO.C,R11*%
X112776000Y-64500000D03*
X112776000Y-62500000D03*
%TD*%
D24*
%TO.C,C2*%
X107039500Y-59563000D03*
X109114500Y-59563000D03*
%TD*%
D30*
%TO.C,D1*%
X141478000Y-76699000D03*
X141478000Y-78749000D03*
%TD*%
D18*
%TO.C,J8*%
X153600000Y-100000000D03*
D19*
X151060000Y-100000000D03*
X148520000Y-100000000D03*
X145980000Y-100000000D03*
%TD*%
D22*
%TO.C,R6*%
X148622000Y-70231000D03*
X150622000Y-70231000D03*
%TD*%
%TO.C,R5*%
X148606000Y-67691000D03*
X150606000Y-67691000D03*
%TD*%
D13*
%TO.C,R15*%
X130302000Y-74660000D03*
X130302000Y-72660000D03*
%TD*%
D16*
%TO.C,C9*%
X150389500Y-86233000D03*
X148314500Y-86233000D03*
%TD*%
D25*
%TO.C,R3*%
X145669000Y-61992000D03*
X145669000Y-63992000D03*
%TD*%
D30*
%TO.C,D2*%
X135890000Y-76699000D03*
X135890000Y-78749000D03*
%TD*%
D24*
%TO.C,C4*%
X131529000Y-81534000D03*
X133604000Y-81534000D03*
%TD*%
%TO.C,C1*%
X107039500Y-61722000D03*
X109114500Y-61722000D03*
%TD*%
D16*
%TO.C,C6*%
X150389500Y-80391000D03*
X148314500Y-80391000D03*
%TD*%
D22*
%TO.C,R7*%
X148606000Y-72771000D03*
X150606000Y-72771000D03*
%TD*%
D30*
%TO.C,D5*%
X130302000Y-76699000D03*
X130302000Y-78749000D03*
%TD*%
D17*
%TO.C,D4*%
X120396000Y-93227000D03*
X120396000Y-91177000D03*
%TD*%
D14*
%TO.C,J10*%
X95061000Y-86388000D03*
D15*
X95061000Y-89888000D03*
%TD*%
D25*
%TO.C,R9*%
X112776000Y-58563000D03*
X112776000Y-60563000D03*
%TD*%
%TO.C,R2*%
X147701000Y-61992000D03*
X147701000Y-63992000D03*
%TD*%
D26*
%TO.C,C11*%
X102108000Y-86846500D03*
X102108000Y-88921500D03*
%TD*%
%TO.C,C8*%
X134366000Y-89916000D03*
X134366000Y-91991000D03*
%TD*%
M02*
