%TF.GenerationSoftware,KiCad,Pcbnew,(6.0.9-0)*%
%TF.CreationDate,2023-01-06T11:38:34+01:00*%
%TF.ProjectId,HumidityLoggerBreakout,48756d69-6469-4747-994c-6f6767657242,rev?*%
%TF.SameCoordinates,Original*%
%TF.FileFunction,Copper,L1,Top*%
%TF.FilePolarity,Positive*%
%FSLAX46Y46*%
G04 Gerber Fmt 4.6, Leading zero omitted, Abs format (unit mm)*
G04 Created by KiCad (PCBNEW (6.0.9-0)) date 2023-01-06 11:38:34*
%MOMM*%
%LPD*%
G01*
G04 APERTURE LIST*
G04 Aperture macros list*
%AMRoundRect*
0 Rectangle with rounded corners*
0 $1 Rounding radius*
0 $2 $3 $4 $5 $6 $7 $8 $9 X,Y pos of 4 corners*
0 Add a 4 corners polygon primitive as box body*
4,1,4,$2,$3,$4,$5,$6,$7,$8,$9,$2,$3,0*
0 Add four circle primitives for the rounded corners*
1,1,$1+$1,$2,$3*
1,1,$1+$1,$4,$5*
1,1,$1+$1,$6,$7*
1,1,$1+$1,$8,$9*
0 Add four rect primitives between the rounded corners*
20,1,$1+$1,$2,$3,$4,$5,0*
20,1,$1+$1,$4,$5,$6,$7,0*
20,1,$1+$1,$6,$7,$8,$9,0*
20,1,$1+$1,$8,$9,$2,$3,0*%
G04 Aperture macros list end*
%ADD10C,0.100000*%
%TA.AperFunction,NonConductor*%
%ADD11C,0.100000*%
%TD*%
%TA.AperFunction,SMDPad,CuDef*%
%ADD12RoundRect,0.250000X0.450000X-0.350000X0.450000X0.350000X-0.450000X0.350000X-0.450000X-0.350000X0*%
%TD*%
%TA.AperFunction,ComponentPad*%
%ADD13R,2.400000X2.400000*%
%TD*%
%TA.AperFunction,ComponentPad*%
%ADD14C,2.400000*%
%TD*%
%TA.AperFunction,SMDPad,CuDef*%
%ADD15RoundRect,0.250000X0.337500X0.475000X-0.337500X0.475000X-0.337500X-0.475000X0.337500X-0.475000X0*%
%TD*%
%TA.AperFunction,SMDPad,CuDef*%
%ADD16RoundRect,0.250000X0.450000X-0.325000X0.450000X0.325000X-0.450000X0.325000X-0.450000X-0.325000X0*%
%TD*%
%TA.AperFunction,ComponentPad*%
%ADD17R,1.700000X1.700000*%
%TD*%
%TA.AperFunction,ComponentPad*%
%ADD18O,1.700000X1.700000*%
%TD*%
%TA.AperFunction,SMDPad,CuDef*%
%ADD19R,2.200000X1.200000*%
%TD*%
%TA.AperFunction,SMDPad,CuDef*%
%ADD20R,6.400000X5.800000*%
%TD*%
%TA.AperFunction,SMDPad,CuDef*%
%ADD21RoundRect,0.250000X-0.350000X-0.450000X0.350000X-0.450000X0.350000X0.450000X-0.350000X0.450000X0*%
%TD*%
%TA.AperFunction,SMDPad,CuDef*%
%ADD22RoundRect,0.250001X0.499999X0.924999X-0.499999X0.924999X-0.499999X-0.924999X0.499999X-0.924999X0*%
%TD*%
%TA.AperFunction,SMDPad,CuDef*%
%ADD23RoundRect,0.250000X-0.337500X-0.475000X0.337500X-0.475000X0.337500X0.475000X-0.337500X0.475000X0*%
%TD*%
%TA.AperFunction,SMDPad,CuDef*%
%ADD24RoundRect,0.250000X-0.450000X0.350000X-0.450000X-0.350000X0.450000X-0.350000X0.450000X0.350000X0*%
%TD*%
%TA.AperFunction,SMDPad,CuDef*%
%ADD25RoundRect,0.250000X-0.475000X0.337500X-0.475000X-0.337500X0.475000X-0.337500X0.475000X0.337500X0*%
%TD*%
%TA.AperFunction,ComponentPad*%
%ADD26R,3.500000X3.500000*%
%TD*%
%TA.AperFunction,ComponentPad*%
%ADD27RoundRect,0.750000X-0.750000X-1.000000X0.750000X-1.000000X0.750000X1.000000X-0.750000X1.000000X0*%
%TD*%
%TA.AperFunction,ComponentPad*%
%ADD28RoundRect,0.875000X-0.875000X-0.875000X0.875000X-0.875000X0.875000X0.875000X-0.875000X0.875000X0*%
%TD*%
%TA.AperFunction,SMDPad,CuDef*%
%ADD29RoundRect,0.250000X-0.450000X0.325000X-0.450000X-0.325000X0.450000X-0.325000X0.450000X0.325000X0*%
%TD*%
%TA.AperFunction,ViaPad*%
%ADD30C,0.800000*%
%TD*%
%TA.AperFunction,ViaPad*%
%ADD31C,1.500000*%
%TD*%
%TA.AperFunction,Conductor*%
%ADD32C,1.016000*%
%TD*%
%TA.AperFunction,Conductor*%
%ADD33C,1.625600*%
%TD*%
%TA.AperFunction,Conductor*%
%ADD34C,0.406400*%
%TD*%
%TA.AperFunction,Conductor*%
%ADD35C,0.609600*%
%TD*%
%TA.AperFunction,Conductor*%
%ADD36C,0.812800*%
%TD*%
%TA.AperFunction,Conductor*%
%ADD37C,0.304800*%
%TD*%
%TA.AperFunction,Conductor*%
%ADD38C,0.254000*%
%TD*%
%TA.AperFunction,Conductor*%
%ADD39C,0.250000*%
%TD*%
G04 APERTURE END LIST*
D10*
D11*
X90491333Y-101535666D02*
X90491333Y-100835666D01*
X90891333Y-101535666D02*
X90591333Y-101135666D01*
X90891333Y-100835666D02*
X90491333Y-101235666D01*
X91291333Y-101535666D02*
X91224666Y-101502333D01*
X91191333Y-101469000D01*
X91158000Y-101402333D01*
X91158000Y-101202333D01*
X91191333Y-101135666D01*
X91224666Y-101102333D01*
X91291333Y-101069000D01*
X91391333Y-101069000D01*
X91458000Y-101102333D01*
X91491333Y-101135666D01*
X91524666Y-101202333D01*
X91524666Y-101402333D01*
X91491333Y-101469000D01*
X91458000Y-101502333D01*
X91391333Y-101535666D01*
X91291333Y-101535666D01*
X92124666Y-101502333D02*
X92058000Y-101535666D01*
X91924666Y-101535666D01*
X91858000Y-101502333D01*
X91824666Y-101469000D01*
X91791333Y-101402333D01*
X91791333Y-101202333D01*
X91824666Y-101135666D01*
X91858000Y-101102333D01*
X91924666Y-101069000D01*
X92058000Y-101069000D01*
X92124666Y-101102333D01*
X92424666Y-101535666D02*
X92424666Y-100835666D01*
X92724666Y-101535666D02*
X92724666Y-101169000D01*
X92691333Y-101102333D01*
X92624666Y-101069000D01*
X92524666Y-101069000D01*
X92458000Y-101102333D01*
X92424666Y-101135666D01*
X93358000Y-101535666D02*
X93358000Y-101169000D01*
X93324666Y-101102333D01*
X93258000Y-101069000D01*
X93124666Y-101069000D01*
X93058000Y-101102333D01*
X93358000Y-101502333D02*
X93291333Y-101535666D01*
X93124666Y-101535666D01*
X93058000Y-101502333D01*
X93024666Y-101435666D01*
X93024666Y-101369000D01*
X93058000Y-101302333D01*
X93124666Y-101269000D01*
X93291333Y-101269000D01*
X93358000Y-101235666D01*
X93691333Y-101535666D02*
X93691333Y-101069000D01*
X93691333Y-101135666D02*
X93724666Y-101102333D01*
X93791333Y-101069000D01*
X93891333Y-101069000D01*
X93958000Y-101102333D01*
X93991333Y-101169000D01*
X93991333Y-101535666D01*
X93991333Y-101169000D02*
X94024666Y-101102333D01*
X94091333Y-101069000D01*
X94191333Y-101069000D01*
X94258000Y-101102333D01*
X94291333Y-101169000D01*
X94291333Y-101535666D01*
X95558000Y-101535666D02*
X95324666Y-101202333D01*
X95158000Y-101535666D02*
X95158000Y-100835666D01*
X95424666Y-100835666D01*
X95491333Y-100869000D01*
X95524666Y-100902333D01*
X95558000Y-100969000D01*
X95558000Y-101069000D01*
X95524666Y-101135666D01*
X95491333Y-101169000D01*
X95424666Y-101202333D01*
X95158000Y-101202333D01*
X95824666Y-100902333D02*
X95858000Y-100869000D01*
X95924666Y-100835666D01*
X96091333Y-100835666D01*
X96158000Y-100869000D01*
X96191333Y-100902333D01*
X96224666Y-100969000D01*
X96224666Y-101035666D01*
X96191333Y-101135666D01*
X95791333Y-101535666D01*
X96224666Y-101535666D01*
X97058000Y-101535666D02*
X97058000Y-101069000D01*
X97058000Y-100835666D02*
X97024666Y-100869000D01*
X97058000Y-100902333D01*
X97091333Y-100869000D01*
X97058000Y-100835666D01*
X97058000Y-100902333D01*
X98324666Y-101535666D02*
X98091333Y-101202333D01*
X97924666Y-101535666D02*
X97924666Y-100835666D01*
X98191333Y-100835666D01*
X98258000Y-100869000D01*
X98291333Y-100902333D01*
X98324666Y-100969000D01*
X98324666Y-101069000D01*
X98291333Y-101135666D01*
X98258000Y-101169000D01*
X98191333Y-101202333D01*
X97924666Y-101202333D01*
X98558000Y-100835666D02*
X98991333Y-100835666D01*
X98758000Y-101102333D01*
X98858000Y-101102333D01*
X98924666Y-101135666D01*
X98958000Y-101169000D01*
X98991333Y-101235666D01*
X98991333Y-101402333D01*
X98958000Y-101469000D01*
X98924666Y-101502333D01*
X98858000Y-101535666D01*
X98658000Y-101535666D01*
X98591333Y-101502333D01*
X98558000Y-101469000D01*
X100358000Y-101069000D02*
X99824666Y-101269000D01*
X100358000Y-101469000D01*
X100624666Y-100835666D02*
X101058000Y-100835666D01*
X100824666Y-101102333D01*
X100924666Y-101102333D01*
X100991333Y-101135666D01*
X101024666Y-101169000D01*
X101058000Y-101235666D01*
X101058000Y-101402333D01*
X101024666Y-101469000D01*
X100991333Y-101502333D01*
X100924666Y-101535666D01*
X100724666Y-101535666D01*
X100658000Y-101502333D01*
X100624666Y-101469000D01*
D12*
%TO.P,R12,1*%
%TO.N,Net-(D2-Pad1)*%
X135890000Y-74660000D03*
%TO.P,R12,2*%
%TO.N,GND*%
X135890000Y-72660000D03*
%TD*%
%TO.P,R10,1*%
%TO.N,Net-(D1-Pad1)*%
X141478000Y-74660000D03*
%TO.P,R10,2*%
%TO.N,GND*%
X141478000Y-72660000D03*
%TD*%
D13*
%TO.P,J2,1,Pin_1*%
%TO.N,+12V*%
X95377000Y-56642000D03*
D14*
%TO.P,J2,2,Pin_2*%
%TO.N,GND*%
X95377000Y-60142000D03*
%TD*%
D15*
%TO.P,C7,1*%
%TO.N,+5V*%
X150516500Y-53721000D03*
%TO.P,C7,2*%
%TO.N,GND*%
X148441500Y-53721000D03*
%TD*%
D16*
%TO.P,D3,1,K*%
%TO.N,GND*%
X115062000Y-93227000D03*
%TO.P,D3,2,A*%
%TO.N,Net-(D3-Pad2)*%
X115062000Y-91177000D03*
%TD*%
D17*
%TO.P,J3,1,Pin_1*%
%TO.N,Net-(J3-Pad1)*%
X156845000Y-67691000D03*
D18*
%TO.P,J3,2,Pin_2*%
%TO.N,Net-(J3-Pad2)*%
X156845000Y-70231000D03*
%TO.P,J3,3,Pin_3*%
%TO.N,Net-(J3-Pad3)*%
X156845000Y-72771000D03*
%TO.P,J3,4,Pin_4*%
%TO.N,Net-(J3-Pad4)*%
X156845000Y-75311000D03*
%TO.P,J3,5,Pin_5*%
%TO.N,GND*%
X156845000Y-77851000D03*
%TO.P,J3,6,Pin_6*%
%TO.N,+5V*%
X156845000Y-80391000D03*
%TD*%
D17*
%TO.P,J6,1,Pin_1*%
%TO.N,/D2*%
X141150000Y-100000000D03*
D18*
%TO.P,J6,2,Pin_2*%
%TO.N,/D3*%
X138610000Y-100000000D03*
%TO.P,J6,3,Pin_3*%
%TO.N,/D4*%
X136070000Y-100000000D03*
%TO.P,J6,4,Pin_4*%
%TO.N,/D5*%
X133530000Y-100000000D03*
%TO.P,J6,5,Pin_5*%
%TO.N,/D6*%
X130990000Y-100000000D03*
%TO.P,J6,6,Pin_6*%
%TO.N,/D7*%
X128450000Y-100000000D03*
%TO.P,J6,7,Pin_7*%
%TO.N,/D8*%
X125910000Y-100000000D03*
%TO.P,J6,8,Pin_8*%
%TO.N,/D9*%
X123370000Y-100000000D03*
%TO.P,J6,9,Pin_9*%
%TO.N,+3.3V*%
X120830000Y-100000000D03*
%TO.P,J6,10,Pin_10*%
%TO.N,GND*%
X118290000Y-100000000D03*
%TO.P,J6,11,Pin_11*%
%TO.N,/VBAT+*%
X115750000Y-100000000D03*
%TD*%
D19*
%TO.P,U1,1,ADJ*%
%TO.N,Net-(R11-Pad2)*%
X112767000Y-67316000D03*
D20*
%TO.P,U1,2,VO*%
%TO.N,+5V*%
X119067000Y-69596000D03*
D19*
%TO.P,U1,3,VI*%
%TO.N,+12V*%
X112767000Y-71876000D03*
%TD*%
D21*
%TO.P,R8,1*%
%TO.N,/D13*%
X148622000Y-75311000D03*
%TO.P,R8,2*%
%TO.N,Net-(J3-Pad4)*%
X150622000Y-75311000D03*
%TD*%
D17*
%TO.P,J9,1,Pin_1*%
%TO.N,+3.3V*%
X156845000Y-86233000D03*
D18*
%TO.P,J9,2,Pin_2*%
%TO.N,GND*%
X156845000Y-88773000D03*
%TO.P,J9,3,Pin_3*%
%TO.N,/SCL*%
X156845000Y-91313000D03*
%TO.P,J9,4,Pin_4*%
%TO.N,/SDA*%
X156845000Y-93853000D03*
%TD*%
D17*
%TO.P,J7,1,Pin_1*%
%TO.N,/A5*%
X141150000Y-52000000D03*
D18*
%TO.P,J7,2,Pin_2*%
%TO.N,/A4*%
X138610000Y-52000000D03*
%TO.P,J7,3,Pin_3*%
%TO.N,/A3*%
X136070000Y-52000000D03*
%TO.P,J7,4,Pin_4*%
%TO.N,/A2*%
X133530000Y-52000000D03*
%TO.P,J7,5,Pin_5*%
%TO.N,/A1*%
X130990000Y-52000000D03*
%TO.P,J7,6,Pin_6*%
%TO.N,/A0*%
X128450000Y-52000000D03*
%TO.P,J7,7,Pin_7*%
%TO.N,/D10*%
X125910000Y-52000000D03*
%TO.P,J7,8,Pin_8*%
%TO.N,/D11*%
X123370000Y-52000000D03*
%TO.P,J7,9,Pin_9*%
%TO.N,/D12*%
X120830000Y-52000000D03*
%TO.P,J7,10,Pin_10*%
%TO.N,/D13*%
X118290000Y-52000000D03*
%TO.P,J7,11,Pin_11*%
%TO.N,/RESET*%
X115750000Y-52000000D03*
%TD*%
D17*
%TO.P,J4,1,Pin_1*%
%TO.N,+5V*%
X156845000Y-53721000D03*
D18*
%TO.P,J4,2,Pin_2*%
%TO.N,/A4*%
X156845000Y-56261000D03*
%TO.P,J4,3,Pin_3*%
%TO.N,/A5*%
X156845000Y-58801000D03*
%TO.P,J4,4,Pin_4*%
%TO.N,GND*%
X156845000Y-61341000D03*
%TD*%
D22*
%TO.P,C5,1*%
%TO.N,+5V*%
X126492000Y-83312000D03*
%TO.P,C5,2*%
%TO.N,GND*%
X123242000Y-83312000D03*
%TD*%
D23*
%TO.P,C3,1*%
%TO.N,+12V*%
X107039500Y-63881000D03*
%TO.P,C3,2*%
%TO.N,GND*%
X109114500Y-63881000D03*
%TD*%
D17*
%TO.P,J5,1,Pin_1*%
%TO.N,+5V*%
X131318000Y-89911000D03*
D18*
%TO.P,J5,2,Pin_2*%
%TO.N,GND*%
X131318000Y-92451000D03*
%TD*%
D24*
%TO.P,R4,1*%
%TO.N,GND*%
X143637000Y-61992000D03*
%TO.P,R4,2*%
%TO.N,/D13*%
X143637000Y-63992000D03*
%TD*%
D25*
%TO.P,C10,1*%
%TO.N,+12V*%
X104267000Y-86846500D03*
%TO.P,C10,2*%
%TO.N,GND*%
X104267000Y-88921500D03*
%TD*%
D26*
%TO.P,J1,1*%
%TO.N,+12V*%
X104100000Y-68960000D03*
D27*
%TO.P,J1,2*%
%TO.N,GND*%
X98100000Y-68960000D03*
D28*
%TO.P,J1,3*%
%TO.N,unconnected-(J1-Pad3)*%
X101100000Y-73660000D03*
%TD*%
D25*
%TO.P,C12,1*%
%TO.N,+12V*%
X99949000Y-86846500D03*
%TO.P,C12,2*%
%TO.N,GND*%
X99949000Y-88921500D03*
%TD*%
D24*
%TO.P,R14,1*%
%TO.N,+3.3V*%
X118364000Y-85360000D03*
%TO.P,R14,2*%
%TO.N,Net-(D4-Pad2)*%
X118364000Y-87360000D03*
%TD*%
%TO.P,R13,1*%
%TO.N,+5V*%
X115062000Y-85376000D03*
%TO.P,R13,2*%
%TO.N,Net-(D3-Pad2)*%
X115062000Y-87376000D03*
%TD*%
%TO.P,R1,1*%
%TO.N,GND*%
X149733000Y-61976000D03*
%TO.P,R1,2*%
%TO.N,/D10*%
X149733000Y-63976000D03*
%TD*%
D12*
%TO.P,R11,1*%
%TO.N,+5V*%
X112776000Y-64500000D03*
%TO.P,R11,2*%
%TO.N,Net-(R11-Pad2)*%
X112776000Y-62500000D03*
%TD*%
D23*
%TO.P,C2,1*%
%TO.N,+12V*%
X107039500Y-59563000D03*
%TO.P,C2,2*%
%TO.N,GND*%
X109114500Y-59563000D03*
%TD*%
D29*
%TO.P,D1,1,K*%
%TO.N,Net-(D1-Pad1)*%
X141478000Y-76699000D03*
%TO.P,D1,2,A*%
%TO.N,/D2*%
X141478000Y-78749000D03*
%TD*%
D17*
%TO.P,J8,1,Pin_1*%
%TO.N,/SDA*%
X153600000Y-100000000D03*
D18*
%TO.P,J8,2,Pin_2*%
%TO.N,/SCL*%
X151060000Y-100000000D03*
%TO.P,J8,3,Pin_3*%
%TO.N,+3.3V*%
X148520000Y-100000000D03*
%TO.P,J8,4,Pin_4*%
%TO.N,GND*%
X145980000Y-100000000D03*
%TD*%
D21*
%TO.P,R6,1*%
%TO.N,/D11*%
X148622000Y-70231000D03*
%TO.P,R6,2*%
%TO.N,Net-(J3-Pad2)*%
X150622000Y-70231000D03*
%TD*%
%TO.P,R5,1*%
%TO.N,/D10*%
X148606000Y-67691000D03*
%TO.P,R5,2*%
%TO.N,Net-(J3-Pad1)*%
X150606000Y-67691000D03*
%TD*%
D12*
%TO.P,R15,1*%
%TO.N,Net-(D5-Pad1)*%
X130302000Y-74660000D03*
%TO.P,R15,2*%
%TO.N,GND*%
X130302000Y-72660000D03*
%TD*%
D15*
%TO.P,C9,1*%
%TO.N,+3.3V*%
X150389500Y-86233000D03*
%TO.P,C9,2*%
%TO.N,GND*%
X148314500Y-86233000D03*
%TD*%
D24*
%TO.P,R3,1*%
%TO.N,GND*%
X145669000Y-61992000D03*
%TO.P,R3,2*%
%TO.N,/D12*%
X145669000Y-63992000D03*
%TD*%
D29*
%TO.P,D2,1,K*%
%TO.N,Net-(D2-Pad1)*%
X135890000Y-76699000D03*
%TO.P,D2,2,A*%
%TO.N,/D3*%
X135890000Y-78749000D03*
%TD*%
D23*
%TO.P,C4,1*%
%TO.N,+5V*%
X131529000Y-81534000D03*
%TO.P,C4,2*%
%TO.N,GND*%
X133604000Y-81534000D03*
%TD*%
%TO.P,C1,1*%
%TO.N,+12V*%
X107039500Y-61722000D03*
%TO.P,C1,2*%
%TO.N,GND*%
X109114500Y-61722000D03*
%TD*%
D15*
%TO.P,C6,1*%
%TO.N,+5V*%
X150389500Y-80391000D03*
%TO.P,C6,2*%
%TO.N,GND*%
X148314500Y-80391000D03*
%TD*%
D21*
%TO.P,R7,1*%
%TO.N,/D12*%
X148606000Y-72771000D03*
%TO.P,R7,2*%
%TO.N,Net-(J3-Pad3)*%
X150606000Y-72771000D03*
%TD*%
D29*
%TO.P,D5,1,K*%
%TO.N,Net-(D5-Pad1)*%
X130302000Y-76699000D03*
%TO.P,D5,2,A*%
%TO.N,/A3*%
X130302000Y-78749000D03*
%TD*%
D16*
%TO.P,D4,1,K*%
%TO.N,GND*%
X120396000Y-93227000D03*
%TO.P,D4,2,A*%
%TO.N,Net-(D4-Pad2)*%
X120396000Y-91177000D03*
%TD*%
D13*
%TO.P,J10,1,Pin_1*%
%TO.N,+12V*%
X95061000Y-86388000D03*
D14*
%TO.P,J10,2,Pin_2*%
%TO.N,GND*%
X95061000Y-89888000D03*
%TD*%
D24*
%TO.P,R9,1*%
%TO.N,GND*%
X112776000Y-58563000D03*
%TO.P,R9,2*%
%TO.N,Net-(R11-Pad2)*%
X112776000Y-60563000D03*
%TD*%
%TO.P,R2,1*%
%TO.N,GND*%
X147701000Y-61992000D03*
%TO.P,R2,2*%
%TO.N,/D11*%
X147701000Y-63992000D03*
%TD*%
D25*
%TO.P,C11,1*%
%TO.N,+12V*%
X102108000Y-86846500D03*
%TO.P,C11,2*%
%TO.N,GND*%
X102108000Y-88921500D03*
%TD*%
%TO.P,C8,1*%
%TO.N,+5V*%
X134366000Y-89916000D03*
%TO.P,C8,2*%
%TO.N,GND*%
X134366000Y-91991000D03*
%TD*%
D30*
%TO.N,GND*%
X162560000Y-96520000D03*
X109220000Y-88900000D03*
X152908000Y-69088000D03*
X144780000Y-93980000D03*
X152908000Y-71628000D03*
X137160000Y-93980000D03*
X137160000Y-68580000D03*
X109220000Y-78740000D03*
X148844000Y-57404000D03*
X96520000Y-96520000D03*
X96520000Y-78740000D03*
X108077000Y-53340000D03*
X109220000Y-96520000D03*
X129540000Y-66040000D03*
X144526000Y-57404000D03*
X137160000Y-58420000D03*
X144780000Y-81280000D03*
X99060000Y-63500000D03*
X124460000Y-93980000D03*
X162560000Y-76200000D03*
X108077000Y-68580000D03*
X137160000Y-85725000D03*
X124460000Y-88900000D03*
X152400000Y-97536000D03*
X152908000Y-74168000D03*
X162560000Y-53721000D03*
X96520000Y-53340000D03*
%TO.N,+5V*%
X127254000Y-72136000D03*
X124206000Y-70866000D03*
X123190000Y-73406000D03*
X121412000Y-74676000D03*
X123190000Y-72136000D03*
X118872000Y-64516000D03*
X127254000Y-69596000D03*
X123190000Y-69596000D03*
X121412000Y-73660000D03*
X124206000Y-67056000D03*
X124206000Y-72136000D03*
X126238000Y-67056000D03*
X124206000Y-68326000D03*
X125222000Y-72136000D03*
X126238000Y-70866000D03*
X120142000Y-73660000D03*
X120142000Y-65532000D03*
X126238000Y-69596000D03*
X121412000Y-65532000D03*
X118872000Y-74676000D03*
X117602000Y-65532000D03*
X125222000Y-70866000D03*
X121412000Y-64516000D03*
X124206000Y-73406000D03*
X125222000Y-69596000D03*
X125222000Y-65786000D03*
X117602000Y-74676000D03*
X126238000Y-73406000D03*
X127254000Y-65786000D03*
D31*
X134620000Y-83820000D03*
D30*
X125222000Y-73406000D03*
X123190000Y-67056000D03*
X127254000Y-70866000D03*
X116332000Y-73660000D03*
X123190000Y-65786000D03*
X126238000Y-65786000D03*
X120142000Y-64516000D03*
X127254000Y-68326000D03*
X126238000Y-72136000D03*
X118872000Y-65532000D03*
X127254000Y-73406000D03*
X116332000Y-64516000D03*
X116332000Y-65532000D03*
X117602000Y-64516000D03*
X124206000Y-69596000D03*
X123190000Y-68326000D03*
X124206000Y-65786000D03*
X116332000Y-74676000D03*
X125222000Y-67056000D03*
X118872000Y-73660000D03*
X123190000Y-70866000D03*
X120142000Y-74676000D03*
X126238000Y-68326000D03*
X125222000Y-68326000D03*
X127254000Y-67056000D03*
X117602000Y-73660000D03*
%TO.N,/A3*%
X126746000Y-56261000D03*
%TO.N,/D11*%
X146939000Y-68961000D03*
X146939000Y-66294000D03*
%TO.N,/D12*%
X146812000Y-72009000D03*
X145669000Y-66167000D03*
%TO.N,/D13*%
X144399000Y-66167000D03*
X147066000Y-73914000D03*
%TD*%
D32*
%TO.N,+12V*%
X112767000Y-71876000D02*
X107016000Y-71876000D01*
D33*
X95377000Y-56642000D02*
X93345000Y-56642000D01*
D34*
X104267000Y-86846500D02*
X102108000Y-86846500D01*
D35*
X107039500Y-61722000D02*
X107039500Y-63881000D01*
D32*
X107016000Y-71876000D02*
X104100000Y-68960000D01*
D34*
X102108000Y-86846500D02*
X99949000Y-86846500D01*
D33*
X93345000Y-56642000D02*
X92202000Y-57785000D01*
D35*
X107039500Y-61722000D02*
X104568000Y-61722000D01*
D33*
X92202000Y-57785000D02*
X92202000Y-83529000D01*
X92202000Y-83529000D02*
X95061000Y-86388000D01*
D35*
X107039500Y-59563000D02*
X107039500Y-61722000D01*
X104568000Y-61722000D02*
X104100000Y-62190000D01*
D33*
X104100000Y-62190000D02*
X104100000Y-68960000D01*
X98552000Y-56642000D02*
X104100000Y-62190000D01*
X95377000Y-56642000D02*
X98552000Y-56642000D01*
D34*
X99490500Y-86388000D02*
X95061000Y-86388000D01*
X99949000Y-86846500D02*
X99490500Y-86388000D01*
D36*
%TO.N,+5V*%
X129286000Y-82296000D02*
X131318000Y-84328000D01*
X131318000Y-84328000D02*
X131318000Y-89911000D01*
D34*
X112776000Y-64500000D02*
X116316000Y-64500000D01*
D37*
X115062000Y-85376000D02*
X119067000Y-81371000D01*
X119067000Y-81371000D02*
X119067000Y-69596000D01*
D34*
X150389500Y-80391000D02*
X156845000Y-80391000D01*
X130048000Y-81534000D02*
X129286000Y-82296000D01*
D36*
X134112000Y-84328000D02*
X134620000Y-83820000D01*
D34*
X131323000Y-89916000D02*
X131318000Y-89911000D01*
X131529000Y-81534000D02*
X130048000Y-81534000D01*
X150516500Y-53721000D02*
X156845000Y-53721000D01*
D36*
X131318000Y-84328000D02*
X134112000Y-84328000D01*
D34*
X134366000Y-89916000D02*
X131323000Y-89916000D01*
D36*
X126492000Y-83312000D02*
X128270000Y-83312000D01*
D34*
X116316000Y-64500000D02*
X116332000Y-64516000D01*
D36*
X128270000Y-83312000D02*
X129286000Y-82296000D01*
X119067000Y-69596000D02*
X119067000Y-72077000D01*
X119067000Y-72077000D02*
X129286000Y-82296000D01*
D37*
%TO.N,Net-(D1-Pad1)*%
X141478000Y-76699000D02*
X141478000Y-74660000D01*
%TO.N,/D2*%
X141478000Y-78749000D02*
X141150000Y-79077000D01*
X141150000Y-79077000D02*
X141150000Y-100000000D01*
%TO.N,Net-(D2-Pad1)*%
X135890000Y-76699000D02*
X135890000Y-74660000D01*
%TO.N,/D3*%
X138566000Y-78749000D02*
X140645200Y-80828200D01*
X140645200Y-80828200D02*
X140645200Y-97964800D01*
X140645200Y-97964800D02*
X138610000Y-100000000D01*
X135890000Y-78749000D02*
X138566000Y-78749000D01*
%TO.N,Net-(D3-Pad2)*%
X115062000Y-87376000D02*
X115062000Y-91177000D01*
%TO.N,/A3*%
X130302000Y-78749000D02*
X134239000Y-74812000D01*
X126619000Y-56388000D02*
X126746000Y-56261000D01*
X134239000Y-74812000D02*
X134239000Y-62933130D01*
X127566870Y-56261000D02*
X126746000Y-56261000D01*
X134239000Y-62933130D02*
X127566870Y-56261000D01*
D38*
%TO.N,/A4*%
X142871000Y-56261000D02*
X138610000Y-52000000D01*
X156845000Y-56261000D02*
X142871000Y-56261000D01*
%TO.N,/A5*%
X156845000Y-58801000D02*
X143002000Y-58801000D01*
X137287000Y-53086000D02*
X137287000Y-51308000D01*
X139823000Y-50673000D02*
X141150000Y-52000000D01*
X137922000Y-50673000D02*
X139823000Y-50673000D01*
X137287000Y-51308000D02*
X137922000Y-50673000D01*
X143002000Y-58801000D02*
X137287000Y-53086000D01*
D37*
%TO.N,+3.3V*%
X148520000Y-100000000D02*
X148520000Y-94558000D01*
X116840000Y-96010000D02*
X120830000Y-100000000D01*
X116840000Y-86106000D02*
X116840000Y-96010000D01*
D34*
X150389500Y-86233000D02*
X156845000Y-86233000D01*
D37*
X148520000Y-94558000D02*
X156845000Y-86233000D01*
X117586000Y-85360000D02*
X116840000Y-86106000D01*
X118364000Y-85360000D02*
X117586000Y-85360000D01*
D38*
%TO.N,/D10*%
X148606000Y-67691000D02*
X141601000Y-67691000D01*
X149733000Y-66564000D02*
X148606000Y-67691000D01*
X141601000Y-67691000D02*
X125910000Y-52000000D01*
X149733000Y-63976000D02*
X149733000Y-66564000D01*
%TO.N,/D11*%
X148209000Y-70231000D02*
X146939000Y-68961000D01*
X147701000Y-63992000D02*
X147701000Y-65532000D01*
X148622000Y-70231000D02*
X148209000Y-70231000D01*
X125726000Y-54356000D02*
X123370000Y-52000000D01*
X148622000Y-70231000D02*
X143498948Y-70231000D01*
X147701000Y-65532000D02*
X146939000Y-66294000D01*
X127623948Y-54356000D02*
X125726000Y-54356000D01*
X143498948Y-70231000D02*
X127623948Y-54356000D01*
%TO.N,/D12*%
X123640000Y-54810000D02*
X120830000Y-52000000D01*
X148606000Y-72771000D02*
X147574000Y-72771000D01*
X145396896Y-72771000D02*
X127435896Y-54810000D01*
X127435896Y-54810000D02*
X123640000Y-54810000D01*
X147574000Y-72771000D02*
X146812000Y-72009000D01*
X145669000Y-63992000D02*
X145669000Y-66167000D01*
X148606000Y-72771000D02*
X145396896Y-72771000D01*
%TO.N,/D13*%
X143637000Y-63992000D02*
X143637000Y-65405000D01*
X147294844Y-75311000D02*
X127247844Y-55264000D01*
X143637000Y-65405000D02*
X144399000Y-66167000D01*
X121554000Y-55264000D02*
X118290000Y-52000000D01*
X127247844Y-55264000D02*
X121554000Y-55264000D01*
D39*
X147225000Y-73914000D02*
X148622000Y-75311000D01*
X147066000Y-73914000D02*
X147225000Y-73914000D01*
D38*
X148622000Y-75311000D02*
X147294844Y-75311000D01*
D37*
%TO.N,/SDA*%
X153600000Y-100000000D02*
X153600000Y-97098000D01*
X153600000Y-97098000D02*
X156845000Y-93853000D01*
%TO.N,/SCL*%
X151060000Y-100000000D02*
X151060000Y-97098000D01*
X151060000Y-97098000D02*
X156845000Y-91313000D01*
%TO.N,Net-(R11-Pad2)*%
X112655000Y-67316000D02*
X111252000Y-65913000D01*
X111252000Y-65913000D02*
X111252000Y-64024000D01*
X112767000Y-67316000D02*
X112655000Y-67316000D01*
X111252000Y-64024000D02*
X112776000Y-62500000D01*
X112776000Y-67307000D02*
X112767000Y-67316000D01*
X112776000Y-60563000D02*
X112776000Y-62500000D01*
D38*
%TO.N,Net-(J3-Pad1)*%
X150606000Y-67691000D02*
X156845000Y-67691000D01*
%TO.N,Net-(J3-Pad2)*%
X150622000Y-70231000D02*
X156845000Y-70231000D01*
%TO.N,Net-(J3-Pad3)*%
X150606000Y-72771000D02*
X156845000Y-72771000D01*
%TO.N,Net-(J3-Pad4)*%
X150622000Y-75311000D02*
X156845000Y-75311000D01*
D37*
%TO.N,Net-(D4-Pad2)*%
X118364000Y-87360000D02*
X118364000Y-89145000D01*
X118364000Y-89145000D02*
X120396000Y-91177000D01*
%TO.N,Net-(D5-Pad1)*%
X130302000Y-76699000D02*
X130302000Y-74660000D01*
%TD*%
%TA.AperFunction,Conductor*%
%TO.N,GND*%
G36*
X115226115Y-50528502D02*
G01*
X115272608Y-50582158D01*
X115282712Y-50652432D01*
X115253218Y-50717012D01*
X115216175Y-50746262D01*
X115023607Y-50846507D01*
X115019474Y-50849610D01*
X115019471Y-50849612D01*
X114849100Y-50977530D01*
X114844965Y-50980635D01*
X114690629Y-51142138D01*
X114564743Y-51326680D01*
X114470688Y-51529305D01*
X114410989Y-51744570D01*
X114387251Y-51966695D01*
X114400110Y-52189715D01*
X114401247Y-52194761D01*
X114401248Y-52194767D01*
X114425304Y-52301508D01*
X114449222Y-52407639D01*
X114533266Y-52614616D01*
X114584942Y-52698944D01*
X114647291Y-52800688D01*
X114649987Y-52805088D01*
X114796250Y-52973938D01*
X114968126Y-53116632D01*
X115161000Y-53229338D01*
X115165825Y-53231180D01*
X115165826Y-53231181D01*
X115238612Y-53258975D01*
X115369692Y-53309030D01*
X115374760Y-53310061D01*
X115374763Y-53310062D01*
X115482003Y-53331880D01*
X115588597Y-53353567D01*
X115593772Y-53353757D01*
X115593774Y-53353757D01*
X115806673Y-53361564D01*
X115806677Y-53361564D01*
X115811837Y-53361753D01*
X115816957Y-53361097D01*
X115816959Y-53361097D01*
X116028288Y-53334025D01*
X116028289Y-53334025D01*
X116033416Y-53333368D01*
X116038366Y-53331883D01*
X116242429Y-53270661D01*
X116242434Y-53270659D01*
X116247384Y-53269174D01*
X116447994Y-53170896D01*
X116629860Y-53041173D01*
X116673271Y-52997914D01*
X116773400Y-52898134D01*
X116788096Y-52883489D01*
X116829203Y-52826283D01*
X116918453Y-52702077D01*
X116919776Y-52703028D01*
X116966645Y-52659857D01*
X117036580Y-52647625D01*
X117102026Y-52675144D01*
X117129875Y-52706994D01*
X117189987Y-52805088D01*
X117336250Y-52973938D01*
X117508126Y-53116632D01*
X117701000Y-53229338D01*
X117705825Y-53231180D01*
X117705826Y-53231181D01*
X117778612Y-53258975D01*
X117909692Y-53309030D01*
X117914760Y-53310061D01*
X117914763Y-53310062D01*
X118022003Y-53331880D01*
X118128597Y-53353567D01*
X118133772Y-53353757D01*
X118133774Y-53353757D01*
X118346673Y-53361564D01*
X118346677Y-53361564D01*
X118351837Y-53361753D01*
X118356957Y-53361097D01*
X118356959Y-53361097D01*
X118430414Y-53351687D01*
X118573416Y-53333368D01*
X118578369Y-53331882D01*
X118578374Y-53331881D01*
X118613614Y-53321308D01*
X118617651Y-53320097D01*
X118688646Y-53319679D01*
X118742954Y-53351687D01*
X121048750Y-55657483D01*
X121056326Y-55665809D01*
X121060447Y-55672303D01*
X121066222Y-55677726D01*
X121110265Y-55719085D01*
X121113107Y-55721840D01*
X121132906Y-55741639D01*
X121136037Y-55744068D01*
X121136042Y-55744072D01*
X121136128Y-55744139D01*
X121145153Y-55751847D01*
X121171715Y-55776791D01*
X121171719Y-55776794D01*
X121177494Y-55782217D01*
X121184440Y-55786036D01*
X121184445Y-55786039D01*
X121195328Y-55792022D01*
X121211856Y-55802878D01*
X121221671Y-55810492D01*
X121221674Y-55810494D01*
X121227933Y-55815349D01*
X121235203Y-55818495D01*
X121235208Y-55818498D01*
X121268650Y-55832969D01*
X121279311Y-55838192D01*
X121311247Y-55855749D01*
X121311252Y-55855751D01*
X121318197Y-55859569D01*
X121325871Y-55861539D01*
X121325878Y-55861542D01*
X121337913Y-55864632D01*
X121356618Y-55871036D01*
X121368013Y-55875967D01*
X121375292Y-55879117D01*
X121402342Y-55883401D01*
X121419127Y-55886060D01*
X121430740Y-55888465D01*
X121473718Y-55899500D01*
X121494065Y-55899500D01*
X121513777Y-55901051D01*
X121533879Y-55904235D01*
X121541771Y-55903489D01*
X121578056Y-55900059D01*
X121589914Y-55899500D01*
X125734781Y-55899500D01*
X125802902Y-55919502D01*
X125849395Y-55973158D01*
X125859499Y-56043432D01*
X125854613Y-56064439D01*
X125852458Y-56071072D01*
X125832496Y-56261000D01*
X125833186Y-56267565D01*
X125839844Y-56330908D01*
X125852458Y-56450928D01*
X125911473Y-56632556D01*
X125914776Y-56638278D01*
X125914777Y-56638279D01*
X125927754Y-56660756D01*
X126006960Y-56797944D01*
X126011378Y-56802851D01*
X126011379Y-56802852D01*
X126130325Y-56934955D01*
X126134747Y-56939866D01*
X126289248Y-57052118D01*
X126295276Y-57054802D01*
X126295278Y-57054803D01*
X126457681Y-57127109D01*
X126463712Y-57129794D01*
X126550009Y-57148137D01*
X126644056Y-57168128D01*
X126644061Y-57168128D01*
X126650513Y-57169500D01*
X126841487Y-57169500D01*
X126847939Y-57168128D01*
X126847944Y-57168128D01*
X126941991Y-57148137D01*
X127028288Y-57129794D01*
X127034319Y-57127109D01*
X127196722Y-57054803D01*
X127196724Y-57054802D01*
X127202752Y-57052118D01*
X127243450Y-57022549D01*
X127310317Y-56998691D01*
X127379469Y-57014771D01*
X127406606Y-57035390D01*
X133541195Y-63169979D01*
X133575221Y-63232291D01*
X133578100Y-63259074D01*
X133578100Y-74486057D01*
X133558098Y-74554178D01*
X133541195Y-74575152D01*
X131724145Y-76392202D01*
X131661833Y-76426228D01*
X131591018Y-76421163D01*
X131534182Y-76378616D01*
X131509723Y-76316111D01*
X131500238Y-76224692D01*
X131500237Y-76224688D01*
X131499526Y-76217834D01*
X131491738Y-76194489D01*
X131445868Y-76057002D01*
X131443550Y-76050054D01*
X131350478Y-75899652D01*
X131231890Y-75781271D01*
X131197812Y-75718990D01*
X131202815Y-75648170D01*
X131231736Y-75603081D01*
X131346134Y-75488483D01*
X131351305Y-75483303D01*
X131410855Y-75386695D01*
X131440275Y-75338968D01*
X131440276Y-75338966D01*
X131444115Y-75332738D01*
X131499797Y-75164861D01*
X131502391Y-75139549D01*
X131510172Y-75063598D01*
X131510500Y-75060400D01*
X131510500Y-74259600D01*
X131510163Y-74256350D01*
X131500238Y-74160692D01*
X131500237Y-74160688D01*
X131499526Y-74153834D01*
X131487461Y-74117669D01*
X131445868Y-73993002D01*
X131443550Y-73986054D01*
X131350478Y-73835652D01*
X131323308Y-73808529D01*
X131263537Y-73748862D01*
X131229458Y-73686579D01*
X131234461Y-73615759D01*
X131263382Y-73570671D01*
X131345739Y-73488171D01*
X131354751Y-73476760D01*
X131439816Y-73338757D01*
X131445963Y-73325576D01*
X131497138Y-73171290D01*
X131500005Y-73157914D01*
X131509672Y-73063562D01*
X131510000Y-73057146D01*
X131510000Y-72932115D01*
X131505525Y-72916876D01*
X131504135Y-72915671D01*
X131496452Y-72914000D01*
X129112116Y-72914000D01*
X129096877Y-72918475D01*
X129095672Y-72919865D01*
X129094001Y-72927548D01*
X129094001Y-73057095D01*
X129094338Y-73063614D01*
X129104257Y-73159206D01*
X129107149Y-73172600D01*
X129158588Y-73326784D01*
X129164761Y-73339962D01*
X129250063Y-73477807D01*
X129259099Y-73489208D01*
X129340462Y-73570430D01*
X129374541Y-73632713D01*
X129369538Y-73703533D01*
X129340617Y-73748620D01*
X129257870Y-73831512D01*
X129257866Y-73831517D01*
X129252695Y-73836697D01*
X129248855Y-73842927D01*
X129248854Y-73842928D01*
X129164670Y-73979500D01*
X129159885Y-73987262D01*
X129157581Y-73994209D01*
X129118023Y-74113474D01*
X129104203Y-74155139D01*
X129103503Y-74161975D01*
X129103502Y-74161978D01*
X129102107Y-74175598D01*
X129093500Y-74259600D01*
X129093500Y-75060400D01*
X129093837Y-75063646D01*
X129093837Y-75063650D01*
X129096937Y-75093522D01*
X129104474Y-75166166D01*
X129160450Y-75333946D01*
X129253522Y-75484348D01*
X129368444Y-75599069D01*
X129372109Y-75602728D01*
X129406188Y-75665010D01*
X129401185Y-75735830D01*
X129372264Y-75780919D01*
X129309494Y-75843799D01*
X129252695Y-75900697D01*
X129248855Y-75906927D01*
X129248854Y-75906928D01*
X129171374Y-76032624D01*
X129159885Y-76051262D01*
X129104203Y-76219139D01*
X129103503Y-76225975D01*
X129103502Y-76225978D01*
X129102012Y-76240521D01*
X129093500Y-76323600D01*
X129093500Y-77074400D01*
X129104474Y-77180166D01*
X129106655Y-77186702D01*
X129106655Y-77186704D01*
X129150728Y-77318806D01*
X129160450Y-77347946D01*
X129253522Y-77498348D01*
X129378697Y-77623305D01*
X129382916Y-77625906D01*
X129423417Y-77683030D01*
X129426649Y-77753953D01*
X129391024Y-77815365D01*
X129383470Y-77821922D01*
X129377652Y-77825522D01*
X129252695Y-77950697D01*
X129248855Y-77956927D01*
X129248854Y-77956928D01*
X129180328Y-78068098D01*
X129159885Y-78101262D01*
X129139650Y-78162269D01*
X129110591Y-78249881D01*
X129104203Y-78269139D01*
X129103503Y-78275975D01*
X129103502Y-78275978D01*
X129099091Y-78319031D01*
X129093500Y-78373600D01*
X129093500Y-79124400D01*
X129093837Y-79127646D01*
X129093837Y-79127650D01*
X129103688Y-79222588D01*
X129104474Y-79230166D01*
X129106655Y-79236702D01*
X129106655Y-79236704D01*
X129132464Y-79314063D01*
X129160450Y-79397946D01*
X129253522Y-79548348D01*
X129378697Y-79673305D01*
X129384927Y-79677145D01*
X129384928Y-79677146D01*
X129522090Y-79761694D01*
X129529262Y-79766115D01*
X129609005Y-79792564D01*
X129690611Y-79819632D01*
X129690613Y-79819632D01*
X129697139Y-79821797D01*
X129703975Y-79822497D01*
X129703978Y-79822498D01*
X129747031Y-79826909D01*
X129801600Y-79832500D01*
X130802400Y-79832500D01*
X130805646Y-79832163D01*
X130805650Y-79832163D01*
X130901308Y-79822238D01*
X130901312Y-79822237D01*
X130908166Y-79821526D01*
X130914702Y-79819345D01*
X130914704Y-79819345D01*
X131046806Y-79775272D01*
X131075946Y-79765550D01*
X131226348Y-79672478D01*
X131351305Y-79547303D01*
X131355146Y-79541072D01*
X131440275Y-79402968D01*
X131440276Y-79402966D01*
X131444115Y-79396738D01*
X131472111Y-79312331D01*
X131497632Y-79235389D01*
X131497632Y-79235387D01*
X131499797Y-79228861D01*
X131510500Y-79124400D01*
X131510500Y-78527344D01*
X131530502Y-78459223D01*
X131547405Y-78438249D01*
X134598958Y-75386695D01*
X134661270Y-75352669D01*
X134732085Y-75357734D01*
X134788921Y-75400281D01*
X134795181Y-75409462D01*
X134841522Y-75484348D01*
X134956444Y-75599069D01*
X134960109Y-75602728D01*
X134994188Y-75665010D01*
X134989185Y-75735830D01*
X134960264Y-75780919D01*
X134897494Y-75843799D01*
X134840695Y-75900697D01*
X134836855Y-75906927D01*
X134836854Y-75906928D01*
X134759374Y-76032624D01*
X134747885Y-76051262D01*
X134692203Y-76219139D01*
X134691503Y-76225975D01*
X134691502Y-76225978D01*
X134690012Y-76240521D01*
X134681500Y-76323600D01*
X134681500Y-77074400D01*
X134692474Y-77180166D01*
X134694655Y-77186702D01*
X134694655Y-77186704D01*
X134738728Y-77318806D01*
X134748450Y-77347946D01*
X134841522Y-77498348D01*
X134966697Y-77623305D01*
X134970916Y-77625906D01*
X135011417Y-77683030D01*
X135014649Y-77753953D01*
X134979024Y-77815365D01*
X134971470Y-77821922D01*
X134965652Y-77825522D01*
X134840695Y-77950697D01*
X134836855Y-77956927D01*
X134836854Y-77956928D01*
X134768328Y-78068098D01*
X134747885Y-78101262D01*
X134727650Y-78162269D01*
X134698591Y-78249881D01*
X134692203Y-78269139D01*
X134691503Y-78275975D01*
X134691502Y-78275978D01*
X134687091Y-78319031D01*
X134681500Y-78373600D01*
X134681500Y-79124400D01*
X134681837Y-79127646D01*
X134681837Y-79127650D01*
X134691688Y-79222588D01*
X134692474Y-79230166D01*
X134694655Y-79236702D01*
X134694655Y-79236704D01*
X134720464Y-79314063D01*
X134748450Y-79397946D01*
X134841522Y-79548348D01*
X134966697Y-79673305D01*
X134972927Y-79677145D01*
X134972928Y-79677146D01*
X135110090Y-79761694D01*
X135117262Y-79766115D01*
X135197005Y-79792564D01*
X135278611Y-79819632D01*
X135278613Y-79819632D01*
X135285139Y-79821797D01*
X135291975Y-79822497D01*
X135291978Y-79822498D01*
X135335031Y-79826909D01*
X135389600Y-79832500D01*
X136390400Y-79832500D01*
X136393646Y-79832163D01*
X136393650Y-79832163D01*
X136489308Y-79822238D01*
X136489312Y-79822237D01*
X136496166Y-79821526D01*
X136502702Y-79819345D01*
X136502704Y-79819345D01*
X136634806Y-79775272D01*
X136663946Y-79765550D01*
X136814348Y-79672478D01*
X136939305Y-79547303D01*
X136987090Y-79469782D01*
X137039862Y-79422290D01*
X137094349Y-79409900D01*
X138240056Y-79409900D01*
X138308177Y-79429902D01*
X138329151Y-79446805D01*
X139947395Y-81065048D01*
X139981420Y-81127360D01*
X139984300Y-81154143D01*
X139984300Y-97638856D01*
X139964298Y-97706977D01*
X139947400Y-97727946D01*
X139034454Y-98640893D01*
X138972143Y-98674917D01*
X138923265Y-98675844D01*
X138877821Y-98667749D01*
X138743373Y-98643800D01*
X138743367Y-98643799D01*
X138738284Y-98642894D01*
X138664452Y-98641992D01*
X138520081Y-98640228D01*
X138520079Y-98640228D01*
X138514911Y-98640165D01*
X138294091Y-98673955D01*
X138081756Y-98743357D01*
X137883607Y-98846507D01*
X137879474Y-98849610D01*
X137879471Y-98849612D01*
X137709100Y-98977530D01*
X137704965Y-98980635D01*
X137679541Y-99007240D01*
X137611280Y-99078671D01*
X137550629Y-99142138D01*
X137443201Y-99299621D01*
X137388293Y-99344621D01*
X137317768Y-99352792D01*
X137254021Y-99321538D01*
X137233324Y-99297054D01*
X137152822Y-99172617D01*
X137152820Y-99172614D01*
X137150014Y-99168277D01*
X136999670Y-99003051D01*
X136995619Y-98999852D01*
X136995615Y-98999848D01*
X136828414Y-98867800D01*
X136828410Y-98867798D01*
X136824359Y-98864598D01*
X136788028Y-98844542D01*
X136730900Y-98813006D01*
X136628789Y-98756638D01*
X136623920Y-98754914D01*
X136623916Y-98754912D01*
X136423087Y-98683795D01*
X136423083Y-98683794D01*
X136418212Y-98682069D01*
X136413119Y-98681162D01*
X136413116Y-98681161D01*
X136203373Y-98643800D01*
X136203367Y-98643799D01*
X136198284Y-98642894D01*
X136124452Y-98641992D01*
X135980081Y-98640228D01*
X135980079Y-98640228D01*
X135974911Y-98640165D01*
X135754091Y-98673955D01*
X135541756Y-98743357D01*
X135343607Y-98846507D01*
X135339474Y-98849610D01*
X135339471Y-98849612D01*
X135169100Y-98977530D01*
X135164965Y-98980635D01*
X135139541Y-99007240D01*
X135071280Y-99078671D01*
X135010629Y-99142138D01*
X134903201Y-99299621D01*
X134848293Y-99344621D01*
X134777768Y-99352792D01*
X134714021Y-99321538D01*
X134693324Y-99297054D01*
X134612822Y-99172617D01*
X134612820Y-99172614D01*
X134610014Y-99168277D01*
X134459670Y-99003051D01*
X134455619Y-98999852D01*
X134455615Y-98999848D01*
X134288414Y-98867800D01*
X134288410Y-98867798D01*
X134284359Y-98864598D01*
X134248028Y-98844542D01*
X134190900Y-98813006D01*
X134088789Y-98756638D01*
X134083920Y-98754914D01*
X134083916Y-98754912D01*
X133883087Y-98683795D01*
X133883083Y-98683794D01*
X133878212Y-98682069D01*
X133873119Y-98681162D01*
X133873116Y-98681161D01*
X133663373Y-98643800D01*
X133663367Y-98643799D01*
X133658284Y-98642894D01*
X133584452Y-98641992D01*
X133440081Y-98640228D01*
X133440079Y-98640228D01*
X133434911Y-98640165D01*
X133214091Y-98673955D01*
X133001756Y-98743357D01*
X132803607Y-98846507D01*
X132799474Y-98849610D01*
X132799471Y-98849612D01*
X132629100Y-98977530D01*
X132624965Y-98980635D01*
X132599541Y-99007240D01*
X132531280Y-99078671D01*
X132470629Y-99142138D01*
X132363201Y-99299621D01*
X132308293Y-99344621D01*
X132237768Y-99352792D01*
X132174021Y-99321538D01*
X132153324Y-99297054D01*
X132072822Y-99172617D01*
X132072820Y-99172614D01*
X132070014Y-99168277D01*
X131919670Y-99003051D01*
X131915619Y-98999852D01*
X131915615Y-98999848D01*
X131748414Y-98867800D01*
X131748410Y-98867798D01*
X131744359Y-98864598D01*
X131708028Y-98844542D01*
X131650900Y-98813006D01*
X131548789Y-98756638D01*
X131543920Y-98754914D01*
X131543916Y-98754912D01*
X131343087Y-98683795D01*
X131343083Y-98683794D01*
X131338212Y-98682069D01*
X131333119Y-98681162D01*
X131333116Y-98681161D01*
X131123373Y-98643800D01*
X131123367Y-98643799D01*
X131118284Y-98642894D01*
X131044452Y-98641992D01*
X130900081Y-98640228D01*
X130900079Y-98640228D01*
X130894911Y-98640165D01*
X130674091Y-98673955D01*
X130461756Y-98743357D01*
X130263607Y-98846507D01*
X130259474Y-98849610D01*
X130259471Y-98849612D01*
X130089100Y-98977530D01*
X130084965Y-98980635D01*
X130059541Y-99007240D01*
X129991280Y-99078671D01*
X129930629Y-99142138D01*
X129823201Y-99299621D01*
X129768293Y-99344621D01*
X129697768Y-99352792D01*
X129634021Y-99321538D01*
X129613324Y-99297054D01*
X129532822Y-99172617D01*
X129532820Y-99172614D01*
X129530014Y-99168277D01*
X129379670Y-99003051D01*
X129375619Y-98999852D01*
X129375615Y-98999848D01*
X129208414Y-98867800D01*
X129208410Y-98867798D01*
X129204359Y-98864598D01*
X129168028Y-98844542D01*
X129110900Y-98813006D01*
X129008789Y-98756638D01*
X129003920Y-98754914D01*
X129003916Y-98754912D01*
X128803087Y-98683795D01*
X128803083Y-98683794D01*
X128798212Y-98682069D01*
X128793119Y-98681162D01*
X128793116Y-98681161D01*
X128583373Y-98643800D01*
X128583367Y-98643799D01*
X128578284Y-98642894D01*
X128504452Y-98641992D01*
X128360081Y-98640228D01*
X128360079Y-98640228D01*
X128354911Y-98640165D01*
X128134091Y-98673955D01*
X127921756Y-98743357D01*
X127723607Y-98846507D01*
X127719474Y-98849610D01*
X127719471Y-98849612D01*
X127549100Y-98977530D01*
X127544965Y-98980635D01*
X127519541Y-99007240D01*
X127451280Y-99078671D01*
X127390629Y-99142138D01*
X127283201Y-99299621D01*
X127228293Y-99344621D01*
X127157768Y-99352792D01*
X127094021Y-99321538D01*
X127073324Y-99297054D01*
X126992822Y-99172617D01*
X126992820Y-99172614D01*
X126990014Y-99168277D01*
X126839670Y-99003051D01*
X126835619Y-98999852D01*
X126835615Y-98999848D01*
X126668414Y-98867800D01*
X126668410Y-98867798D01*
X126664359Y-98864598D01*
X126628028Y-98844542D01*
X126570900Y-98813006D01*
X126468789Y-98756638D01*
X126463920Y-98754914D01*
X126463916Y-98754912D01*
X126263087Y-98683795D01*
X126263083Y-98683794D01*
X126258212Y-98682069D01*
X126253119Y-98681162D01*
X126253116Y-98681161D01*
X126043373Y-98643800D01*
X126043367Y-98643799D01*
X126038284Y-98642894D01*
X125964452Y-98641992D01*
X125820081Y-98640228D01*
X125820079Y-98640228D01*
X125814911Y-98640165D01*
X125594091Y-98673955D01*
X125381756Y-98743357D01*
X125183607Y-98846507D01*
X125179474Y-98849610D01*
X125179471Y-98849612D01*
X125009100Y-98977530D01*
X125004965Y-98980635D01*
X124979541Y-99007240D01*
X124911280Y-99078671D01*
X124850629Y-99142138D01*
X124743201Y-99299621D01*
X124688293Y-99344621D01*
X124617768Y-99352792D01*
X124554021Y-99321538D01*
X124533324Y-99297054D01*
X124452822Y-99172617D01*
X124452820Y-99172614D01*
X124450014Y-99168277D01*
X124299670Y-99003051D01*
X124295619Y-98999852D01*
X124295615Y-98999848D01*
X124128414Y-98867800D01*
X124128410Y-98867798D01*
X124124359Y-98864598D01*
X124088028Y-98844542D01*
X124030900Y-98813006D01*
X123928789Y-98756638D01*
X123923920Y-98754914D01*
X123923916Y-98754912D01*
X123723087Y-98683795D01*
X123723083Y-98683794D01*
X123718212Y-98682069D01*
X123713119Y-98681162D01*
X123713116Y-98681161D01*
X123503373Y-98643800D01*
X123503367Y-98643799D01*
X123498284Y-98642894D01*
X123424452Y-98641992D01*
X123280081Y-98640228D01*
X123280079Y-98640228D01*
X123274911Y-98640165D01*
X123054091Y-98673955D01*
X122841756Y-98743357D01*
X122643607Y-98846507D01*
X122639474Y-98849610D01*
X122639471Y-98849612D01*
X122469100Y-98977530D01*
X122464965Y-98980635D01*
X122439541Y-99007240D01*
X122371280Y-99078671D01*
X122310629Y-99142138D01*
X122203201Y-99299621D01*
X122148293Y-99344621D01*
X122077768Y-99352792D01*
X122014021Y-99321538D01*
X121993324Y-99297054D01*
X121912822Y-99172617D01*
X121912820Y-99172614D01*
X121910014Y-99168277D01*
X121759670Y-99003051D01*
X121755619Y-98999852D01*
X121755615Y-98999848D01*
X121588414Y-98867800D01*
X121588410Y-98867798D01*
X121584359Y-98864598D01*
X121548028Y-98844542D01*
X121490900Y-98813006D01*
X121388789Y-98756638D01*
X121383920Y-98754914D01*
X121383916Y-98754912D01*
X121183087Y-98683795D01*
X121183083Y-98683794D01*
X121178212Y-98682069D01*
X121173119Y-98681162D01*
X121173116Y-98681161D01*
X120963373Y-98643800D01*
X120963367Y-98643799D01*
X120958284Y-98642894D01*
X120884452Y-98641992D01*
X120740081Y-98640228D01*
X120740079Y-98640228D01*
X120734911Y-98640165D01*
X120514091Y-98673955D01*
X120513806Y-98672093D01*
X120451055Y-98668829D01*
X120403689Y-98639035D01*
X117537805Y-95773152D01*
X117503779Y-95710840D01*
X117500900Y-95684057D01*
X117500900Y-93599095D01*
X119188001Y-93599095D01*
X119188338Y-93605614D01*
X119198257Y-93701206D01*
X119201149Y-93714600D01*
X119252588Y-93868784D01*
X119258761Y-93881962D01*
X119344063Y-94019807D01*
X119353099Y-94031208D01*
X119467829Y-94145739D01*
X119479240Y-94154751D01*
X119617243Y-94239816D01*
X119630424Y-94245963D01*
X119784710Y-94297138D01*
X119798086Y-94300005D01*
X119892438Y-94309672D01*
X119898854Y-94310000D01*
X120123885Y-94310000D01*
X120139124Y-94305525D01*
X120140329Y-94304135D01*
X120142000Y-94296452D01*
X120142000Y-94291884D01*
X120650000Y-94291884D01*
X120654475Y-94307123D01*
X120655865Y-94308328D01*
X120663548Y-94309999D01*
X120893095Y-94309999D01*
X120899614Y-94309662D01*
X120995206Y-94299743D01*
X121008600Y-94296851D01*
X121162784Y-94245412D01*
X121175962Y-94239239D01*
X121313807Y-94153937D01*
X121325208Y-94144901D01*
X121439739Y-94030171D01*
X121448751Y-94018760D01*
X121533816Y-93880757D01*
X121539963Y-93867576D01*
X121591138Y-93713290D01*
X121594005Y-93699914D01*
X121603672Y-93605562D01*
X121604000Y-93599146D01*
X121604000Y-93499115D01*
X121599525Y-93483876D01*
X121598135Y-93482671D01*
X121590452Y-93481000D01*
X120668115Y-93481000D01*
X120652876Y-93485475D01*
X120651671Y-93486865D01*
X120650000Y-93494548D01*
X120650000Y-94291884D01*
X120142000Y-94291884D01*
X120142000Y-93499115D01*
X120137525Y-93483876D01*
X120136135Y-93482671D01*
X120128452Y-93481000D01*
X119206116Y-93481000D01*
X119190877Y-93485475D01*
X119189672Y-93486865D01*
X119188001Y-93494548D01*
X119188001Y-93599095D01*
X117500900Y-93599095D01*
X117500900Y-89423634D01*
X117520902Y-89355513D01*
X117574558Y-89309020D01*
X117644832Y-89298916D01*
X117709412Y-89328410D01*
X117742273Y-89372988D01*
X117750521Y-89391777D01*
X117753012Y-89397881D01*
X117774006Y-89453441D01*
X117778309Y-89459702D01*
X117781615Y-89466026D01*
X117784271Y-89470798D01*
X117787906Y-89476944D01*
X117790958Y-89483896D01*
X117795580Y-89489919D01*
X117827102Y-89531001D01*
X117830973Y-89536328D01*
X117864611Y-89585271D01*
X117870287Y-89590328D01*
X117907819Y-89623768D01*
X117913095Y-89628749D01*
X118545724Y-90261377D01*
X119150595Y-90866248D01*
X119184620Y-90928560D01*
X119187500Y-90955343D01*
X119187500Y-91552400D01*
X119187837Y-91555646D01*
X119187837Y-91555650D01*
X119194415Y-91619044D01*
X119198474Y-91658166D01*
X119200655Y-91664702D01*
X119200655Y-91664704D01*
X119224775Y-91737000D01*
X119254450Y-91825946D01*
X119347522Y-91976348D01*
X119472697Y-92101305D01*
X119477235Y-92104102D01*
X119517824Y-92161353D01*
X119521054Y-92232276D01*
X119485428Y-92293687D01*
X119476932Y-92301062D01*
X119466793Y-92309098D01*
X119352261Y-92423829D01*
X119343249Y-92435240D01*
X119258184Y-92573243D01*
X119252037Y-92586424D01*
X119200862Y-92740710D01*
X119197995Y-92754086D01*
X119188328Y-92848438D01*
X119188000Y-92854855D01*
X119188000Y-92954885D01*
X119192475Y-92970124D01*
X119193865Y-92971329D01*
X119201548Y-92973000D01*
X121585884Y-92973000D01*
X121601123Y-92968525D01*
X121602328Y-92967135D01*
X121603999Y-92959452D01*
X121603999Y-92854905D01*
X121603662Y-92848386D01*
X121593743Y-92752794D01*
X121590851Y-92739400D01*
X121584034Y-92718966D01*
X129986257Y-92718966D01*
X130016565Y-92853446D01*
X130019645Y-92863275D01*
X130099770Y-93060603D01*
X130104413Y-93069794D01*
X130215694Y-93251388D01*
X130221777Y-93259699D01*
X130361213Y-93420667D01*
X130368580Y-93427883D01*
X130532434Y-93563916D01*
X130540881Y-93569831D01*
X130724756Y-93677279D01*
X130734042Y-93681729D01*
X130933001Y-93757703D01*
X130942899Y-93760579D01*
X131046250Y-93781606D01*
X131060299Y-93780410D01*
X131064000Y-93770065D01*
X131064000Y-93769517D01*
X131572000Y-93769517D01*
X131576064Y-93783359D01*
X131589478Y-93785393D01*
X131596184Y-93784534D01*
X131606262Y-93782392D01*
X131810255Y-93721191D01*
X131819842Y-93717433D01*
X132011095Y-93623739D01*
X132019945Y-93618464D01*
X132193328Y-93494792D01*
X132201200Y-93488139D01*
X132352052Y-93337812D01*
X132358730Y-93329965D01*
X132483003Y-93157020D01*
X132488313Y-93148183D01*
X132582670Y-92957267D01*
X132586469Y-92947672D01*
X132648377Y-92743910D01*
X132650555Y-92733837D01*
X132651986Y-92722962D01*
X132649775Y-92708778D01*
X132636617Y-92705000D01*
X131590115Y-92705000D01*
X131574876Y-92709475D01*
X131573671Y-92710865D01*
X131572000Y-92718548D01*
X131572000Y-93769517D01*
X131064000Y-93769517D01*
X131064000Y-92723115D01*
X131059525Y-92707876D01*
X131058135Y-92706671D01*
X131050452Y-92705000D01*
X130001225Y-92705000D01*
X129987694Y-92708973D01*
X129986257Y-92718966D01*
X121584034Y-92718966D01*
X121539412Y-92585216D01*
X121533239Y-92572038D01*
X121447937Y-92434193D01*
X121438901Y-92422792D01*
X121391622Y-92375595D01*
X133133001Y-92375595D01*
X133133338Y-92382114D01*
X133143257Y-92477706D01*
X133146149Y-92491100D01*
X133197588Y-92645284D01*
X133203761Y-92658462D01*
X133289063Y-92796307D01*
X133298099Y-92807708D01*
X133412829Y-92922239D01*
X133424240Y-92931251D01*
X133562243Y-93016316D01*
X133575424Y-93022463D01*
X133729710Y-93073638D01*
X133743086Y-93076505D01*
X133837438Y-93086172D01*
X133843854Y-93086500D01*
X134093885Y-93086500D01*
X134109124Y-93082025D01*
X134110329Y-93080635D01*
X134112000Y-93072952D01*
X134112000Y-93068384D01*
X134620000Y-93068384D01*
X134624475Y-93083623D01*
X134625865Y-93084828D01*
X134633548Y-93086499D01*
X134888095Y-93086499D01*
X134894614Y-93086162D01*
X134990206Y-93076243D01*
X135003600Y-93073351D01*
X135157784Y-93021912D01*
X135170962Y-93015739D01*
X135308807Y-92930437D01*
X135320208Y-92921401D01*
X135434739Y-92806671D01*
X135443751Y-92795260D01*
X135528816Y-92657257D01*
X135534963Y-92644076D01*
X135586138Y-92489790D01*
X135589005Y-92476414D01*
X135598672Y-92382062D01*
X135599000Y-92375646D01*
X135599000Y-92263115D01*
X135594525Y-92247876D01*
X135593135Y-92246671D01*
X135585452Y-92245000D01*
X134638115Y-92245000D01*
X134622876Y-92249475D01*
X134621671Y-92250865D01*
X134620000Y-92258548D01*
X134620000Y-93068384D01*
X134112000Y-93068384D01*
X134112000Y-92263115D01*
X134107525Y-92247876D01*
X134106135Y-92246671D01*
X134098452Y-92245000D01*
X133151116Y-92245000D01*
X133135877Y-92249475D01*
X133134672Y-92250865D01*
X133133001Y-92258548D01*
X133133001Y-92375595D01*
X121391622Y-92375595D01*
X121324172Y-92308262D01*
X121315238Y-92301206D01*
X121274177Y-92243288D01*
X121270947Y-92172365D01*
X121306574Y-92110954D01*
X121314407Y-92104154D01*
X121320348Y-92100478D01*
X121445305Y-91975303D01*
X121538115Y-91824738D01*
X121567601Y-91735841D01*
X121591632Y-91663389D01*
X121591632Y-91663387D01*
X121593797Y-91656861D01*
X121597172Y-91623926D01*
X121600651Y-91589962D01*
X121604500Y-91552400D01*
X121604500Y-90801600D01*
X121599530Y-90753700D01*
X121594238Y-90702692D01*
X121594237Y-90702688D01*
X121593526Y-90695834D01*
X121583070Y-90664492D01*
X121539868Y-90535002D01*
X121537550Y-90528054D01*
X121444478Y-90377652D01*
X121319303Y-90252695D01*
X121313072Y-90248854D01*
X121174968Y-90163725D01*
X121174966Y-90163724D01*
X121168738Y-90159885D01*
X121088995Y-90133436D01*
X121007389Y-90106368D01*
X121007387Y-90106368D01*
X121000861Y-90104203D01*
X120994025Y-90103503D01*
X120994022Y-90103502D01*
X120950969Y-90099091D01*
X120896400Y-90093500D01*
X120299344Y-90093500D01*
X120231223Y-90073498D01*
X120210249Y-90056595D01*
X119061805Y-88908152D01*
X119027780Y-88845840D01*
X119024900Y-88819057D01*
X119024900Y-88530056D01*
X119044902Y-88461935D01*
X119098558Y-88415442D01*
X119111023Y-88410533D01*
X119130993Y-88403870D01*
X119130995Y-88403869D01*
X119137946Y-88401550D01*
X119288348Y-88308478D01*
X119413305Y-88183303D01*
X119454482Y-88116502D01*
X119502275Y-88038968D01*
X119502276Y-88038966D01*
X119506115Y-88032738D01*
X119537619Y-87937757D01*
X119559632Y-87871389D01*
X119559632Y-87871387D01*
X119561797Y-87864861D01*
X119562873Y-87854365D01*
X119566909Y-87814969D01*
X119572500Y-87760400D01*
X119572500Y-86959600D01*
X119570954Y-86944700D01*
X119562238Y-86860692D01*
X119562237Y-86860688D01*
X119561526Y-86853834D01*
X119505550Y-86686054D01*
X119412478Y-86535652D01*
X119325891Y-86449216D01*
X119291812Y-86386934D01*
X119296815Y-86316114D01*
X119325736Y-86271025D01*
X119408134Y-86188483D01*
X119413305Y-86183303D01*
X119495508Y-86049946D01*
X119502275Y-86038968D01*
X119502276Y-86038966D01*
X119506115Y-86032738D01*
X119561797Y-85864861D01*
X119572500Y-85760400D01*
X119572500Y-84959600D01*
X119569855Y-84934109D01*
X119562238Y-84860692D01*
X119562237Y-84860688D01*
X119561526Y-84853834D01*
X119556960Y-84840146D01*
X119511911Y-84705120D01*
X119505550Y-84686054D01*
X119412478Y-84535652D01*
X119287303Y-84410695D01*
X119246358Y-84385456D01*
X119142968Y-84321725D01*
X119142966Y-84321724D01*
X119136738Y-84317885D01*
X119037592Y-84285000D01*
X119034867Y-84284096D01*
X121984000Y-84284096D01*
X121984337Y-84290611D01*
X121994256Y-84386203D01*
X121997150Y-84399602D01*
X122048588Y-84553783D01*
X122054762Y-84566962D01*
X122140063Y-84704807D01*
X122149099Y-84716208D01*
X122263830Y-84830739D01*
X122275241Y-84839751D01*
X122413245Y-84924818D01*
X122426423Y-84930962D01*
X122580716Y-84982139D01*
X122594081Y-84985005D01*
X122688439Y-84994672D01*
X122694855Y-84995000D01*
X122969885Y-84995000D01*
X122985124Y-84990525D01*
X122986329Y-84989135D01*
X122988000Y-84981452D01*
X122988000Y-84976885D01*
X123496000Y-84976885D01*
X123500475Y-84992124D01*
X123501865Y-84993329D01*
X123509548Y-84995000D01*
X123789096Y-84995000D01*
X123795611Y-84994663D01*
X123891203Y-84984744D01*
X123904602Y-84981850D01*
X124058783Y-84930412D01*
X124071962Y-84924238D01*
X124209807Y-84838937D01*
X124221208Y-84829901D01*
X124335739Y-84715170D01*
X124344751Y-84703759D01*
X124429818Y-84565755D01*
X124435962Y-84552577D01*
X124487139Y-84398284D01*
X124490005Y-84384919D01*
X124499672Y-84290561D01*
X124500000Y-84284145D01*
X124500000Y-83584115D01*
X124495525Y-83568876D01*
X124494135Y-83567671D01*
X124486452Y-83566000D01*
X123514115Y-83566000D01*
X123498876Y-83570475D01*
X123497671Y-83571865D01*
X123496000Y-83579548D01*
X123496000Y-84976885D01*
X122988000Y-84976885D01*
X122988000Y-83584115D01*
X122983525Y-83568876D01*
X122982135Y-83567671D01*
X122974452Y-83566000D01*
X122002115Y-83566000D01*
X121986876Y-83570475D01*
X121985671Y-83571865D01*
X121984000Y-83579548D01*
X121984000Y-84284096D01*
X119034867Y-84284096D01*
X118975389Y-84264368D01*
X118975387Y-84264368D01*
X118968861Y-84262203D01*
X118962025Y-84261503D01*
X118962022Y-84261502D01*
X118918675Y-84257061D01*
X118864400Y-84251500D01*
X117863600Y-84251500D01*
X117860354Y-84251837D01*
X117860350Y-84251837D01*
X117764692Y-84261762D01*
X117764688Y-84261763D01*
X117757834Y-84262474D01*
X117751298Y-84264655D01*
X117751296Y-84264655D01*
X117683122Y-84287400D01*
X117590054Y-84318450D01*
X117439652Y-84411522D01*
X117314695Y-84536697D01*
X117310855Y-84542927D01*
X117310854Y-84542928D01*
X117226670Y-84679500D01*
X117221885Y-84687262D01*
X117188556Y-84787749D01*
X117182251Y-84806757D01*
X117147398Y-84859464D01*
X117145729Y-84860611D01*
X117140676Y-84866282D01*
X117140674Y-84866284D01*
X117107240Y-84903810D01*
X117102260Y-84909086D01*
X116757061Y-85254286D01*
X116485596Y-85525751D01*
X116423283Y-85559776D01*
X116352468Y-85554712D01*
X116295632Y-85512165D01*
X116270821Y-85445645D01*
X116270500Y-85436656D01*
X116270500Y-85154344D01*
X116290502Y-85086223D01*
X116307405Y-85065249D01*
X119161249Y-82211405D01*
X119223561Y-82177379D01*
X119250344Y-82174500D01*
X121861043Y-82174500D01*
X121929164Y-82194502D01*
X121975657Y-82248158D01*
X121986387Y-82313343D01*
X121984328Y-82333441D01*
X121984000Y-82339856D01*
X121984000Y-83039885D01*
X121988475Y-83055124D01*
X121989865Y-83056329D01*
X121997548Y-83058000D01*
X124481885Y-83058000D01*
X124497124Y-83053525D01*
X124498329Y-83052135D01*
X124500000Y-83044452D01*
X124500000Y-82339904D01*
X124499663Y-82333382D01*
X124497600Y-82313502D01*
X124510465Y-82243681D01*
X124559037Y-82191900D01*
X124622927Y-82174500D01*
X125110539Y-82174500D01*
X125178660Y-82194502D01*
X125225153Y-82248158D01*
X125235883Y-82313343D01*
X125233500Y-82336600D01*
X125233500Y-84287400D01*
X125233837Y-84290646D01*
X125233837Y-84290650D01*
X125243752Y-84386203D01*
X125244474Y-84393165D01*
X125246655Y-84399701D01*
X125246655Y-84399703D01*
X125290286Y-84530479D01*
X125300450Y-84560945D01*
X125393522Y-84711348D01*
X125518697Y-84836305D01*
X125524927Y-84840145D01*
X125524928Y-84840146D01*
X125662090Y-84924694D01*
X125669262Y-84929115D01*
X125705984Y-84941295D01*
X125830611Y-84982632D01*
X125830613Y-84982632D01*
X125837139Y-84984797D01*
X125843975Y-84985497D01*
X125843978Y-84985498D01*
X125887031Y-84989909D01*
X125941600Y-84995500D01*
X127042400Y-84995500D01*
X127045646Y-84995163D01*
X127045650Y-84995163D01*
X127141307Y-84985238D01*
X127141311Y-84985237D01*
X127148165Y-84984526D01*
X127154701Y-84982345D01*
X127154703Y-84982345D01*
X127304450Y-84932385D01*
X127315945Y-84928550D01*
X127466348Y-84835478D01*
X127591305Y-84710303D01*
X127595645Y-84703262D01*
X127680275Y-84565968D01*
X127680276Y-84565966D01*
X127684115Y-84559738D01*
X127737196Y-84399703D01*
X127737632Y-84398389D01*
X127737632Y-84398387D01*
X127739797Y-84391861D01*
X127745105Y-84340057D01*
X127771947Y-84274330D01*
X127830062Y-84233548D01*
X127870449Y-84226900D01*
X128188077Y-84226900D01*
X128207786Y-84228451D01*
X128221854Y-84230679D01*
X128228442Y-84230334D01*
X128228446Y-84230334D01*
X128290662Y-84227073D01*
X128297256Y-84226900D01*
X128317952Y-84226900D01*
X128338536Y-84224737D01*
X128345106Y-84224220D01*
X128350924Y-84223915D01*
X128407316Y-84220960D01*
X128407320Y-84220959D01*
X128413910Y-84220614D01*
X128420284Y-84218906D01*
X128420285Y-84218906D01*
X128423591Y-84218020D01*
X128427664Y-84216929D01*
X128447109Y-84213325D01*
X128461266Y-84211837D01*
X128526803Y-84190543D01*
X128533104Y-84188676D01*
X128556874Y-84182307D01*
X128593300Y-84172547D01*
X128593303Y-84172546D01*
X128599677Y-84170838D01*
X128605558Y-84167841D01*
X128605564Y-84167839D01*
X128612364Y-84164374D01*
X128630633Y-84156807D01*
X128637888Y-84154450D01*
X128637896Y-84154446D01*
X128644173Y-84152407D01*
X128703857Y-84117948D01*
X128709642Y-84114807D01*
X128771035Y-84083526D01*
X128776163Y-84079374D01*
X128776167Y-84079371D01*
X128782100Y-84074566D01*
X128798394Y-84063368D01*
X128805009Y-84059549D01*
X128805013Y-84059546D01*
X128810727Y-84056247D01*
X128861944Y-84010131D01*
X128866945Y-84005861D01*
X128883025Y-83992839D01*
X128897649Y-83978215D01*
X128902434Y-83973674D01*
X128948738Y-83931982D01*
X128948739Y-83931981D01*
X128953649Y-83927560D01*
X128962025Y-83916032D01*
X128974864Y-83901000D01*
X129196905Y-83678959D01*
X129259217Y-83644933D01*
X129330032Y-83649998D01*
X129375095Y-83678959D01*
X130366195Y-84670059D01*
X130400221Y-84732371D01*
X130403100Y-84759154D01*
X130403100Y-88454902D01*
X130383098Y-88523023D01*
X130329442Y-88569516D01*
X130321329Y-88572884D01*
X130229705Y-88607232D01*
X130229704Y-88607233D01*
X130221295Y-88610385D01*
X130104739Y-88697739D01*
X130017385Y-88814295D01*
X129966255Y-88950684D01*
X129959500Y-89012866D01*
X129959500Y-90809134D01*
X129966255Y-90871316D01*
X130017385Y-91007705D01*
X130104739Y-91124261D01*
X130221295Y-91211615D01*
X130229704Y-91214767D01*
X130229705Y-91214768D01*
X130338960Y-91255726D01*
X130395725Y-91298367D01*
X130420425Y-91364929D01*
X130405218Y-91434278D01*
X130385825Y-91460759D01*
X130262590Y-91589717D01*
X130256104Y-91597727D01*
X130136098Y-91773649D01*
X130131000Y-91782623D01*
X130041338Y-91975783D01*
X130037775Y-91985470D01*
X129982389Y-92185183D01*
X129983912Y-92193607D01*
X129996292Y-92197000D01*
X132636344Y-92197000D01*
X132649875Y-92193027D01*
X132651180Y-92183947D01*
X132609214Y-92016875D01*
X132605894Y-92007124D01*
X132520972Y-91811814D01*
X132516105Y-91802739D01*
X132400426Y-91623926D01*
X132394136Y-91615757D01*
X132250293Y-91457677D01*
X132219241Y-91393831D01*
X132227635Y-91323333D01*
X132272812Y-91268564D01*
X132299256Y-91254895D01*
X132406297Y-91214767D01*
X132414705Y-91211615D01*
X132531261Y-91124261D01*
X132618615Y-91007705D01*
X132669745Y-90871316D01*
X132676500Y-90809134D01*
X132676500Y-90753700D01*
X132696502Y-90685579D01*
X132750158Y-90639086D01*
X132802500Y-90627700D01*
X133160346Y-90627700D01*
X133228467Y-90647702D01*
X133267490Y-90687397D01*
X133292522Y-90727848D01*
X133417697Y-90852805D01*
X133422235Y-90855602D01*
X133462824Y-90912853D01*
X133466054Y-90983776D01*
X133430428Y-91045187D01*
X133421932Y-91052562D01*
X133411793Y-91060598D01*
X133297261Y-91175329D01*
X133288249Y-91186740D01*
X133203184Y-91324743D01*
X133197037Y-91337924D01*
X133145862Y-91492210D01*
X133142995Y-91505586D01*
X133133328Y-91599938D01*
X133133000Y-91606355D01*
X133133000Y-91718885D01*
X133137475Y-91734124D01*
X133138865Y-91735329D01*
X133146548Y-91737000D01*
X135580884Y-91737000D01*
X135596123Y-91732525D01*
X135597328Y-91731135D01*
X135598999Y-91723452D01*
X135598999Y-91606405D01*
X135598662Y-91599886D01*
X135588743Y-91504294D01*
X135585851Y-91490900D01*
X135534412Y-91336716D01*
X135528239Y-91323538D01*
X135442937Y-91185693D01*
X135433901Y-91174292D01*
X135319172Y-91059762D01*
X135310238Y-91052706D01*
X135269177Y-90994788D01*
X135265947Y-90923865D01*
X135301574Y-90862454D01*
X135309407Y-90855654D01*
X135315348Y-90851978D01*
X135440305Y-90726803D01*
X135444146Y-90720572D01*
X135529275Y-90582468D01*
X135529276Y-90582466D01*
X135533115Y-90576238D01*
X135562202Y-90488543D01*
X135586632Y-90414889D01*
X135586632Y-90414887D01*
X135588797Y-90408361D01*
X135591944Y-90377652D01*
X135593909Y-90358469D01*
X135599500Y-90303900D01*
X135599500Y-89528100D01*
X135598242Y-89515978D01*
X135589238Y-89429192D01*
X135589237Y-89429188D01*
X135588526Y-89422334D01*
X135583382Y-89406914D01*
X135534868Y-89261502D01*
X135532550Y-89254554D01*
X135439478Y-89104152D01*
X135314303Y-88979195D01*
X135268050Y-88950684D01*
X135169968Y-88890225D01*
X135169966Y-88890224D01*
X135163738Y-88886385D01*
X135003254Y-88833155D01*
X135002389Y-88832868D01*
X135002387Y-88832868D01*
X134995861Y-88830703D01*
X134989025Y-88830003D01*
X134989022Y-88830002D01*
X134945969Y-88825591D01*
X134891400Y-88820000D01*
X133840600Y-88820000D01*
X133837354Y-88820337D01*
X133837350Y-88820337D01*
X133741692Y-88830262D01*
X133741688Y-88830263D01*
X133734834Y-88830974D01*
X133728298Y-88833155D01*
X133728296Y-88833155D01*
X133690275Y-88845840D01*
X133567054Y-88886950D01*
X133416652Y-88980022D01*
X133291695Y-89105197D01*
X133287855Y-89111427D01*
X133287854Y-89111428D01*
X133267520Y-89144416D01*
X133214748Y-89191909D01*
X133160260Y-89204300D01*
X132802500Y-89204300D01*
X132734379Y-89184298D01*
X132687886Y-89130642D01*
X132676500Y-89078300D01*
X132676500Y-89012866D01*
X132669745Y-88950684D01*
X132618615Y-88814295D01*
X132531261Y-88697739D01*
X132414705Y-88610385D01*
X132406296Y-88607233D01*
X132406295Y-88607232D01*
X132314671Y-88572884D01*
X132257906Y-88530243D01*
X132233206Y-88463681D01*
X132232900Y-88454902D01*
X132232900Y-85368900D01*
X132252902Y-85300779D01*
X132306558Y-85254286D01*
X132358900Y-85242900D01*
X134030077Y-85242900D01*
X134049786Y-85244451D01*
X134063854Y-85246679D01*
X134070442Y-85246334D01*
X134070446Y-85246334D01*
X134132662Y-85243073D01*
X134139256Y-85242900D01*
X134159952Y-85242900D01*
X134180536Y-85240737D01*
X134187106Y-85240220D01*
X134192924Y-85239915D01*
X134249316Y-85236960D01*
X134249320Y-85236959D01*
X134255910Y-85236614D01*
X134262284Y-85234906D01*
X134262285Y-85234906D01*
X134265591Y-85234020D01*
X134269664Y-85232929D01*
X134289109Y-85229325D01*
X134303266Y-85227837D01*
X134368803Y-85206543D01*
X134375104Y-85204676D01*
X134398874Y-85198307D01*
X134435300Y-85188547D01*
X134435303Y-85188546D01*
X134441677Y-85186838D01*
X134447558Y-85183841D01*
X134447564Y-85183839D01*
X134454364Y-85180374D01*
X134472633Y-85172807D01*
X134479888Y-85170450D01*
X134479896Y-85170446D01*
X134486173Y-85168407D01*
X134502995Y-85158695D01*
X134545857Y-85133948D01*
X134551642Y-85130807D01*
X134613035Y-85099526D01*
X134614784Y-85098110D01*
X134670644Y-85078877D01*
X134775248Y-85069725D01*
X134839371Y-85064115D01*
X135052076Y-85007120D01*
X135251654Y-84914056D01*
X135432038Y-84787749D01*
X135587749Y-84632038D01*
X135638942Y-84558928D01*
X135710899Y-84456162D01*
X135710900Y-84456160D01*
X135714056Y-84451653D01*
X135716379Y-84446671D01*
X135716382Y-84446666D01*
X135787581Y-84293977D01*
X135807120Y-84252076D01*
X135864115Y-84039371D01*
X135883307Y-83820000D01*
X135864115Y-83600629D01*
X135807120Y-83387924D01*
X135763585Y-83294562D01*
X135716382Y-83193334D01*
X135716379Y-83193329D01*
X135714056Y-83188347D01*
X135621616Y-83056329D01*
X135590908Y-83012473D01*
X135590906Y-83012470D01*
X135587749Y-83007962D01*
X135432038Y-82852251D01*
X135251654Y-82725944D01*
X135052076Y-82632880D01*
X134839371Y-82575885D01*
X134704225Y-82564062D01*
X134638108Y-82538199D01*
X134596468Y-82480695D01*
X134592527Y-82409808D01*
X134607947Y-82372425D01*
X134629316Y-82337757D01*
X134635463Y-82324576D01*
X134686638Y-82170290D01*
X134689505Y-82156914D01*
X134699172Y-82062562D01*
X134699500Y-82056146D01*
X134699500Y-81806115D01*
X134695025Y-81790876D01*
X134693635Y-81789671D01*
X134685952Y-81788000D01*
X133876115Y-81788000D01*
X133860876Y-81792475D01*
X133859671Y-81793865D01*
X133858000Y-81801548D01*
X133858000Y-82752135D01*
X133837998Y-82820256D01*
X133812996Y-82848653D01*
X133812470Y-82849095D01*
X133807962Y-82852251D01*
X133652251Y-83007962D01*
X133649094Y-83012470D01*
X133649092Y-83012473D01*
X133618384Y-83056329D01*
X133525944Y-83188347D01*
X133523621Y-83193329D01*
X133523618Y-83193334D01*
X133455064Y-83340350D01*
X133408147Y-83393635D01*
X133340869Y-83413100D01*
X131749154Y-83413100D01*
X131681033Y-83393098D01*
X131660059Y-83376195D01*
X131266459Y-82982595D01*
X131232433Y-82920283D01*
X131237498Y-82849468D01*
X131280045Y-82792632D01*
X131346565Y-82767821D01*
X131355554Y-82767500D01*
X131916900Y-82767500D01*
X131920146Y-82767163D01*
X131920150Y-82767163D01*
X132015808Y-82757238D01*
X132015812Y-82757237D01*
X132022666Y-82756526D01*
X132029202Y-82754345D01*
X132029204Y-82754345D01*
X132183498Y-82702868D01*
X132190446Y-82700550D01*
X132340848Y-82607478D01*
X132465805Y-82482303D01*
X132468602Y-82477765D01*
X132525853Y-82437176D01*
X132596776Y-82433946D01*
X132658187Y-82469572D01*
X132665562Y-82478068D01*
X132673598Y-82488207D01*
X132788329Y-82602739D01*
X132799740Y-82611751D01*
X132937743Y-82696816D01*
X132950924Y-82702963D01*
X133105210Y-82754138D01*
X133118586Y-82757005D01*
X133212938Y-82766672D01*
X133219354Y-82767000D01*
X133331885Y-82767000D01*
X133347124Y-82762525D01*
X133348329Y-82761135D01*
X133350000Y-82753452D01*
X133350000Y-81261885D01*
X133858000Y-81261885D01*
X133862475Y-81277124D01*
X133863865Y-81278329D01*
X133871548Y-81280000D01*
X134681384Y-81280000D01*
X134696623Y-81275525D01*
X134697828Y-81274135D01*
X134699499Y-81266452D01*
X134699499Y-81011905D01*
X134699162Y-81005386D01*
X134689243Y-80909794D01*
X134686351Y-80896400D01*
X134634912Y-80742216D01*
X134628739Y-80729038D01*
X134543437Y-80591193D01*
X134534401Y-80579792D01*
X134419671Y-80465261D01*
X134408260Y-80456249D01*
X134270257Y-80371184D01*
X134257076Y-80365037D01*
X134102790Y-80313862D01*
X134089414Y-80310995D01*
X133995062Y-80301328D01*
X133988645Y-80301000D01*
X133876115Y-80301000D01*
X133860876Y-80305475D01*
X133859671Y-80306865D01*
X133858000Y-80314548D01*
X133858000Y-81261885D01*
X133350000Y-81261885D01*
X133350000Y-80319116D01*
X133345525Y-80303877D01*
X133344135Y-80302672D01*
X133336452Y-80301001D01*
X133219405Y-80301001D01*
X133212886Y-80301338D01*
X133117294Y-80311257D01*
X133103900Y-80314149D01*
X132949716Y-80365588D01*
X132936538Y-80371761D01*
X132798693Y-80457063D01*
X132787292Y-80466099D01*
X132672762Y-80580828D01*
X132665706Y-80589762D01*
X132607788Y-80630823D01*
X132536865Y-80634053D01*
X132475454Y-80598426D01*
X132468654Y-80590593D01*
X132464978Y-80584652D01*
X132339803Y-80459695D01*
X132333572Y-80455854D01*
X132195468Y-80370725D01*
X132195466Y-80370724D01*
X132189238Y-80366885D01*
X132109495Y-80340436D01*
X132027889Y-80313368D01*
X132027887Y-80313368D01*
X132021361Y-80311203D01*
X132014525Y-80310503D01*
X132014522Y-80310502D01*
X131971469Y-80306091D01*
X131916900Y-80300500D01*
X131141100Y-80300500D01*
X131137854Y-80300837D01*
X131137850Y-80300837D01*
X131042192Y-80310762D01*
X131042188Y-80310763D01*
X131035334Y-80311474D01*
X131028798Y-80313655D01*
X131028796Y-80313655D01*
X131012428Y-80319116D01*
X130867554Y-80367450D01*
X130717152Y-80460522D01*
X130592195Y-80585697D01*
X130588355Y-80591927D01*
X130588354Y-80591928D01*
X130552025Y-80650865D01*
X130499385Y-80736262D01*
X130497080Y-80743213D01*
X130494126Y-80749547D01*
X130447210Y-80802833D01*
X130379930Y-80822300D01*
X130077030Y-80822300D01*
X130068460Y-80822008D01*
X130018054Y-80818571D01*
X130018050Y-80818571D01*
X130010479Y-80818055D01*
X130003003Y-80819360D01*
X130003000Y-80819360D01*
X129947217Y-80829096D01*
X129940692Y-80830059D01*
X129884533Y-80836855D01*
X129884532Y-80836855D01*
X129876989Y-80837768D01*
X129869881Y-80840454D01*
X129867581Y-80841019D01*
X129850520Y-80845686D01*
X129848266Y-80846367D01*
X129840785Y-80847672D01*
X129833833Y-80850724D01*
X129833829Y-80850725D01*
X129782003Y-80873476D01*
X129775899Y-80875967D01*
X129715851Y-80898657D01*
X129709595Y-80902957D01*
X129707511Y-80904046D01*
X129692048Y-80912653D01*
X129690012Y-80913857D01*
X129683055Y-80916911D01*
X129632104Y-80956007D01*
X129626796Y-80959863D01*
X129580149Y-80991921D01*
X129580144Y-80991926D01*
X129573888Y-80996225D01*
X129568836Y-81001895D01*
X129568835Y-81001896D01*
X129532245Y-81042964D01*
X129527264Y-81048240D01*
X129518779Y-81056725D01*
X129456467Y-81090751D01*
X129385652Y-81085686D01*
X129340589Y-81056725D01*
X128820405Y-80536541D01*
X128786379Y-80474229D01*
X128783500Y-80447446D01*
X128783500Y-72387885D01*
X129094000Y-72387885D01*
X129098475Y-72403124D01*
X129099865Y-72404329D01*
X129107548Y-72406000D01*
X130029885Y-72406000D01*
X130045124Y-72401525D01*
X130046329Y-72400135D01*
X130048000Y-72392452D01*
X130048000Y-72387885D01*
X130556000Y-72387885D01*
X130560475Y-72403124D01*
X130561865Y-72404329D01*
X130569548Y-72406000D01*
X131491884Y-72406000D01*
X131507123Y-72401525D01*
X131508328Y-72400135D01*
X131509999Y-72392452D01*
X131509999Y-72262905D01*
X131509662Y-72256386D01*
X131499743Y-72160794D01*
X131496851Y-72147400D01*
X131445412Y-71993216D01*
X131439239Y-71980038D01*
X131353937Y-71842193D01*
X131344901Y-71830792D01*
X131230171Y-71716261D01*
X131218760Y-71707249D01*
X131080757Y-71622184D01*
X131067576Y-71616037D01*
X130913290Y-71564862D01*
X130899914Y-71561995D01*
X130805562Y-71552328D01*
X130799145Y-71552000D01*
X130574115Y-71552000D01*
X130558876Y-71556475D01*
X130557671Y-71557865D01*
X130556000Y-71565548D01*
X130556000Y-72387885D01*
X130048000Y-72387885D01*
X130048000Y-71570116D01*
X130043525Y-71554877D01*
X130042135Y-71553672D01*
X130034452Y-71552001D01*
X129804905Y-71552001D01*
X129798386Y-71552338D01*
X129702794Y-71562257D01*
X129689400Y-71565149D01*
X129535216Y-71616588D01*
X129522038Y-71622761D01*
X129384193Y-71708063D01*
X129372792Y-71717099D01*
X129258261Y-71831829D01*
X129249249Y-71843240D01*
X129164184Y-71981243D01*
X129158037Y-71994424D01*
X129106862Y-72148710D01*
X129103995Y-72162086D01*
X129094328Y-72256438D01*
X129094000Y-72262855D01*
X129094000Y-72387885D01*
X128783500Y-72387885D01*
X128783500Y-62536190D01*
X128781807Y-62504600D01*
X128780650Y-62483001D01*
X128780649Y-62482991D01*
X128780559Y-62481308D01*
X128777680Y-62454525D01*
X128777410Y-62452857D01*
X128769875Y-62406360D01*
X128769874Y-62406355D01*
X128768884Y-62400248D01*
X128761169Y-62379562D01*
X128719378Y-62267521D01*
X128719377Y-62267519D01*
X128717806Y-62263307D01*
X128710847Y-62250562D01*
X128685936Y-62204943D01*
X128685935Y-62204941D01*
X128683780Y-62200995D01*
X128639158Y-62141388D01*
X128598891Y-62087598D01*
X128598887Y-62087594D01*
X128596194Y-62083996D01*
X124606004Y-58093806D01*
X124600326Y-58088705D01*
X124566366Y-58058200D01*
X124565123Y-58057083D01*
X124544149Y-58040180D01*
X124538306Y-58035966D01*
X124504570Y-58011638D01*
X124504565Y-58011635D01*
X124499549Y-58008018D01*
X124366600Y-57947302D01*
X124342846Y-57940327D01*
X124302802Y-57928569D01*
X124302798Y-57928568D01*
X124298479Y-57927300D01*
X124294030Y-57926660D01*
X124294024Y-57926659D01*
X124158257Y-57907139D01*
X124158252Y-57907139D01*
X124153810Y-57906500D01*
X114553000Y-57906500D01*
X114549654Y-57906860D01*
X114549649Y-57906860D01*
X114447215Y-57917872D01*
X114447208Y-57917873D01*
X114443851Y-57918234D01*
X114440551Y-57918952D01*
X114440550Y-57918952D01*
X114394790Y-57928906D01*
X114394785Y-57928907D01*
X114391509Y-57929620D01*
X114287343Y-57964290D01*
X114164388Y-58043308D01*
X114160993Y-58046250D01*
X114160990Y-58046252D01*
X114154822Y-58051597D01*
X114090242Y-58081090D01*
X114019968Y-58070987D01*
X113966312Y-58024495D01*
X113952785Y-57996249D01*
X113919412Y-57896216D01*
X113913239Y-57883038D01*
X113827937Y-57745193D01*
X113818901Y-57733792D01*
X113704171Y-57619261D01*
X113692760Y-57610249D01*
X113554757Y-57525184D01*
X113541576Y-57519037D01*
X113387290Y-57467862D01*
X113373914Y-57464995D01*
X113279562Y-57455328D01*
X113273145Y-57455000D01*
X113048115Y-57455000D01*
X113032876Y-57459475D01*
X113031671Y-57460865D01*
X113030000Y-57468548D01*
X113030000Y-58691000D01*
X113009998Y-58759121D01*
X112956342Y-58805614D01*
X112904000Y-58817000D01*
X111586116Y-58817000D01*
X111570877Y-58821475D01*
X111569672Y-58822865D01*
X111568001Y-58830548D01*
X111568001Y-58960095D01*
X111568338Y-58966614D01*
X111578257Y-59062206D01*
X111581149Y-59075600D01*
X111632588Y-59229784D01*
X111638761Y-59242962D01*
X111724063Y-59380807D01*
X111733099Y-59392208D01*
X111814462Y-59473430D01*
X111848541Y-59535713D01*
X111843538Y-59606533D01*
X111814617Y-59651620D01*
X111731870Y-59734512D01*
X111731866Y-59734517D01*
X111726695Y-59739697D01*
X111722855Y-59745927D01*
X111722854Y-59745928D01*
X111661680Y-59845171D01*
X111633885Y-59890262D01*
X111578203Y-60058139D01*
X111577503Y-60064975D01*
X111577502Y-60064978D01*
X111574769Y-60091650D01*
X111567500Y-60162600D01*
X111567500Y-60963400D01*
X111567837Y-60966646D01*
X111567837Y-60966650D01*
X111576864Y-61053646D01*
X111578474Y-61069166D01*
X111634450Y-61236946D01*
X111727522Y-61387348D01*
X111732704Y-61392521D01*
X111782609Y-61442339D01*
X111816688Y-61504621D01*
X111811685Y-61575442D01*
X111782764Y-61620530D01*
X111726695Y-61676697D01*
X111722855Y-61682927D01*
X111722854Y-61682928D01*
X111652355Y-61797299D01*
X111633885Y-61827262D01*
X111578203Y-61995139D01*
X111567500Y-62099600D01*
X111567500Y-62721655D01*
X111547498Y-62789776D01*
X111530596Y-62810750D01*
X110803954Y-63537393D01*
X110797688Y-63543246D01*
X110757248Y-63578524D01*
X110723109Y-63627099D01*
X110719177Y-63632393D01*
X110682537Y-63679121D01*
X110679411Y-63686045D01*
X110675698Y-63692176D01*
X110673062Y-63696796D01*
X110669640Y-63703178D01*
X110665269Y-63709397D01*
X110662509Y-63716476D01*
X110643702Y-63764713D01*
X110641146Y-63770792D01*
X110616711Y-63824912D01*
X110615325Y-63832388D01*
X110613170Y-63839266D01*
X110611710Y-63844391D01*
X110609922Y-63851355D01*
X110607162Y-63858434D01*
X110606170Y-63865966D01*
X110606170Y-63865968D01*
X110599414Y-63917292D01*
X110598384Y-63923798D01*
X110587560Y-63982197D01*
X110587997Y-63989777D01*
X110587997Y-63989778D01*
X110590891Y-64039967D01*
X110591100Y-64047220D01*
X110591100Y-65885737D01*
X110590808Y-65894308D01*
X110587158Y-65947843D01*
X110588463Y-65955320D01*
X110588463Y-65955321D01*
X110597368Y-66006343D01*
X110598330Y-66012865D01*
X110605463Y-66071805D01*
X110608149Y-66078913D01*
X110609860Y-66085879D01*
X110611279Y-66091068D01*
X110613356Y-66097947D01*
X110614661Y-66105424D01*
X110638529Y-66159795D01*
X110641012Y-66165881D01*
X110662006Y-66221441D01*
X110666309Y-66227702D01*
X110669615Y-66234026D01*
X110672271Y-66238798D01*
X110675906Y-66244944D01*
X110678958Y-66251896D01*
X110683580Y-66257919D01*
X110715102Y-66299001D01*
X110718973Y-66304328D01*
X110752611Y-66353271D01*
X110758287Y-66358328D01*
X110795819Y-66391768D01*
X110801095Y-66396749D01*
X111121595Y-66717249D01*
X111155621Y-66779561D01*
X111158500Y-66806344D01*
X111158500Y-67964134D01*
X111165255Y-68026316D01*
X111216385Y-68162705D01*
X111303739Y-68279261D01*
X111420295Y-68366615D01*
X111556684Y-68417745D01*
X111618866Y-68424500D01*
X113787500Y-68424500D01*
X113855621Y-68444502D01*
X113902114Y-68498158D01*
X113913500Y-68550500D01*
X113913500Y-70641500D01*
X113893498Y-70709621D01*
X113839842Y-70756114D01*
X113787500Y-70767500D01*
X111618866Y-70767500D01*
X111556684Y-70774255D01*
X111420295Y-70825385D01*
X111413119Y-70830763D01*
X111413112Y-70830767D01*
X111408364Y-70834326D01*
X111341857Y-70859174D01*
X111332799Y-70859500D01*
X107489238Y-70859500D01*
X107421117Y-70839498D01*
X107400143Y-70822595D01*
X106395405Y-69817857D01*
X106361379Y-69755545D01*
X106358500Y-69728762D01*
X106358500Y-67161866D01*
X106351745Y-67099684D01*
X106300615Y-66963295D01*
X106213261Y-66846739D01*
X106096705Y-66759385D01*
X105960316Y-66708255D01*
X105898134Y-66701500D01*
X105547300Y-66701500D01*
X105479179Y-66681498D01*
X105432686Y-66627842D01*
X105421300Y-66575500D01*
X105421300Y-62661300D01*
X105441302Y-62593179D01*
X105494958Y-62546686D01*
X105547300Y-62535300D01*
X105949131Y-62535300D01*
X106017252Y-62555302D01*
X106056272Y-62594993D01*
X106103522Y-62671348D01*
X106108704Y-62676521D01*
X106108708Y-62676526D01*
X106144609Y-62712365D01*
X106178688Y-62774647D01*
X106173685Y-62845467D01*
X106144764Y-62890554D01*
X106102695Y-62932697D01*
X106098855Y-62938927D01*
X106098854Y-62938928D01*
X106039306Y-63035533D01*
X106009885Y-63083262D01*
X106007581Y-63090209D01*
X105960455Y-63232291D01*
X105954203Y-63251139D01*
X105943500Y-63355600D01*
X105943500Y-64406400D01*
X105943837Y-64409646D01*
X105943837Y-64409650D01*
X105953700Y-64504704D01*
X105954474Y-64512166D01*
X106010450Y-64679946D01*
X106103522Y-64830348D01*
X106228697Y-64955305D01*
X106234927Y-64959145D01*
X106234928Y-64959146D01*
X106372288Y-65043816D01*
X106379262Y-65048115D01*
X106426054Y-65063635D01*
X106540611Y-65101632D01*
X106540613Y-65101632D01*
X106547139Y-65103797D01*
X106553975Y-65104497D01*
X106553978Y-65104498D01*
X106597031Y-65108909D01*
X106651600Y-65114500D01*
X107427400Y-65114500D01*
X107430646Y-65114163D01*
X107430650Y-65114163D01*
X107526308Y-65104238D01*
X107526312Y-65104237D01*
X107533166Y-65103526D01*
X107539702Y-65101345D01*
X107539704Y-65101345D01*
X107690605Y-65051000D01*
X107700946Y-65047550D01*
X107851348Y-64954478D01*
X107976305Y-64829303D01*
X107979102Y-64824765D01*
X108036353Y-64784176D01*
X108107276Y-64780946D01*
X108168687Y-64816572D01*
X108176062Y-64825068D01*
X108184098Y-64835207D01*
X108298829Y-64949739D01*
X108310240Y-64958751D01*
X108448243Y-65043816D01*
X108461424Y-65049963D01*
X108615710Y-65101138D01*
X108629086Y-65104005D01*
X108723438Y-65113672D01*
X108729854Y-65114000D01*
X108842385Y-65114000D01*
X108857624Y-65109525D01*
X108858829Y-65108135D01*
X108860500Y-65100452D01*
X108860500Y-65095884D01*
X109368500Y-65095884D01*
X109372975Y-65111123D01*
X109374365Y-65112328D01*
X109382048Y-65113999D01*
X109499095Y-65113999D01*
X109505614Y-65113662D01*
X109601206Y-65103743D01*
X109614600Y-65100851D01*
X109768784Y-65049412D01*
X109781962Y-65043239D01*
X109919807Y-64957937D01*
X109931208Y-64948901D01*
X110045739Y-64834171D01*
X110054751Y-64822760D01*
X110139816Y-64684757D01*
X110145963Y-64671576D01*
X110197138Y-64517290D01*
X110200005Y-64503914D01*
X110209672Y-64409562D01*
X110210000Y-64403146D01*
X110210000Y-64153115D01*
X110205525Y-64137876D01*
X110204135Y-64136671D01*
X110196452Y-64135000D01*
X109386615Y-64135000D01*
X109371376Y-64139475D01*
X109370171Y-64140865D01*
X109368500Y-64148548D01*
X109368500Y-65095884D01*
X108860500Y-65095884D01*
X108860500Y-63608885D01*
X109368500Y-63608885D01*
X109372975Y-63624124D01*
X109374365Y-63625329D01*
X109382048Y-63627000D01*
X110191884Y-63627000D01*
X110207123Y-63622525D01*
X110208328Y-63621135D01*
X110209999Y-63613452D01*
X110209999Y-63358905D01*
X110209662Y-63352386D01*
X110199743Y-63256794D01*
X110196851Y-63243400D01*
X110145412Y-63089216D01*
X110139239Y-63076038D01*
X110053937Y-62938193D01*
X110044901Y-62926792D01*
X110008683Y-62890637D01*
X109974604Y-62828354D01*
X109979607Y-62757534D01*
X110008529Y-62712445D01*
X110045739Y-62675171D01*
X110054751Y-62663760D01*
X110139816Y-62525757D01*
X110145963Y-62512576D01*
X110197138Y-62358290D01*
X110200005Y-62344914D01*
X110209672Y-62250562D01*
X110210000Y-62244146D01*
X110210000Y-61994115D01*
X110205525Y-61978876D01*
X110204135Y-61977671D01*
X110196452Y-61976000D01*
X109386615Y-61976000D01*
X109371376Y-61980475D01*
X109370171Y-61981865D01*
X109368500Y-61989548D01*
X109368500Y-63608885D01*
X108860500Y-63608885D01*
X108860500Y-61449885D01*
X109368500Y-61449885D01*
X109372975Y-61465124D01*
X109374365Y-61466329D01*
X109382048Y-61468000D01*
X110191884Y-61468000D01*
X110207123Y-61463525D01*
X110208328Y-61462135D01*
X110209999Y-61454452D01*
X110209999Y-61199905D01*
X110209662Y-61193386D01*
X110199743Y-61097794D01*
X110196851Y-61084400D01*
X110145412Y-60930216D01*
X110139239Y-60917038D01*
X110053937Y-60779193D01*
X110044901Y-60767792D01*
X110008683Y-60731637D01*
X109974604Y-60669354D01*
X109979607Y-60598534D01*
X110008529Y-60553445D01*
X110045739Y-60516171D01*
X110054751Y-60504760D01*
X110139816Y-60366757D01*
X110145963Y-60353576D01*
X110197138Y-60199290D01*
X110200005Y-60185914D01*
X110209672Y-60091562D01*
X110210000Y-60085146D01*
X110210000Y-59835115D01*
X110205525Y-59819876D01*
X110204135Y-59818671D01*
X110196452Y-59817000D01*
X109386615Y-59817000D01*
X109371376Y-59821475D01*
X109370171Y-59822865D01*
X109368500Y-59830548D01*
X109368500Y-61449885D01*
X108860500Y-61449885D01*
X108860500Y-59290885D01*
X109368500Y-59290885D01*
X109372975Y-59306124D01*
X109374365Y-59307329D01*
X109382048Y-59309000D01*
X110191884Y-59309000D01*
X110207123Y-59304525D01*
X110208328Y-59303135D01*
X110209999Y-59295452D01*
X110209999Y-59040905D01*
X110209662Y-59034386D01*
X110199743Y-58938794D01*
X110196851Y-58925400D01*
X110145412Y-58771216D01*
X110139239Y-58758038D01*
X110053937Y-58620193D01*
X110044901Y-58608792D01*
X109930171Y-58494261D01*
X109918760Y-58485249D01*
X109780757Y-58400184D01*
X109767576Y-58394037D01*
X109613290Y-58342862D01*
X109599914Y-58339995D01*
X109505562Y-58330328D01*
X109499145Y-58330000D01*
X109386615Y-58330000D01*
X109371376Y-58334475D01*
X109370171Y-58335865D01*
X109368500Y-58343548D01*
X109368500Y-59290885D01*
X108860500Y-59290885D01*
X108860500Y-58348116D01*
X108856025Y-58332877D01*
X108854635Y-58331672D01*
X108846952Y-58330001D01*
X108729905Y-58330001D01*
X108723386Y-58330338D01*
X108627794Y-58340257D01*
X108614400Y-58343149D01*
X108460216Y-58394588D01*
X108447038Y-58400761D01*
X108309193Y-58486063D01*
X108297792Y-58495099D01*
X108183262Y-58609828D01*
X108176206Y-58618762D01*
X108118288Y-58659823D01*
X108047365Y-58663053D01*
X107985954Y-58627426D01*
X107979154Y-58619593D01*
X107975478Y-58613652D01*
X107850303Y-58488695D01*
X107745605Y-58424158D01*
X107705968Y-58399725D01*
X107705966Y-58399724D01*
X107699738Y-58395885D01*
X107562906Y-58350500D01*
X107538389Y-58342368D01*
X107538387Y-58342368D01*
X107531861Y-58340203D01*
X107525025Y-58339503D01*
X107525022Y-58339502D01*
X107481969Y-58335091D01*
X107427400Y-58329500D01*
X106651600Y-58329500D01*
X106648354Y-58329837D01*
X106648350Y-58329837D01*
X106552692Y-58339762D01*
X106552688Y-58339763D01*
X106545834Y-58340474D01*
X106539298Y-58342655D01*
X106539296Y-58342655D01*
X106482206Y-58361702D01*
X106378054Y-58396450D01*
X106227652Y-58489522D01*
X106102695Y-58614697D01*
X106098855Y-58620927D01*
X106098854Y-58620928D01*
X106085863Y-58642004D01*
X106009885Y-58765262D01*
X105999144Y-58797646D01*
X105975945Y-58867590D01*
X105954203Y-58933139D01*
X105943500Y-59037600D01*
X105943500Y-60088400D01*
X105943837Y-60091646D01*
X105943837Y-60091650D01*
X105953618Y-60185914D01*
X105954474Y-60194166D01*
X105956655Y-60200702D01*
X105956655Y-60200704D01*
X105996090Y-60318905D01*
X106010450Y-60361946D01*
X106103522Y-60512348D01*
X106108704Y-60517521D01*
X106108708Y-60517526D01*
X106144609Y-60553365D01*
X106178688Y-60615647D01*
X106173685Y-60686467D01*
X106144764Y-60731554D01*
X106102695Y-60773697D01*
X106098855Y-60779927D01*
X106098854Y-60779928D01*
X106056391Y-60848816D01*
X106003619Y-60896309D01*
X105949131Y-60908700D01*
X104739491Y-60908700D01*
X104671370Y-60888698D01*
X104650396Y-60871795D01*
X102069486Y-58290885D01*
X111568000Y-58290885D01*
X111572475Y-58306124D01*
X111573865Y-58307329D01*
X111581548Y-58309000D01*
X112503885Y-58309000D01*
X112519124Y-58304525D01*
X112520329Y-58303135D01*
X112522000Y-58295452D01*
X112522000Y-57473116D01*
X112517525Y-57457877D01*
X112516135Y-57456672D01*
X112508452Y-57455001D01*
X112278905Y-57455001D01*
X112272386Y-57455338D01*
X112176794Y-57465257D01*
X112163400Y-57468149D01*
X112009216Y-57519588D01*
X111996038Y-57525761D01*
X111858193Y-57611063D01*
X111846792Y-57620099D01*
X111732261Y-57734829D01*
X111723249Y-57746240D01*
X111638184Y-57884243D01*
X111632037Y-57897424D01*
X111580862Y-58051710D01*
X111577995Y-58065086D01*
X111568328Y-58159438D01*
X111568000Y-58165855D01*
X111568000Y-58290885D01*
X102069486Y-58290885D01*
X99445509Y-55666908D01*
X99445503Y-55666903D01*
X99404559Y-55625959D01*
X99398320Y-55621590D01*
X99361625Y-55595896D01*
X99352906Y-55589205D01*
X99351089Y-55587680D01*
X99312761Y-55555520D01*
X99267363Y-55529309D01*
X99258111Y-55523415D01*
X99215173Y-55493350D01*
X99210188Y-55491025D01*
X99210182Y-55491022D01*
X99167670Y-55471199D01*
X99157926Y-55466126D01*
X99112538Y-55439922D01*
X99107380Y-55438045D01*
X99107372Y-55438041D01*
X99063286Y-55421996D01*
X99053133Y-55417790D01*
X99005637Y-55395642D01*
X98955003Y-55382075D01*
X98944534Y-55378774D01*
X98895284Y-55360848D01*
X98889871Y-55359893D01*
X98889869Y-55359893D01*
X98843678Y-55351748D01*
X98832948Y-55349369D01*
X98787632Y-55337227D01*
X98787633Y-55337227D01*
X98782318Y-55335803D01*
X98730101Y-55331235D01*
X98719207Y-55329800D01*
X98673026Y-55321656D01*
X98673015Y-55321655D01*
X98667599Y-55320700D01*
X97161955Y-55320700D01*
X97093834Y-55300698D01*
X97047341Y-55247042D01*
X97043973Y-55238930D01*
X97043139Y-55236705D01*
X97027615Y-55195295D01*
X97022235Y-55188116D01*
X97022233Y-55188113D01*
X96945642Y-55085919D01*
X96940261Y-55078739D01*
X96823705Y-54991385D01*
X96687316Y-54940255D01*
X96625134Y-54933500D01*
X94128866Y-54933500D01*
X94066684Y-54940255D01*
X93930295Y-54991385D01*
X93813739Y-55078739D01*
X93808358Y-55085919D01*
X93731767Y-55188113D01*
X93731765Y-55188116D01*
X93726385Y-55195295D01*
X93710861Y-55236705D01*
X93710027Y-55238930D01*
X93667385Y-55295695D01*
X93600823Y-55320394D01*
X93592045Y-55320700D01*
X93229401Y-55320700D01*
X93223985Y-55321655D01*
X93223974Y-55321656D01*
X93177793Y-55329800D01*
X93166899Y-55331235D01*
X93114682Y-55335803D01*
X93109367Y-55337227D01*
X93109368Y-55337227D01*
X93064052Y-55349369D01*
X93053322Y-55351748D01*
X93007131Y-55359893D01*
X93007129Y-55359893D01*
X93001716Y-55360848D01*
X92952466Y-55378774D01*
X92941997Y-55382075D01*
X92891363Y-55395642D01*
X92843867Y-55417790D01*
X92833714Y-55421996D01*
X92789628Y-55438041D01*
X92789620Y-55438045D01*
X92784462Y-55439922D01*
X92739074Y-55466126D01*
X92729330Y-55471199D01*
X92686818Y-55491022D01*
X92686812Y-55491025D01*
X92681827Y-55493350D01*
X92638889Y-55523415D01*
X92629637Y-55529309D01*
X92584239Y-55555520D01*
X92545911Y-55587680D01*
X92544094Y-55589205D01*
X92535375Y-55595896D01*
X92498681Y-55621590D01*
X92492441Y-55625959D01*
X92451497Y-55666903D01*
X92451491Y-55666908D01*
X91226908Y-56891491D01*
X91226903Y-56891497D01*
X91185959Y-56932441D01*
X91182802Y-56936950D01*
X91182800Y-56936952D01*
X91155896Y-56975375D01*
X91149206Y-56984093D01*
X91115520Y-57024239D01*
X91089309Y-57069637D01*
X91083415Y-57078889D01*
X91053350Y-57121827D01*
X91051025Y-57126812D01*
X91051022Y-57126818D01*
X91031199Y-57169330D01*
X91026126Y-57179074D01*
X90999922Y-57224462D01*
X90998045Y-57229620D01*
X90998041Y-57229628D01*
X90981996Y-57273714D01*
X90977790Y-57283867D01*
X90955642Y-57331363D01*
X90942545Y-57380242D01*
X90942076Y-57381993D01*
X90938774Y-57392466D01*
X90920848Y-57441716D01*
X90919893Y-57447129D01*
X90919893Y-57447131D01*
X90911748Y-57493322D01*
X90909369Y-57504052D01*
X90895803Y-57554682D01*
X90895324Y-57560162D01*
X90891236Y-57606891D01*
X90889800Y-57617793D01*
X90881656Y-57663974D01*
X90881655Y-57663985D01*
X90880700Y-57669401D01*
X90880700Y-83644599D01*
X90881655Y-83650015D01*
X90881656Y-83650026D01*
X90889800Y-83696207D01*
X90891235Y-83707101D01*
X90895803Y-83759318D01*
X90897227Y-83764632D01*
X90909369Y-83809948D01*
X90911748Y-83820678D01*
X90920848Y-83872284D01*
X90938774Y-83921534D01*
X90942075Y-83932003D01*
X90955642Y-83982637D01*
X90977788Y-84030128D01*
X90981996Y-84040286D01*
X90998041Y-84084372D01*
X90998045Y-84084380D01*
X90999922Y-84089538D01*
X91016325Y-84117948D01*
X91026123Y-84134919D01*
X91031199Y-84144670D01*
X91051022Y-84187182D01*
X91051025Y-84187188D01*
X91053350Y-84192173D01*
X91082321Y-84233548D01*
X91083411Y-84235104D01*
X91089309Y-84244363D01*
X91115520Y-84289761D01*
X91142828Y-84322306D01*
X91149205Y-84329906D01*
X91155896Y-84338625D01*
X91185959Y-84381559D01*
X91226903Y-84422503D01*
X91226908Y-84422509D01*
X93315595Y-86511195D01*
X93349620Y-86573507D01*
X93352500Y-86600290D01*
X93352500Y-87636134D01*
X93359255Y-87698316D01*
X93410385Y-87834705D01*
X93497739Y-87951261D01*
X93614295Y-88038615D01*
X93750684Y-88089745D01*
X93812866Y-88096500D01*
X94292914Y-88096500D01*
X94361035Y-88116502D01*
X94407528Y-88170158D01*
X94417632Y-88240432D01*
X94388138Y-88305012D01*
X94345665Y-88336926D01*
X94234869Y-88388004D01*
X94226714Y-88392524D01*
X94059468Y-88502175D01*
X94050330Y-88512917D01*
X94054903Y-88522693D01*
X95048188Y-89515978D01*
X95062132Y-89523592D01*
X95063965Y-89523461D01*
X95070580Y-89519210D01*
X96063488Y-88526302D01*
X96069872Y-88514612D01*
X96060460Y-88502502D01*
X95934144Y-88414873D01*
X95926116Y-88410145D01*
X95774763Y-88335506D01*
X95722514Y-88287438D01*
X95704547Y-88218752D01*
X95726566Y-88151257D01*
X95781581Y-88106380D01*
X95830491Y-88096500D01*
X96309134Y-88096500D01*
X96371316Y-88089745D01*
X96507705Y-88038615D01*
X96624261Y-87951261D01*
X96711615Y-87834705D01*
X96762745Y-87698316D01*
X96769500Y-87636134D01*
X96769500Y-87225700D01*
X96789502Y-87157579D01*
X96843158Y-87111086D01*
X96895500Y-87099700D01*
X98589500Y-87099700D01*
X98657621Y-87119702D01*
X98704114Y-87173358D01*
X98715500Y-87225700D01*
X98715500Y-87234400D01*
X98715837Y-87237646D01*
X98715837Y-87237650D01*
X98725389Y-87329705D01*
X98726474Y-87340166D01*
X98728655Y-87346702D01*
X98728655Y-87346704D01*
X98766499Y-87460135D01*
X98782450Y-87507946D01*
X98875522Y-87658348D01*
X99000697Y-87783305D01*
X99005235Y-87786102D01*
X99045824Y-87843353D01*
X99049054Y-87914276D01*
X99013428Y-87975687D01*
X99004932Y-87983062D01*
X98994793Y-87991098D01*
X98880261Y-88105829D01*
X98871249Y-88117240D01*
X98786184Y-88255243D01*
X98780037Y-88268424D01*
X98728862Y-88422710D01*
X98725995Y-88436086D01*
X98716328Y-88530438D01*
X98716000Y-88536855D01*
X98716000Y-88649385D01*
X98720475Y-88664624D01*
X98721865Y-88665829D01*
X98729548Y-88667500D01*
X105481884Y-88667500D01*
X105497123Y-88663025D01*
X105498328Y-88661635D01*
X105499999Y-88653952D01*
X105499999Y-88536905D01*
X105499662Y-88530386D01*
X105489743Y-88434794D01*
X105486851Y-88421400D01*
X105435412Y-88267216D01*
X105429239Y-88254038D01*
X105343937Y-88116193D01*
X105334901Y-88104792D01*
X105220172Y-87990262D01*
X105211238Y-87983206D01*
X105170177Y-87925288D01*
X105166947Y-87854365D01*
X105202574Y-87792954D01*
X105210407Y-87786154D01*
X105216348Y-87782478D01*
X105341305Y-87657303D01*
X105346580Y-87648746D01*
X105430275Y-87512968D01*
X105430276Y-87512966D01*
X105434115Y-87506738D01*
X105469480Y-87400115D01*
X105487632Y-87345389D01*
X105487632Y-87345387D01*
X105489797Y-87338861D01*
X105493601Y-87301739D01*
X105500172Y-87237598D01*
X105500500Y-87234400D01*
X105500500Y-86458600D01*
X105500163Y-86455350D01*
X105490238Y-86359692D01*
X105490237Y-86359688D01*
X105489526Y-86352834D01*
X105433550Y-86185054D01*
X105340478Y-86034652D01*
X105215303Y-85909695D01*
X105209072Y-85905854D01*
X105070968Y-85820725D01*
X105070966Y-85820724D01*
X105064738Y-85816885D01*
X104984995Y-85790436D01*
X104903389Y-85763368D01*
X104903387Y-85763368D01*
X104896861Y-85761203D01*
X104890025Y-85760503D01*
X104890022Y-85760502D01*
X104846969Y-85756091D01*
X104792400Y-85750500D01*
X103741600Y-85750500D01*
X103738354Y-85750837D01*
X103738350Y-85750837D01*
X103642692Y-85760762D01*
X103642688Y-85760763D01*
X103635834Y-85761474D01*
X103629298Y-85763655D01*
X103629296Y-85763655D01*
X103591095Y-85776400D01*
X103468054Y-85817450D01*
X103317652Y-85910522D01*
X103312479Y-85915704D01*
X103312474Y-85915708D01*
X103276635Y-85951609D01*
X103214353Y-85985688D01*
X103143533Y-85980685D01*
X103098445Y-85951764D01*
X103061483Y-85914866D01*
X103056303Y-85909695D01*
X103050072Y-85905854D01*
X102911968Y-85820725D01*
X102911966Y-85820724D01*
X102905738Y-85816885D01*
X102825995Y-85790436D01*
X102744389Y-85763368D01*
X102744387Y-85763368D01*
X102737861Y-85761203D01*
X102731025Y-85760503D01*
X102731022Y-85760502D01*
X102687969Y-85756091D01*
X102633400Y-85750500D01*
X101582600Y-85750500D01*
X101579354Y-85750837D01*
X101579350Y-85750837D01*
X101483692Y-85760762D01*
X101483688Y-85760763D01*
X101476834Y-85761474D01*
X101470298Y-85763655D01*
X101470296Y-85763655D01*
X101432095Y-85776400D01*
X101309054Y-85817450D01*
X101158652Y-85910522D01*
X101153479Y-85915704D01*
X101153474Y-85915708D01*
X101117635Y-85951609D01*
X101055353Y-85985688D01*
X100984533Y-85980685D01*
X100939445Y-85951764D01*
X100902483Y-85914866D01*
X100897303Y-85909695D01*
X100891072Y-85905854D01*
X100752968Y-85820725D01*
X100752966Y-85820724D01*
X100746738Y-85816885D01*
X100666995Y-85790436D01*
X100585389Y-85763368D01*
X100585387Y-85763368D01*
X100578861Y-85761203D01*
X100572025Y-85760503D01*
X100572022Y-85760502D01*
X100528969Y-85756091D01*
X100474400Y-85750500D01*
X99838434Y-85750500D01*
X99792665Y-85741893D01*
X99769471Y-85732850D01*
X99763403Y-85730300D01*
X99704891Y-85703880D01*
X99697423Y-85702496D01*
X99695164Y-85701788D01*
X99678182Y-85696951D01*
X99675873Y-85696358D01*
X99668792Y-85693597D01*
X99661263Y-85692606D01*
X99661260Y-85692605D01*
X99605144Y-85685217D01*
X99598630Y-85684185D01*
X99542985Y-85673872D01*
X99542984Y-85673872D01*
X99535517Y-85672488D01*
X99527937Y-85672925D01*
X99527936Y-85672925D01*
X99473030Y-85676091D01*
X99465777Y-85676300D01*
X96895500Y-85676300D01*
X96827379Y-85656298D01*
X96780886Y-85602642D01*
X96769500Y-85550300D01*
X96769500Y-85139866D01*
X96762745Y-85077684D01*
X96711615Y-84941295D01*
X96624261Y-84824739D01*
X96507705Y-84737385D01*
X96371316Y-84686255D01*
X96309134Y-84679500D01*
X95273290Y-84679500D01*
X95205169Y-84659498D01*
X95184195Y-84642595D01*
X93560205Y-83018604D01*
X93526179Y-82956292D01*
X93523300Y-82929509D01*
X93523300Y-70019961D01*
X96092001Y-70019961D01*
X96092209Y-70025071D01*
X96103082Y-70158767D01*
X96104852Y-70169320D01*
X96157967Y-70376185D01*
X96161701Y-70386731D01*
X96250510Y-70580705D01*
X96256046Y-70590412D01*
X96377803Y-70765597D01*
X96384976Y-70774176D01*
X96535824Y-70925024D01*
X96544403Y-70932197D01*
X96719588Y-71053954D01*
X96729295Y-71059490D01*
X96923269Y-71148299D01*
X96933815Y-71152033D01*
X97140679Y-71205147D01*
X97151234Y-71206918D01*
X97284930Y-71217793D01*
X97290036Y-71218000D01*
X97827885Y-71218000D01*
X97843124Y-71213525D01*
X97844329Y-71212135D01*
X97846000Y-71204452D01*
X97846000Y-71199884D01*
X98354000Y-71199884D01*
X98358475Y-71215123D01*
X98359865Y-71216328D01*
X98367548Y-71217999D01*
X98909961Y-71217999D01*
X98915071Y-71217791D01*
X99048767Y-71206918D01*
X99059320Y-71205148D01*
X99266185Y-71152033D01*
X99276731Y-71148299D01*
X99470705Y-71059490D01*
X99480412Y-71053954D01*
X99655597Y-70932197D01*
X99664176Y-70925024D01*
X99815024Y-70774176D01*
X99822197Y-70765597D01*
X99943954Y-70590412D01*
X99949490Y-70580705D01*
X100038299Y-70386731D01*
X100042033Y-70376185D01*
X100095147Y-70169321D01*
X100096918Y-70158766D01*
X100107793Y-70025070D01*
X100108000Y-70019964D01*
X100108000Y-69232115D01*
X100103525Y-69216876D01*
X100102135Y-69215671D01*
X100094452Y-69214000D01*
X98372115Y-69214000D01*
X98356876Y-69218475D01*
X98355671Y-69219865D01*
X98354000Y-69227548D01*
X98354000Y-71199884D01*
X97846000Y-71199884D01*
X97846000Y-69232115D01*
X97841525Y-69216876D01*
X97840135Y-69215671D01*
X97832452Y-69214000D01*
X96110116Y-69214000D01*
X96094877Y-69218475D01*
X96093672Y-69219865D01*
X96092001Y-69227548D01*
X96092001Y-70019961D01*
X93523300Y-70019961D01*
X93523300Y-68687885D01*
X96092000Y-68687885D01*
X96096475Y-68703124D01*
X96097865Y-68704329D01*
X96105548Y-68706000D01*
X97827885Y-68706000D01*
X97843124Y-68701525D01*
X97844329Y-68700135D01*
X97846000Y-68692452D01*
X97846000Y-68687885D01*
X98354000Y-68687885D01*
X98358475Y-68703124D01*
X98359865Y-68704329D01*
X98367548Y-68706000D01*
X100089884Y-68706000D01*
X100105123Y-68701525D01*
X100106328Y-68700135D01*
X100107999Y-68692452D01*
X100107999Y-67900039D01*
X100107791Y-67894929D01*
X100096918Y-67761233D01*
X100095148Y-67750680D01*
X100042033Y-67543815D01*
X100038299Y-67533269D01*
X99949490Y-67339295D01*
X99943954Y-67329588D01*
X99822197Y-67154403D01*
X99815024Y-67145824D01*
X99664176Y-66994976D01*
X99655597Y-66987803D01*
X99480412Y-66866046D01*
X99470705Y-66860510D01*
X99276731Y-66771701D01*
X99266185Y-66767967D01*
X99059321Y-66714853D01*
X99048766Y-66713082D01*
X98915070Y-66702207D01*
X98909964Y-66702000D01*
X98372115Y-66702000D01*
X98356876Y-66706475D01*
X98355671Y-66707865D01*
X98354000Y-66715548D01*
X98354000Y-68687885D01*
X97846000Y-68687885D01*
X97846000Y-66720116D01*
X97841525Y-66704877D01*
X97840135Y-66703672D01*
X97832452Y-66702001D01*
X97290039Y-66702001D01*
X97284929Y-66702209D01*
X97151233Y-66713082D01*
X97140680Y-66714852D01*
X96933815Y-66767967D01*
X96923269Y-66771701D01*
X96729295Y-66860510D01*
X96719588Y-66866046D01*
X96544403Y-66987803D01*
X96535824Y-66994976D01*
X96384976Y-67145824D01*
X96377803Y-67154403D01*
X96256046Y-67329588D01*
X96250510Y-67339295D01*
X96161701Y-67533269D01*
X96157967Y-67543815D01*
X96104853Y-67750679D01*
X96103082Y-67761234D01*
X96092207Y-67894930D01*
X96092000Y-67900036D01*
X96092000Y-68687885D01*
X93523300Y-68687885D01*
X93523300Y-61515359D01*
X94368386Y-61515359D01*
X94377099Y-61526879D01*
X94465586Y-61591760D01*
X94473505Y-61596708D01*
X94689877Y-61710547D01*
X94698451Y-61714275D01*
X94929282Y-61794885D01*
X94938291Y-61797299D01*
X95178518Y-61842908D01*
X95187775Y-61843962D01*
X95432107Y-61853563D01*
X95441420Y-61853237D01*
X95684478Y-61826618D01*
X95693655Y-61824917D01*
X95930107Y-61762665D01*
X95938926Y-61759628D01*
X96163584Y-61663107D01*
X96171856Y-61658800D01*
X96379777Y-61530135D01*
X96381620Y-61528796D01*
X96389038Y-61517541D01*
X96382974Y-61507184D01*
X95389812Y-60514022D01*
X95375868Y-60506408D01*
X95374035Y-60506539D01*
X95367420Y-60510790D01*
X94375044Y-61503166D01*
X94368386Y-61515359D01*
X93523300Y-61515359D01*
X93523300Y-60757565D01*
X93543302Y-60689444D01*
X93596958Y-60642951D01*
X93667232Y-60632847D01*
X93731812Y-60662341D01*
X93767888Y-60714987D01*
X93810708Y-60834250D01*
X93814505Y-60842778D01*
X93930234Y-61058160D01*
X93935245Y-61066027D01*
X93992173Y-61142263D01*
X94003431Y-61150712D01*
X94015850Y-61143940D01*
X95004978Y-60154812D01*
X95011356Y-60143132D01*
X95741408Y-60143132D01*
X95741539Y-60144965D01*
X95745790Y-60151580D01*
X96740732Y-61146522D01*
X96753112Y-61153282D01*
X96761453Y-61147038D01*
X96879700Y-60963202D01*
X96884147Y-60955011D01*
X96984572Y-60732076D01*
X96987767Y-60723298D01*
X97054135Y-60487973D01*
X97055993Y-60478844D01*
X97087044Y-60234770D01*
X97087525Y-60228483D01*
X97089706Y-60145160D01*
X97089555Y-60138851D01*
X97071321Y-59893486D01*
X97069944Y-59884280D01*
X97015979Y-59645786D01*
X97013255Y-59636875D01*
X96924633Y-59408983D01*
X96920619Y-59400567D01*
X96799284Y-59188276D01*
X96794074Y-59180553D01*
X96762787Y-59140865D01*
X96750863Y-59132395D01*
X96739328Y-59138882D01*
X95749022Y-60129188D01*
X95741408Y-60143132D01*
X95011356Y-60143132D01*
X95012592Y-60140868D01*
X95012461Y-60139035D01*
X95008210Y-60132420D01*
X94013828Y-59138038D01*
X94000520Y-59130771D01*
X93990481Y-59137893D01*
X93985581Y-59143784D01*
X93980168Y-59151373D01*
X93853322Y-59360409D01*
X93849084Y-59368726D01*
X93765497Y-59568059D01*
X93720708Y-59623145D01*
X93653248Y-59645271D01*
X93584534Y-59627413D01*
X93536383Y-59575241D01*
X93523300Y-59519333D01*
X93523300Y-58384491D01*
X93543302Y-58316370D01*
X93560205Y-58295396D01*
X93643844Y-58211757D01*
X93706156Y-58177731D01*
X93776971Y-58182796D01*
X93813150Y-58206047D01*
X93813739Y-58205261D01*
X93930295Y-58292615D01*
X94066684Y-58343745D01*
X94128866Y-58350500D01*
X94608914Y-58350500D01*
X94677035Y-58370502D01*
X94723528Y-58424158D01*
X94733632Y-58494432D01*
X94704138Y-58559012D01*
X94661665Y-58590926D01*
X94550869Y-58642004D01*
X94542714Y-58646524D01*
X94375468Y-58756175D01*
X94366330Y-58766917D01*
X94370903Y-58776693D01*
X95364188Y-59769978D01*
X95378132Y-59777592D01*
X95379965Y-59777461D01*
X95386580Y-59773210D01*
X96379488Y-58780302D01*
X96385872Y-58768612D01*
X96376460Y-58756502D01*
X96250144Y-58668873D01*
X96242116Y-58664145D01*
X96090763Y-58589506D01*
X96038514Y-58541438D01*
X96020547Y-58472752D01*
X96042566Y-58405257D01*
X96097581Y-58360380D01*
X96146491Y-58350500D01*
X96625134Y-58350500D01*
X96687316Y-58343745D01*
X96823705Y-58292615D01*
X96940261Y-58205261D01*
X96972991Y-58161590D01*
X97022233Y-58095887D01*
X97022235Y-58095884D01*
X97027615Y-58088705D01*
X97043973Y-58045070D01*
X97086615Y-57988305D01*
X97153177Y-57963606D01*
X97161955Y-57963300D01*
X97952509Y-57963300D01*
X98020630Y-57983302D01*
X98041604Y-58000205D01*
X102741795Y-62700396D01*
X102775821Y-62762708D01*
X102778700Y-62789491D01*
X102778700Y-66575500D01*
X102758698Y-66643621D01*
X102705042Y-66690114D01*
X102652700Y-66701500D01*
X102301866Y-66701500D01*
X102239684Y-66708255D01*
X102103295Y-66759385D01*
X101986739Y-66846739D01*
X101899385Y-66963295D01*
X101848255Y-67099684D01*
X101841500Y-67161866D01*
X101841500Y-70758134D01*
X101848255Y-70820316D01*
X101899385Y-70956705D01*
X101986739Y-71073261D01*
X102103295Y-71160615D01*
X102111696Y-71163764D01*
X102113918Y-71164981D01*
X102164064Y-71215240D01*
X102179077Y-71284631D01*
X102154191Y-71351123D01*
X102097307Y-71393605D01*
X102053408Y-71401500D01*
X100132636Y-71401500D01*
X100130963Y-71401591D01*
X100130948Y-71401591D01*
X100080773Y-71404309D01*
X100075043Y-71404619D01*
X100070757Y-71405456D01*
X99998904Y-71419488D01*
X99844607Y-71449620D01*
X99625048Y-71532804D01*
X99491986Y-71611027D01*
X99454432Y-71633104D01*
X99422644Y-71651791D01*
X99243181Y-71803181D01*
X99091791Y-71982644D01*
X98972804Y-72185048D01*
X98889620Y-72404607D01*
X98844619Y-72635043D01*
X98841500Y-72692636D01*
X98841500Y-74627364D01*
X98841591Y-74629037D01*
X98841591Y-74629052D01*
X98843402Y-74662492D01*
X98844619Y-74684957D01*
X98845456Y-74689243D01*
X98880161Y-74866954D01*
X98889620Y-74915393D01*
X98972804Y-75134952D01*
X99091791Y-75337356D01*
X99243181Y-75516819D01*
X99422644Y-75668209D01*
X99427248Y-75670915D01*
X99427250Y-75670917D01*
X99484338Y-75704477D01*
X99625048Y-75787196D01*
X99844607Y-75870380D01*
X99849839Y-75871402D01*
X99849840Y-75871402D01*
X100031758Y-75906928D01*
X100075043Y-75915381D01*
X100079401Y-75915617D01*
X100130948Y-75918409D01*
X100130963Y-75918409D01*
X100132636Y-75918500D01*
X102067364Y-75918500D01*
X102069037Y-75918409D01*
X102069052Y-75918409D01*
X102120599Y-75915617D01*
X102124957Y-75915381D01*
X102168242Y-75906928D01*
X102350160Y-75871402D01*
X102350161Y-75871402D01*
X102355393Y-75870380D01*
X102574952Y-75787196D01*
X102715662Y-75704477D01*
X102772750Y-75670917D01*
X102772752Y-75670915D01*
X102777356Y-75668209D01*
X102956819Y-75516819D01*
X103108209Y-75337356D01*
X103227196Y-75134952D01*
X103310380Y-74915393D01*
X103319840Y-74866954D01*
X103354544Y-74689243D01*
X103355381Y-74684957D01*
X103356598Y-74662492D01*
X103358409Y-74629052D01*
X103358409Y-74629037D01*
X103358500Y-74627364D01*
X103358500Y-72692636D01*
X103355381Y-72635043D01*
X103310380Y-72404607D01*
X103227196Y-72185048D01*
X103108209Y-71982644D01*
X102956819Y-71803181D01*
X102777356Y-71651791D01*
X102745569Y-71633104D01*
X102708014Y-71611027D01*
X102574952Y-71532804D01*
X102388932Y-71462327D01*
X102332317Y-71419488D01*
X102307849Y-71352840D01*
X102323298Y-71283545D01*
X102373759Y-71233602D01*
X102433573Y-71218500D01*
X104868761Y-71218500D01*
X104936882Y-71238502D01*
X104957856Y-71255405D01*
X106253189Y-72550738D01*
X106262291Y-72560880D01*
X106286225Y-72590649D01*
X106324962Y-72623153D01*
X106328616Y-72626341D01*
X106330507Y-72628056D01*
X106332692Y-72630241D01*
X106335072Y-72632196D01*
X106366224Y-72657785D01*
X106367237Y-72658627D01*
X106438933Y-72718786D01*
X106443642Y-72721375D01*
X106447790Y-72724782D01*
X106453214Y-72727690D01*
X106453218Y-72727693D01*
X106507815Y-72756967D01*
X106527731Y-72767646D01*
X106530349Y-72769050D01*
X106531478Y-72769663D01*
X106613621Y-72814821D01*
X106618737Y-72816444D01*
X106623474Y-72818984D01*
X106713096Y-72846384D01*
X106714300Y-72846759D01*
X106803635Y-72875098D01*
X106808973Y-72875697D01*
X106814109Y-72877267D01*
X106820240Y-72877890D01*
X106820241Y-72877890D01*
X106839544Y-72879851D01*
X106907431Y-72886746D01*
X106908551Y-72886866D01*
X106958784Y-72892500D01*
X106962289Y-72892500D01*
X106963397Y-72892562D01*
X106969092Y-72893010D01*
X107006305Y-72896790D01*
X107006312Y-72896790D01*
X107012435Y-72897412D01*
X107058486Y-72893059D01*
X107070343Y-72892500D01*
X111332799Y-72892500D01*
X111400920Y-72912502D01*
X111408364Y-72917674D01*
X111413112Y-72921233D01*
X111413119Y-72921237D01*
X111420295Y-72926615D01*
X111556684Y-72977745D01*
X111618866Y-72984500D01*
X113787500Y-72984500D01*
X113855621Y-73004502D01*
X113902114Y-73058158D01*
X113913500Y-73110500D01*
X113913500Y-81535000D01*
X113913860Y-81538346D01*
X113913860Y-81538351D01*
X113923122Y-81624500D01*
X113925234Y-81644149D01*
X113936620Y-81696491D01*
X113946117Y-81725025D01*
X113968035Y-81790876D01*
X113971290Y-81800657D01*
X114050308Y-81923612D01*
X114096801Y-81977268D01*
X114100194Y-81980208D01*
X114200450Y-82067081D01*
X114200453Y-82067083D01*
X114207261Y-82072982D01*
X114340210Y-82133698D01*
X114363964Y-82140673D01*
X114404008Y-82152431D01*
X114404012Y-82152432D01*
X114408331Y-82153700D01*
X114412780Y-82154340D01*
X114412786Y-82154341D01*
X114548553Y-82173861D01*
X114548558Y-82173861D01*
X114553000Y-82174500D01*
X117024656Y-82174500D01*
X117092777Y-82194502D01*
X117139270Y-82248158D01*
X117149374Y-82318432D01*
X117119880Y-82383012D01*
X117113751Y-82389595D01*
X115272752Y-84230595D01*
X115210440Y-84264620D01*
X115183657Y-84267500D01*
X114561600Y-84267500D01*
X114558354Y-84267837D01*
X114558350Y-84267837D01*
X114462692Y-84277762D01*
X114462688Y-84277763D01*
X114455834Y-84278474D01*
X114449298Y-84280655D01*
X114449296Y-84280655D01*
X114337705Y-84317885D01*
X114288054Y-84334450D01*
X114137652Y-84427522D01*
X114012695Y-84552697D01*
X114008855Y-84558927D01*
X114008854Y-84558928D01*
X113929748Y-84687262D01*
X113919885Y-84703262D01*
X113908567Y-84737385D01*
X113873205Y-84844000D01*
X113864203Y-84871139D01*
X113863503Y-84877975D01*
X113863502Y-84877978D01*
X113860577Y-84906525D01*
X113853500Y-84975600D01*
X113853500Y-85776400D01*
X113853837Y-85779646D01*
X113853837Y-85779650D01*
X113863356Y-85871389D01*
X113864474Y-85882166D01*
X113866655Y-85888702D01*
X113866655Y-85888704D01*
X113887642Y-85951609D01*
X113920450Y-86049946D01*
X114013522Y-86200348D01*
X114018704Y-86205521D01*
X114100109Y-86286784D01*
X114134188Y-86349066D01*
X114129185Y-86419886D01*
X114100264Y-86464975D01*
X114073810Y-86491475D01*
X114012695Y-86552697D01*
X114008855Y-86558927D01*
X114008854Y-86558928D01*
X113944985Y-86662543D01*
X113919885Y-86703262D01*
X113864203Y-86871139D01*
X113853500Y-86975600D01*
X113853500Y-87776400D01*
X113853837Y-87779646D01*
X113853837Y-87779650D01*
X113863356Y-87871389D01*
X113864474Y-87882166D01*
X113866655Y-87888702D01*
X113866655Y-87888704D01*
X113885746Y-87945926D01*
X113920450Y-88049946D01*
X114013522Y-88200348D01*
X114138697Y-88325305D01*
X114144927Y-88329145D01*
X114144928Y-88329146D01*
X114282090Y-88413694D01*
X114289262Y-88418115D01*
X114314770Y-88426576D01*
X114373128Y-88467007D01*
X114400364Y-88532571D01*
X114401100Y-88546168D01*
X114401100Y-90031944D01*
X114381098Y-90100065D01*
X114327442Y-90146558D01*
X114314977Y-90151467D01*
X114295007Y-90158130D01*
X114295005Y-90158131D01*
X114288054Y-90160450D01*
X114137652Y-90253522D01*
X114012695Y-90378697D01*
X114008855Y-90384927D01*
X114008854Y-90384928D01*
X113944985Y-90488543D01*
X113919885Y-90529262D01*
X113864203Y-90697139D01*
X113863503Y-90703975D01*
X113863502Y-90703978D01*
X113859091Y-90747031D01*
X113853500Y-90801600D01*
X113853500Y-91552400D01*
X113853837Y-91555646D01*
X113853837Y-91555650D01*
X113860415Y-91619044D01*
X113864474Y-91658166D01*
X113866655Y-91664702D01*
X113866655Y-91664704D01*
X113890775Y-91737000D01*
X113920450Y-91825946D01*
X114013522Y-91976348D01*
X114138697Y-92101305D01*
X114143235Y-92104102D01*
X114183824Y-92161353D01*
X114187054Y-92232276D01*
X114151428Y-92293687D01*
X114142932Y-92301062D01*
X114132793Y-92309098D01*
X114018261Y-92423829D01*
X114009249Y-92435240D01*
X113924184Y-92573243D01*
X113918037Y-92586424D01*
X113866862Y-92740710D01*
X113863995Y-92754086D01*
X113854328Y-92848438D01*
X113854000Y-92854855D01*
X113854000Y-92954885D01*
X113858475Y-92970124D01*
X113859865Y-92971329D01*
X113867548Y-92973000D01*
X115190000Y-92973000D01*
X115258121Y-92993002D01*
X115304614Y-93046658D01*
X115316000Y-93099000D01*
X115316000Y-94291884D01*
X115320475Y-94307123D01*
X115321865Y-94308328D01*
X115329548Y-94309999D01*
X115559095Y-94309999D01*
X115565614Y-94309662D01*
X115661206Y-94299743D01*
X115674600Y-94296851D01*
X115828784Y-94245412D01*
X115841962Y-94239239D01*
X115986035Y-94150083D01*
X115987650Y-94152692D01*
X116040641Y-94131241D01*
X116110405Y-94144409D01*
X116161976Y-94193204D01*
X116179100Y-94256623D01*
X116179100Y-95982737D01*
X116178808Y-95991308D01*
X116175158Y-96044843D01*
X116176463Y-96052320D01*
X116176463Y-96052321D01*
X116185368Y-96103343D01*
X116186330Y-96109865D01*
X116193463Y-96168805D01*
X116196149Y-96175913D01*
X116197860Y-96182879D01*
X116199279Y-96188068D01*
X116201356Y-96194947D01*
X116202661Y-96202424D01*
X116226529Y-96256795D01*
X116229012Y-96262881D01*
X116250006Y-96318441D01*
X116254309Y-96324702D01*
X116257615Y-96331026D01*
X116260271Y-96335798D01*
X116263906Y-96341944D01*
X116266958Y-96348896D01*
X116271580Y-96354919D01*
X116303102Y-96396001D01*
X116306973Y-96401328D01*
X116340611Y-96450271D01*
X116346287Y-96455328D01*
X116383819Y-96488768D01*
X116389095Y-96493749D01*
X118507095Y-98611749D01*
X118541121Y-98674061D01*
X118544000Y-98700844D01*
X118544000Y-100128000D01*
X118523998Y-100196121D01*
X118470342Y-100242614D01*
X118418000Y-100254000D01*
X118162000Y-100254000D01*
X118093879Y-100233998D01*
X118047386Y-100180342D01*
X118036000Y-100128000D01*
X118036000Y-98683102D01*
X118032082Y-98669758D01*
X118017806Y-98667771D01*
X117979324Y-98673660D01*
X117969288Y-98676051D01*
X117766868Y-98742212D01*
X117757359Y-98746209D01*
X117568463Y-98844542D01*
X117559738Y-98850036D01*
X117389433Y-98977905D01*
X117381726Y-98984748D01*
X117234590Y-99138717D01*
X117228109Y-99146722D01*
X117123498Y-99300074D01*
X117068587Y-99345076D01*
X116998062Y-99353247D01*
X116934315Y-99321993D01*
X116913618Y-99297509D01*
X116832822Y-99172617D01*
X116832820Y-99172614D01*
X116830014Y-99168277D01*
X116679670Y-99003051D01*
X116675619Y-98999852D01*
X116675615Y-98999848D01*
X116508414Y-98867800D01*
X116508410Y-98867798D01*
X116504359Y-98864598D01*
X116468028Y-98844542D01*
X116410900Y-98813006D01*
X116308789Y-98756638D01*
X116303920Y-98754914D01*
X116303916Y-98754912D01*
X116103087Y-98683795D01*
X116103083Y-98683794D01*
X116098212Y-98682069D01*
X116093119Y-98681162D01*
X116093116Y-98681161D01*
X115883373Y-98643800D01*
X115883367Y-98643799D01*
X115878284Y-98642894D01*
X115804452Y-98641992D01*
X115660081Y-98640228D01*
X115660079Y-98640228D01*
X115654911Y-98640165D01*
X115434091Y-98673955D01*
X115221756Y-98743357D01*
X115023607Y-98846507D01*
X115019474Y-98849610D01*
X115019471Y-98849612D01*
X114849100Y-98977530D01*
X114844965Y-98980635D01*
X114819541Y-99007240D01*
X114751280Y-99078671D01*
X114690629Y-99142138D01*
X114687720Y-99146403D01*
X114687714Y-99146411D01*
X114675404Y-99164457D01*
X114564743Y-99326680D01*
X114470688Y-99529305D01*
X114410989Y-99744570D01*
X114387251Y-99966695D01*
X114387548Y-99971848D01*
X114387548Y-99971851D01*
X114394367Y-100090115D01*
X114400110Y-100189715D01*
X114401247Y-100194761D01*
X114401248Y-100194767D01*
X114412031Y-100242614D01*
X114449222Y-100407639D01*
X114533266Y-100614616D01*
X114570685Y-100675678D01*
X114647291Y-100800688D01*
X114649987Y-100805088D01*
X114796250Y-100973938D01*
X114968126Y-101116632D01*
X115161000Y-101229338D01*
X115165825Y-101231180D01*
X115165826Y-101231181D01*
X115209321Y-101247790D01*
X115265824Y-101290778D01*
X115290117Y-101357489D01*
X115274487Y-101426743D01*
X115223896Y-101476554D01*
X115164372Y-101491500D01*
X101875834Y-101491500D01*
X101807713Y-101471498D01*
X101761220Y-101417842D01*
X101749834Y-101365500D01*
X101749834Y-100072000D01*
X90634500Y-100072000D01*
X90566379Y-100051998D01*
X90519886Y-99998342D01*
X90508500Y-99946000D01*
X90508500Y-93599095D01*
X113854001Y-93599095D01*
X113854338Y-93605614D01*
X113864257Y-93701206D01*
X113867149Y-93714600D01*
X113918588Y-93868784D01*
X113924761Y-93881962D01*
X114010063Y-94019807D01*
X114019099Y-94031208D01*
X114133829Y-94145739D01*
X114145240Y-94154751D01*
X114283243Y-94239816D01*
X114296424Y-94245963D01*
X114450710Y-94297138D01*
X114464086Y-94300005D01*
X114558438Y-94309672D01*
X114564854Y-94310000D01*
X114789885Y-94310000D01*
X114805124Y-94305525D01*
X114806329Y-94304135D01*
X114808000Y-94296452D01*
X114808000Y-93499115D01*
X114803525Y-93483876D01*
X114802135Y-93482671D01*
X114794452Y-93481000D01*
X113872116Y-93481000D01*
X113856877Y-93485475D01*
X113855672Y-93486865D01*
X113854001Y-93494548D01*
X113854001Y-93599095D01*
X90508500Y-93599095D01*
X90508500Y-91261359D01*
X94052386Y-91261359D01*
X94061099Y-91272879D01*
X94149586Y-91337760D01*
X94157505Y-91342708D01*
X94373877Y-91456547D01*
X94382451Y-91460275D01*
X94613282Y-91540885D01*
X94622291Y-91543299D01*
X94862518Y-91588908D01*
X94871775Y-91589962D01*
X95116107Y-91599563D01*
X95125420Y-91599237D01*
X95368478Y-91572618D01*
X95377655Y-91570917D01*
X95614107Y-91508665D01*
X95622926Y-91505628D01*
X95847584Y-91409107D01*
X95855856Y-91404800D01*
X96063777Y-91276135D01*
X96065620Y-91274796D01*
X96073038Y-91263541D01*
X96066974Y-91253184D01*
X95073812Y-90260022D01*
X95059868Y-90252408D01*
X95058035Y-90252539D01*
X95051420Y-90256790D01*
X94059044Y-91249166D01*
X94052386Y-91261359D01*
X90508500Y-91261359D01*
X90508500Y-89847835D01*
X93349022Y-89847835D01*
X93360754Y-90092064D01*
X93361891Y-90101324D01*
X93409593Y-90341143D01*
X93412082Y-90350118D01*
X93494708Y-90580250D01*
X93498505Y-90588778D01*
X93614234Y-90804160D01*
X93619245Y-90812027D01*
X93676173Y-90888263D01*
X93687431Y-90896712D01*
X93699850Y-90889940D01*
X94688978Y-89900812D01*
X94695356Y-89889132D01*
X95425408Y-89889132D01*
X95425539Y-89890965D01*
X95429790Y-89897580D01*
X96424732Y-90892522D01*
X96437112Y-90899282D01*
X96445453Y-90893038D01*
X96563700Y-90709202D01*
X96568147Y-90701011D01*
X96668572Y-90478076D01*
X96671767Y-90469298D01*
X96738135Y-90233973D01*
X96739993Y-90224844D01*
X96771044Y-89980770D01*
X96771525Y-89974483D01*
X96773706Y-89891160D01*
X96773555Y-89884851D01*
X96755321Y-89639486D01*
X96753944Y-89630280D01*
X96699979Y-89391786D01*
X96697255Y-89382875D01*
X96667397Y-89306095D01*
X98716001Y-89306095D01*
X98716338Y-89312614D01*
X98726257Y-89408206D01*
X98729149Y-89421600D01*
X98780588Y-89575784D01*
X98786761Y-89588962D01*
X98872063Y-89726807D01*
X98881099Y-89738208D01*
X98995829Y-89852739D01*
X99007240Y-89861751D01*
X99145243Y-89946816D01*
X99158424Y-89952963D01*
X99312710Y-90004138D01*
X99326086Y-90007005D01*
X99420438Y-90016672D01*
X99426854Y-90017000D01*
X99676885Y-90017000D01*
X99692124Y-90012525D01*
X99693329Y-90011135D01*
X99695000Y-90003452D01*
X99695000Y-89998884D01*
X100203000Y-89998884D01*
X100207475Y-90014123D01*
X100208865Y-90015328D01*
X100216548Y-90016999D01*
X100471095Y-90016999D01*
X100477614Y-90016662D01*
X100573206Y-90006743D01*
X100586600Y-90003851D01*
X100740784Y-89952412D01*
X100753962Y-89946239D01*
X100891807Y-89860937D01*
X100903208Y-89851901D01*
X100939363Y-89815683D01*
X101001646Y-89781604D01*
X101072466Y-89786607D01*
X101117555Y-89815529D01*
X101154829Y-89852739D01*
X101166240Y-89861751D01*
X101304243Y-89946816D01*
X101317424Y-89952963D01*
X101471710Y-90004138D01*
X101485086Y-90007005D01*
X101579438Y-90016672D01*
X101585854Y-90017000D01*
X101835885Y-90017000D01*
X101851124Y-90012525D01*
X101852329Y-90011135D01*
X101854000Y-90003452D01*
X101854000Y-89998884D01*
X102362000Y-89998884D01*
X102366475Y-90014123D01*
X102367865Y-90015328D01*
X102375548Y-90016999D01*
X102630095Y-90016999D01*
X102636614Y-90016662D01*
X102732206Y-90006743D01*
X102745600Y-90003851D01*
X102899784Y-89952412D01*
X102912962Y-89946239D01*
X103050807Y-89860937D01*
X103062208Y-89851901D01*
X103098363Y-89815683D01*
X103160646Y-89781604D01*
X103231466Y-89786607D01*
X103276555Y-89815529D01*
X103313829Y-89852739D01*
X103325240Y-89861751D01*
X103463243Y-89946816D01*
X103476424Y-89952963D01*
X103630710Y-90004138D01*
X103644086Y-90007005D01*
X103738438Y-90016672D01*
X103744854Y-90017000D01*
X103994885Y-90017000D01*
X104010124Y-90012525D01*
X104011329Y-90011135D01*
X104013000Y-90003452D01*
X104013000Y-89998884D01*
X104521000Y-89998884D01*
X104525475Y-90014123D01*
X104526865Y-90015328D01*
X104534548Y-90016999D01*
X104789095Y-90016999D01*
X104795614Y-90016662D01*
X104891206Y-90006743D01*
X104904600Y-90003851D01*
X105058784Y-89952412D01*
X105071962Y-89946239D01*
X105209807Y-89860937D01*
X105221208Y-89851901D01*
X105335739Y-89737171D01*
X105344751Y-89725760D01*
X105429816Y-89587757D01*
X105435963Y-89574576D01*
X105487138Y-89420290D01*
X105490005Y-89406914D01*
X105499672Y-89312562D01*
X105500000Y-89306146D01*
X105500000Y-89193615D01*
X105495525Y-89178376D01*
X105494135Y-89177171D01*
X105486452Y-89175500D01*
X104539115Y-89175500D01*
X104523876Y-89179975D01*
X104522671Y-89181365D01*
X104521000Y-89189048D01*
X104521000Y-89998884D01*
X104013000Y-89998884D01*
X104013000Y-89193615D01*
X104008525Y-89178376D01*
X104007135Y-89177171D01*
X103999452Y-89175500D01*
X102380115Y-89175500D01*
X102364876Y-89179975D01*
X102363671Y-89181365D01*
X102362000Y-89189048D01*
X102362000Y-89998884D01*
X101854000Y-89998884D01*
X101854000Y-89193615D01*
X101849525Y-89178376D01*
X101848135Y-89177171D01*
X101840452Y-89175500D01*
X100221115Y-89175500D01*
X100205876Y-89179975D01*
X100204671Y-89181365D01*
X100203000Y-89189048D01*
X100203000Y-89998884D01*
X99695000Y-89998884D01*
X99695000Y-89193615D01*
X99690525Y-89178376D01*
X99689135Y-89177171D01*
X99681452Y-89175500D01*
X98734116Y-89175500D01*
X98718877Y-89179975D01*
X98717672Y-89181365D01*
X98716001Y-89189048D01*
X98716001Y-89306095D01*
X96667397Y-89306095D01*
X96608633Y-89154983D01*
X96604619Y-89146567D01*
X96483284Y-88934276D01*
X96478074Y-88926553D01*
X96446787Y-88886865D01*
X96434863Y-88878395D01*
X96423328Y-88884882D01*
X95433022Y-89875188D01*
X95425408Y-89889132D01*
X94695356Y-89889132D01*
X94696592Y-89886868D01*
X94696461Y-89885035D01*
X94692210Y-89878420D01*
X93697828Y-88884038D01*
X93684520Y-88876771D01*
X93674481Y-88883893D01*
X93669581Y-88889784D01*
X93664168Y-88897373D01*
X93537322Y-89106409D01*
X93533084Y-89114726D01*
X93438529Y-89340214D01*
X93435572Y-89349052D01*
X93375384Y-89586042D01*
X93373763Y-89595232D01*
X93349267Y-89838510D01*
X93349022Y-89847835D01*
X90508500Y-89847835D01*
X90508500Y-50634500D01*
X90528502Y-50566379D01*
X90582158Y-50519886D01*
X90634500Y-50508500D01*
X115157994Y-50508500D01*
X115226115Y-50528502D01*
G37*
%TD.AperFunction*%
%TA.AperFunction,Conductor*%
G36*
X164433621Y-50528502D02*
G01*
X164480114Y-50582158D01*
X164491500Y-50634500D01*
X164491500Y-101365500D01*
X164471498Y-101433621D01*
X164417842Y-101480114D01*
X164365500Y-101491500D01*
X154820226Y-101491500D01*
X154752105Y-101471498D01*
X154705612Y-101417842D01*
X154695508Y-101347568D01*
X154725002Y-101282988D01*
X154744661Y-101264674D01*
X154806080Y-101218643D01*
X154806081Y-101218642D01*
X154813261Y-101213261D01*
X154900615Y-101096705D01*
X154951745Y-100960316D01*
X154958500Y-100898134D01*
X154958500Y-99101866D01*
X154951745Y-99039684D01*
X154900615Y-98903295D01*
X154813261Y-98786739D01*
X154696705Y-98699385D01*
X154560316Y-98648255D01*
X154498134Y-98641500D01*
X154386900Y-98641500D01*
X154318779Y-98621498D01*
X154272286Y-98567842D01*
X154260900Y-98515500D01*
X154260900Y-97423944D01*
X154280902Y-97355823D01*
X154297805Y-97334849D01*
X156421748Y-95210906D01*
X156484060Y-95176880D01*
X156535964Y-95176531D01*
X156678526Y-95205536D01*
X156678534Y-95205537D01*
X156683597Y-95206567D01*
X156801926Y-95210906D01*
X156901673Y-95214564D01*
X156901677Y-95214564D01*
X156906837Y-95214753D01*
X156911957Y-95214097D01*
X156911959Y-95214097D01*
X157123288Y-95187025D01*
X157123289Y-95187025D01*
X157128416Y-95186368D01*
X157160041Y-95176880D01*
X157337429Y-95123661D01*
X157337434Y-95123659D01*
X157342384Y-95122174D01*
X157542994Y-95023896D01*
X157724860Y-94894173D01*
X157883096Y-94736489D01*
X158013453Y-94555077D01*
X158063126Y-94454572D01*
X158110136Y-94359453D01*
X158110137Y-94359451D01*
X158112430Y-94354811D01*
X158170464Y-94163798D01*
X158175865Y-94146023D01*
X158175865Y-94146021D01*
X158177370Y-94141069D01*
X158206529Y-93919590D01*
X158206950Y-93902364D01*
X158208074Y-93856365D01*
X158208074Y-93856361D01*
X158208156Y-93853000D01*
X158189852Y-93630361D01*
X158135431Y-93413702D01*
X158046354Y-93208840D01*
X157967208Y-93086499D01*
X157927822Y-93025617D01*
X157927820Y-93025614D01*
X157925014Y-93021277D01*
X157774670Y-92856051D01*
X157770619Y-92852852D01*
X157770615Y-92852848D01*
X157603414Y-92720800D01*
X157603410Y-92720798D01*
X157599359Y-92717598D01*
X157558053Y-92694796D01*
X157508084Y-92644364D01*
X157493312Y-92574921D01*
X157518428Y-92508516D01*
X157545780Y-92481909D01*
X157589603Y-92450650D01*
X157724860Y-92354173D01*
X157778013Y-92301206D01*
X157829873Y-92249526D01*
X157883096Y-92196489D01*
X158013453Y-92015077D01*
X158030038Y-91981521D01*
X158110136Y-91819453D01*
X158110137Y-91819451D01*
X158112430Y-91814811D01*
X158162497Y-91650022D01*
X158175865Y-91606023D01*
X158175865Y-91606021D01*
X158177370Y-91601069D01*
X158206529Y-91379590D01*
X158208156Y-91313000D01*
X158189852Y-91090361D01*
X158135431Y-90873702D01*
X158046354Y-90668840D01*
X157956057Y-90529262D01*
X157927822Y-90485617D01*
X157927820Y-90485614D01*
X157925014Y-90481277D01*
X157774670Y-90316051D01*
X157770619Y-90312852D01*
X157770615Y-90312848D01*
X157603414Y-90180800D01*
X157603410Y-90180798D01*
X157599359Y-90177598D01*
X157557569Y-90154529D01*
X157507598Y-90104097D01*
X157492826Y-90034654D01*
X157517942Y-89968248D01*
X157545294Y-89941641D01*
X157720328Y-89816792D01*
X157728200Y-89810139D01*
X157879052Y-89659812D01*
X157885730Y-89651965D01*
X158010003Y-89479020D01*
X158015313Y-89470183D01*
X158109670Y-89279267D01*
X158113469Y-89269672D01*
X158175377Y-89065910D01*
X158177555Y-89055837D01*
X158178986Y-89044962D01*
X158176775Y-89030778D01*
X158163617Y-89027000D01*
X155528225Y-89027000D01*
X155514694Y-89030973D01*
X155513257Y-89040966D01*
X155543565Y-89175446D01*
X155546645Y-89185275D01*
X155626770Y-89382603D01*
X155631413Y-89391794D01*
X155742694Y-89573388D01*
X155748777Y-89581699D01*
X155888213Y-89742667D01*
X155895580Y-89749883D01*
X156059434Y-89885916D01*
X156067881Y-89891831D01*
X156136969Y-89932203D01*
X156185693Y-89983842D01*
X156198764Y-90053625D01*
X156172033Y-90119396D01*
X156131584Y-90152752D01*
X156118607Y-90159507D01*
X156114474Y-90162610D01*
X156114471Y-90162612D01*
X155969471Y-90271481D01*
X155939965Y-90293635D01*
X155785629Y-90455138D01*
X155659743Y-90639680D01*
X155637594Y-90687397D01*
X155579509Y-90812531D01*
X155565688Y-90842305D01*
X155505989Y-91057570D01*
X155482251Y-91279695D01*
X155482548Y-91284848D01*
X155482548Y-91284851D01*
X155488011Y-91379590D01*
X155495110Y-91502715D01*
X155521327Y-91619046D01*
X155516791Y-91689896D01*
X155487505Y-91735841D01*
X150611961Y-96611386D01*
X150605696Y-96617239D01*
X150565248Y-96652524D01*
X150560881Y-96658738D01*
X150531109Y-96701099D01*
X150527177Y-96706393D01*
X150490537Y-96753121D01*
X150487411Y-96760045D01*
X150483698Y-96766176D01*
X150481062Y-96770796D01*
X150477640Y-96777178D01*
X150473269Y-96783397D01*
X150470509Y-96790476D01*
X150451702Y-96838713D01*
X150449146Y-96844792D01*
X150424711Y-96898912D01*
X150423325Y-96906388D01*
X150421170Y-96913266D01*
X150419710Y-96918391D01*
X150417922Y-96925355D01*
X150415162Y-96932434D01*
X150414170Y-96939966D01*
X150414170Y-96939968D01*
X150407414Y-96991292D01*
X150406384Y-96997798D01*
X150395560Y-97056197D01*
X150395997Y-97063777D01*
X150395997Y-97063778D01*
X150398891Y-97113967D01*
X150399100Y-97121220D01*
X150399100Y-98736209D01*
X150379098Y-98804330D01*
X150340243Y-98842829D01*
X150338196Y-98844118D01*
X150333607Y-98846507D01*
X150329471Y-98849612D01*
X150329470Y-98849613D01*
X150312284Y-98862517D01*
X150154965Y-98980635D01*
X150129541Y-99007240D01*
X150061280Y-99078671D01*
X150000629Y-99142138D01*
X149893201Y-99299621D01*
X149838293Y-99344621D01*
X149767768Y-99352792D01*
X149704021Y-99321538D01*
X149683324Y-99297054D01*
X149602822Y-99172617D01*
X149602820Y-99172614D01*
X149600014Y-99168277D01*
X149449670Y-99003051D01*
X149445619Y-98999852D01*
X149445615Y-98999848D01*
X149278414Y-98867800D01*
X149278410Y-98867798D01*
X149274359Y-98864598D01*
X149246007Y-98848947D01*
X149196036Y-98798514D01*
X149180900Y-98738638D01*
X149180900Y-94883944D01*
X149200902Y-94815823D01*
X149217805Y-94794849D01*
X152325895Y-91686759D01*
X155456748Y-88555905D01*
X155519060Y-88521879D01*
X155545843Y-88519000D01*
X158163344Y-88519000D01*
X158176875Y-88515027D01*
X158178180Y-88505947D01*
X158136214Y-88338875D01*
X158132894Y-88329124D01*
X158047972Y-88133814D01*
X158043105Y-88124739D01*
X157927426Y-87945926D01*
X157921136Y-87937757D01*
X157777293Y-87779677D01*
X157746241Y-87715831D01*
X157754635Y-87645333D01*
X157799812Y-87590564D01*
X157826256Y-87576895D01*
X157933297Y-87536767D01*
X157941705Y-87533615D01*
X158058261Y-87446261D01*
X158145615Y-87329705D01*
X158196745Y-87193316D01*
X158203500Y-87131134D01*
X158203500Y-85334866D01*
X158196745Y-85272684D01*
X158145615Y-85136295D01*
X158058261Y-85019739D01*
X157941705Y-84932385D01*
X157805316Y-84881255D01*
X157743134Y-84874500D01*
X155946866Y-84874500D01*
X155884684Y-84881255D01*
X155748295Y-84932385D01*
X155631739Y-85019739D01*
X155544385Y-85136295D01*
X155493255Y-85272684D01*
X155486500Y-85334866D01*
X155486500Y-85395300D01*
X155466498Y-85463421D01*
X155412842Y-85509914D01*
X155360500Y-85521300D01*
X151538448Y-85521300D01*
X151470327Y-85501298D01*
X151423834Y-85447642D01*
X151423066Y-85445693D01*
X151420867Y-85440998D01*
X151418550Y-85434054D01*
X151325478Y-85283652D01*
X151288441Y-85246679D01*
X151214440Y-85172807D01*
X151200303Y-85158695D01*
X151194072Y-85154854D01*
X151055968Y-85069725D01*
X151055966Y-85069724D01*
X151049738Y-85065885D01*
X150969995Y-85039436D01*
X150888389Y-85012368D01*
X150888387Y-85012368D01*
X150881861Y-85010203D01*
X150875025Y-85009503D01*
X150875022Y-85009502D01*
X150829079Y-85004795D01*
X150777400Y-84999500D01*
X150001600Y-84999500D01*
X149998354Y-84999837D01*
X149998350Y-84999837D01*
X149902692Y-85009762D01*
X149902688Y-85009763D01*
X149895834Y-85010474D01*
X149889298Y-85012655D01*
X149889296Y-85012655D01*
X149884192Y-85014358D01*
X149728054Y-85066450D01*
X149577652Y-85159522D01*
X149452695Y-85284697D01*
X149449898Y-85289235D01*
X149392647Y-85329824D01*
X149321724Y-85333054D01*
X149260313Y-85297428D01*
X149252938Y-85288932D01*
X149244902Y-85278793D01*
X149130171Y-85164261D01*
X149118760Y-85155249D01*
X148980757Y-85070184D01*
X148967576Y-85064037D01*
X148813290Y-85012862D01*
X148799914Y-85009995D01*
X148705562Y-85000328D01*
X148699145Y-85000000D01*
X148586615Y-85000000D01*
X148571376Y-85004475D01*
X148570171Y-85005865D01*
X148568500Y-85013548D01*
X148568500Y-87447884D01*
X148572975Y-87463123D01*
X148574365Y-87464328D01*
X148582048Y-87465999D01*
X148699095Y-87465999D01*
X148705614Y-87465662D01*
X148801206Y-87455743D01*
X148814600Y-87452851D01*
X148968784Y-87401412D01*
X148981962Y-87395239D01*
X149119807Y-87309937D01*
X149131208Y-87300901D01*
X149245738Y-87186172D01*
X149252794Y-87177238D01*
X149310712Y-87136177D01*
X149381635Y-87132947D01*
X149443046Y-87168574D01*
X149449846Y-87176407D01*
X149453522Y-87182348D01*
X149578697Y-87307305D01*
X149584927Y-87311145D01*
X149584928Y-87311146D01*
X149722288Y-87395816D01*
X149729262Y-87400115D01*
X149809005Y-87426564D01*
X149890611Y-87453632D01*
X149890613Y-87453632D01*
X149897139Y-87455797D01*
X149903975Y-87456497D01*
X149903978Y-87456498D01*
X149947031Y-87460909D01*
X150001600Y-87466500D01*
X150777400Y-87466500D01*
X150780646Y-87466163D01*
X150780650Y-87466163D01*
X150876308Y-87456238D01*
X150876312Y-87456237D01*
X150883166Y-87455526D01*
X150889702Y-87453345D01*
X150889704Y-87453345D01*
X151021806Y-87409272D01*
X151050946Y-87399550D01*
X151201348Y-87306478D01*
X151326305Y-87181303D01*
X151331203Y-87173358D01*
X151415274Y-87036969D01*
X151419115Y-87030738D01*
X151421420Y-87023787D01*
X151424374Y-87017453D01*
X151471290Y-86964167D01*
X151538570Y-86944700D01*
X154894456Y-86944700D01*
X154962577Y-86964702D01*
X155009070Y-87018358D01*
X155019174Y-87088632D01*
X154989680Y-87153212D01*
X154983551Y-87159795D01*
X148071961Y-94071386D01*
X148065696Y-94077239D01*
X148025248Y-94112524D01*
X147995570Y-94154751D01*
X147991109Y-94161099D01*
X147987177Y-94166393D01*
X147950537Y-94213121D01*
X147947411Y-94220045D01*
X147943698Y-94226176D01*
X147941062Y-94230796D01*
X147937640Y-94237178D01*
X147933269Y-94243397D01*
X147912584Y-94296452D01*
X147911702Y-94298713D01*
X147909146Y-94304792D01*
X147884711Y-94358912D01*
X147883325Y-94366388D01*
X147881170Y-94373266D01*
X147879710Y-94378391D01*
X147877922Y-94385355D01*
X147875162Y-94392434D01*
X147874170Y-94399966D01*
X147874170Y-94399968D01*
X147867414Y-94451292D01*
X147866384Y-94457798D01*
X147855560Y-94516197D01*
X147855997Y-94523777D01*
X147855997Y-94523778D01*
X147858891Y-94573967D01*
X147859100Y-94581220D01*
X147859100Y-98736209D01*
X147839098Y-98804330D01*
X147800243Y-98842829D01*
X147798196Y-98844118D01*
X147793607Y-98846507D01*
X147789471Y-98849612D01*
X147789470Y-98849613D01*
X147772284Y-98862517D01*
X147614965Y-98980635D01*
X147589541Y-99007240D01*
X147521280Y-99078671D01*
X147460629Y-99142138D01*
X147457720Y-99146403D01*
X147457714Y-99146411D01*
X147445404Y-99164457D01*
X147353204Y-99299618D01*
X147352898Y-99300066D01*
X147297987Y-99345069D01*
X147227462Y-99353240D01*
X147163715Y-99321986D01*
X147143018Y-99297502D01*
X147062426Y-99172926D01*
X147056136Y-99164757D01*
X146912806Y-99007240D01*
X146905273Y-99000215D01*
X146738139Y-98868222D01*
X146729552Y-98862517D01*
X146543117Y-98759599D01*
X146533705Y-98755369D01*
X146332959Y-98684280D01*
X146322988Y-98681646D01*
X146251837Y-98668972D01*
X146238540Y-98670432D01*
X146234000Y-98684989D01*
X146234000Y-100128000D01*
X146213998Y-100196121D01*
X146160342Y-100242614D01*
X146108000Y-100254000D01*
X144663225Y-100254000D01*
X144649694Y-100257973D01*
X144648257Y-100267966D01*
X144678565Y-100402446D01*
X144681645Y-100412275D01*
X144761770Y-100609603D01*
X144766413Y-100618794D01*
X144877694Y-100800388D01*
X144883777Y-100808699D01*
X145023213Y-100969667D01*
X145030580Y-100976883D01*
X145194434Y-101112916D01*
X145202881Y-101118831D01*
X145386756Y-101226279D01*
X145396042Y-101230729D01*
X145440722Y-101247790D01*
X145497225Y-101290777D01*
X145521518Y-101357488D01*
X145505888Y-101426743D01*
X145455297Y-101476554D01*
X145395773Y-101491500D01*
X142370226Y-101491500D01*
X142302105Y-101471498D01*
X142255612Y-101417842D01*
X142245508Y-101347568D01*
X142275002Y-101282988D01*
X142294661Y-101264674D01*
X142356080Y-101218643D01*
X142356081Y-101218642D01*
X142363261Y-101213261D01*
X142450615Y-101096705D01*
X142501745Y-100960316D01*
X142508500Y-100898134D01*
X142508500Y-99734183D01*
X144644389Y-99734183D01*
X144645912Y-99742607D01*
X144658292Y-99746000D01*
X145707885Y-99746000D01*
X145723124Y-99741525D01*
X145724329Y-99740135D01*
X145726000Y-99732452D01*
X145726000Y-98683102D01*
X145722082Y-98669758D01*
X145707806Y-98667771D01*
X145669324Y-98673660D01*
X145659288Y-98676051D01*
X145456868Y-98742212D01*
X145447359Y-98746209D01*
X145258463Y-98844542D01*
X145249738Y-98850036D01*
X145079433Y-98977905D01*
X145071726Y-98984748D01*
X144924590Y-99138717D01*
X144918104Y-99146727D01*
X144798098Y-99322649D01*
X144793000Y-99331623D01*
X144703338Y-99524783D01*
X144699775Y-99534470D01*
X144644389Y-99734183D01*
X142508500Y-99734183D01*
X142508500Y-99101866D01*
X142501745Y-99039684D01*
X142450615Y-98903295D01*
X142363261Y-98786739D01*
X142246705Y-98699385D01*
X142110316Y-98648255D01*
X142048134Y-98641500D01*
X141936900Y-98641500D01*
X141868779Y-98621498D01*
X141822286Y-98567842D01*
X141810900Y-98515500D01*
X141810900Y-86755095D01*
X147219001Y-86755095D01*
X147219338Y-86761614D01*
X147229257Y-86857206D01*
X147232149Y-86870600D01*
X147283588Y-87024784D01*
X147289761Y-87037962D01*
X147375063Y-87175807D01*
X147384099Y-87187208D01*
X147498829Y-87301739D01*
X147510240Y-87310751D01*
X147648243Y-87395816D01*
X147661424Y-87401963D01*
X147815710Y-87453138D01*
X147829086Y-87456005D01*
X147923438Y-87465672D01*
X147929854Y-87466000D01*
X148042385Y-87466000D01*
X148057624Y-87461525D01*
X148058829Y-87460135D01*
X148060500Y-87452452D01*
X148060500Y-86505115D01*
X148056025Y-86489876D01*
X148054635Y-86488671D01*
X148046952Y-86487000D01*
X147237116Y-86487000D01*
X147221877Y-86491475D01*
X147220672Y-86492865D01*
X147219001Y-86500548D01*
X147219001Y-86755095D01*
X141810900Y-86755095D01*
X141810900Y-85960885D01*
X147219000Y-85960885D01*
X147223475Y-85976124D01*
X147224865Y-85977329D01*
X147232548Y-85979000D01*
X148042385Y-85979000D01*
X148057624Y-85974525D01*
X148058829Y-85973135D01*
X148060500Y-85965452D01*
X148060500Y-85018116D01*
X148056025Y-85002877D01*
X148054635Y-85001672D01*
X148046952Y-85000001D01*
X147929905Y-85000001D01*
X147923386Y-85000338D01*
X147827794Y-85010257D01*
X147814400Y-85013149D01*
X147660216Y-85064588D01*
X147647038Y-85070761D01*
X147509193Y-85156063D01*
X147497792Y-85165099D01*
X147383261Y-85279829D01*
X147374249Y-85291240D01*
X147289184Y-85429243D01*
X147283037Y-85442424D01*
X147231862Y-85596710D01*
X147228995Y-85610086D01*
X147219328Y-85704438D01*
X147219000Y-85710855D01*
X147219000Y-85960885D01*
X141810900Y-85960885D01*
X141810900Y-80913095D01*
X147219001Y-80913095D01*
X147219338Y-80919614D01*
X147229257Y-81015206D01*
X147232149Y-81028600D01*
X147283588Y-81182784D01*
X147289761Y-81195962D01*
X147375063Y-81333807D01*
X147384099Y-81345208D01*
X147498829Y-81459739D01*
X147510240Y-81468751D01*
X147648243Y-81553816D01*
X147661424Y-81559963D01*
X147815710Y-81611138D01*
X147829086Y-81614005D01*
X147923438Y-81623672D01*
X147929854Y-81624000D01*
X148042385Y-81624000D01*
X148057624Y-81619525D01*
X148058829Y-81618135D01*
X148060500Y-81610452D01*
X148060500Y-81605884D01*
X148568500Y-81605884D01*
X148572975Y-81621123D01*
X148574365Y-81622328D01*
X148582048Y-81623999D01*
X148699095Y-81623999D01*
X148705614Y-81623662D01*
X148801206Y-81613743D01*
X148814600Y-81610851D01*
X148968784Y-81559412D01*
X148981962Y-81553239D01*
X149119807Y-81467937D01*
X149131208Y-81458901D01*
X149245738Y-81344172D01*
X149252794Y-81335238D01*
X149310712Y-81294177D01*
X149381635Y-81290947D01*
X149443046Y-81326574D01*
X149449846Y-81334407D01*
X149453522Y-81340348D01*
X149578697Y-81465305D01*
X149584927Y-81469145D01*
X149584928Y-81469146D01*
X149722288Y-81553816D01*
X149729262Y-81558115D01*
X149809005Y-81584564D01*
X149890611Y-81611632D01*
X149890613Y-81611632D01*
X149897139Y-81613797D01*
X149903975Y-81614497D01*
X149903978Y-81614498D01*
X149947031Y-81618909D01*
X150001600Y-81624500D01*
X150777400Y-81624500D01*
X150780646Y-81624163D01*
X150780650Y-81624163D01*
X150876308Y-81614238D01*
X150876312Y-81614237D01*
X150883166Y-81613526D01*
X150889702Y-81611345D01*
X150889704Y-81611345D01*
X151021806Y-81567272D01*
X151050946Y-81557550D01*
X151201348Y-81464478D01*
X151326305Y-81339303D01*
X151365619Y-81275525D01*
X151415274Y-81194969D01*
X151419115Y-81188738D01*
X151421420Y-81181787D01*
X151424374Y-81175453D01*
X151471290Y-81122167D01*
X151538570Y-81102700D01*
X155617195Y-81102700D01*
X155685316Y-81122702D01*
X155724628Y-81162865D01*
X155744987Y-81196088D01*
X155891250Y-81364938D01*
X156063126Y-81507632D01*
X156256000Y-81620338D01*
X156260825Y-81622180D01*
X156260826Y-81622181D01*
X156266040Y-81624172D01*
X156464692Y-81700030D01*
X156469760Y-81701061D01*
X156469763Y-81701062D01*
X156577017Y-81722883D01*
X156683597Y-81744567D01*
X156688772Y-81744757D01*
X156688774Y-81744757D01*
X156901673Y-81752564D01*
X156901677Y-81752564D01*
X156906837Y-81752753D01*
X156911957Y-81752097D01*
X156911959Y-81752097D01*
X157123288Y-81725025D01*
X157123289Y-81725025D01*
X157128416Y-81724368D01*
X157133366Y-81722883D01*
X157337429Y-81661661D01*
X157337434Y-81661659D01*
X157342384Y-81660174D01*
X157542994Y-81561896D01*
X157724860Y-81432173D01*
X157883096Y-81274489D01*
X157942594Y-81191689D01*
X158010435Y-81097277D01*
X158013453Y-81093077D01*
X158045320Y-81028600D01*
X158110136Y-80897453D01*
X158110137Y-80897451D01*
X158112430Y-80892811D01*
X158177370Y-80679069D01*
X158206529Y-80457590D01*
X158208156Y-80391000D01*
X158189852Y-80168361D01*
X158135431Y-79951702D01*
X158046354Y-79746840D01*
X157947000Y-79593262D01*
X157927822Y-79563617D01*
X157927820Y-79563614D01*
X157925014Y-79559277D01*
X157774670Y-79394051D01*
X157770619Y-79390852D01*
X157770615Y-79390848D01*
X157603414Y-79258800D01*
X157603410Y-79258798D01*
X157599359Y-79255598D01*
X157557569Y-79232529D01*
X157507598Y-79182097D01*
X157492826Y-79112654D01*
X157517942Y-79046248D01*
X157545294Y-79019641D01*
X157720328Y-78894792D01*
X157728200Y-78888139D01*
X157879052Y-78737812D01*
X157885730Y-78729965D01*
X158010003Y-78557020D01*
X158015313Y-78548183D01*
X158109670Y-78357267D01*
X158113469Y-78347672D01*
X158175377Y-78143910D01*
X158177555Y-78133837D01*
X158178986Y-78122962D01*
X158176775Y-78108778D01*
X158163617Y-78105000D01*
X155528225Y-78105000D01*
X155514694Y-78108973D01*
X155513257Y-78118966D01*
X155543565Y-78253446D01*
X155546645Y-78263275D01*
X155626770Y-78460603D01*
X155631413Y-78469794D01*
X155742694Y-78651388D01*
X155748777Y-78659699D01*
X155888213Y-78820667D01*
X155895580Y-78827883D01*
X156059434Y-78963916D01*
X156067881Y-78969831D01*
X156136969Y-79010203D01*
X156185693Y-79061842D01*
X156198764Y-79131625D01*
X156172033Y-79197396D01*
X156131584Y-79230752D01*
X156118607Y-79237507D01*
X156114474Y-79240610D01*
X156114471Y-79240612D01*
X155992972Y-79331836D01*
X155939965Y-79371635D01*
X155908868Y-79404176D01*
X155846173Y-79469783D01*
X155785629Y-79533138D01*
X155723438Y-79624306D01*
X155668529Y-79669307D01*
X155619352Y-79679300D01*
X151538448Y-79679300D01*
X151470327Y-79659298D01*
X151423834Y-79605642D01*
X151423066Y-79603693D01*
X151420867Y-79598998D01*
X151418550Y-79592054D01*
X151325478Y-79441652D01*
X151200303Y-79316695D01*
X151194072Y-79312854D01*
X151055968Y-79227725D01*
X151055966Y-79227724D01*
X151049738Y-79223885D01*
X150969876Y-79197396D01*
X150888389Y-79170368D01*
X150888387Y-79170368D01*
X150881861Y-79168203D01*
X150875025Y-79167503D01*
X150875022Y-79167502D01*
X150831969Y-79163091D01*
X150777400Y-79157500D01*
X150001600Y-79157500D01*
X149998354Y-79157837D01*
X149998350Y-79157837D01*
X149902692Y-79167762D01*
X149902688Y-79167763D01*
X149895834Y-79168474D01*
X149889298Y-79170655D01*
X149889296Y-79170655D01*
X149809144Y-79197396D01*
X149728054Y-79224450D01*
X149577652Y-79317522D01*
X149452695Y-79442697D01*
X149449898Y-79447235D01*
X149392647Y-79487824D01*
X149321724Y-79491054D01*
X149260313Y-79455428D01*
X149252938Y-79446932D01*
X149244902Y-79436793D01*
X149130171Y-79322261D01*
X149118760Y-79313249D01*
X148980757Y-79228184D01*
X148967576Y-79222037D01*
X148813290Y-79170862D01*
X148799914Y-79167995D01*
X148705562Y-79158328D01*
X148699145Y-79158000D01*
X148586615Y-79158000D01*
X148571376Y-79162475D01*
X148570171Y-79163865D01*
X148568500Y-79171548D01*
X148568500Y-81605884D01*
X148060500Y-81605884D01*
X148060500Y-80663115D01*
X148056025Y-80647876D01*
X148054635Y-80646671D01*
X148046952Y-80645000D01*
X147237116Y-80645000D01*
X147221877Y-80649475D01*
X147220672Y-80650865D01*
X147219001Y-80658548D01*
X147219001Y-80913095D01*
X141810900Y-80913095D01*
X141810900Y-80118885D01*
X147219000Y-80118885D01*
X147223475Y-80134124D01*
X147224865Y-80135329D01*
X147232548Y-80137000D01*
X148042385Y-80137000D01*
X148057624Y-80132525D01*
X148058829Y-80131135D01*
X148060500Y-80123452D01*
X148060500Y-79176116D01*
X148056025Y-79160877D01*
X148054635Y-79159672D01*
X148046952Y-79158001D01*
X147929905Y-79158001D01*
X147923386Y-79158338D01*
X147827794Y-79168257D01*
X147814400Y-79171149D01*
X147660216Y-79222588D01*
X147647038Y-79228761D01*
X147509193Y-79314063D01*
X147497792Y-79323099D01*
X147383261Y-79437829D01*
X147374249Y-79449240D01*
X147289184Y-79587243D01*
X147283037Y-79600424D01*
X147231862Y-79754710D01*
X147228995Y-79768086D01*
X147219328Y-79862438D01*
X147219000Y-79868855D01*
X147219000Y-80118885D01*
X141810900Y-80118885D01*
X141810900Y-79958500D01*
X141830902Y-79890379D01*
X141884558Y-79843886D01*
X141936900Y-79832500D01*
X141978400Y-79832500D01*
X141981646Y-79832163D01*
X141981650Y-79832163D01*
X142077308Y-79822238D01*
X142077312Y-79822237D01*
X142084166Y-79821526D01*
X142090702Y-79819345D01*
X142090704Y-79819345D01*
X142222806Y-79775272D01*
X142251946Y-79765550D01*
X142402348Y-79672478D01*
X142527305Y-79547303D01*
X142531146Y-79541072D01*
X142616275Y-79402968D01*
X142616276Y-79402966D01*
X142620115Y-79396738D01*
X142648111Y-79312331D01*
X142673632Y-79235389D01*
X142673632Y-79235387D01*
X142675797Y-79228861D01*
X142686500Y-79124400D01*
X142686500Y-78373600D01*
X142686163Y-78370350D01*
X142676238Y-78274692D01*
X142676237Y-78274688D01*
X142675526Y-78267834D01*
X142672904Y-78259973D01*
X142621868Y-78107002D01*
X142619550Y-78100054D01*
X142526478Y-77949652D01*
X142401303Y-77824695D01*
X142397084Y-77822094D01*
X142356583Y-77764970D01*
X142353351Y-77694047D01*
X142388976Y-77632635D01*
X142396530Y-77626078D01*
X142402348Y-77622478D01*
X142527305Y-77497303D01*
X142576882Y-77416875D01*
X142616275Y-77352968D01*
X142616276Y-77352966D01*
X142620115Y-77346738D01*
X142675797Y-77178861D01*
X142686500Y-77074400D01*
X142686500Y-76323600D01*
X142681239Y-76272891D01*
X142676238Y-76224692D01*
X142676237Y-76224688D01*
X142675526Y-76217834D01*
X142667738Y-76194489D01*
X142621868Y-76057002D01*
X142619550Y-76050054D01*
X142526478Y-75899652D01*
X142407890Y-75781271D01*
X142373812Y-75718990D01*
X142378815Y-75648170D01*
X142407736Y-75603081D01*
X142522134Y-75488483D01*
X142527305Y-75483303D01*
X142586855Y-75386695D01*
X142616275Y-75338968D01*
X142616276Y-75338966D01*
X142620115Y-75332738D01*
X142675797Y-75164861D01*
X142678391Y-75139549D01*
X142686172Y-75063598D01*
X142686500Y-75060400D01*
X142686500Y-74259600D01*
X142686163Y-74256350D01*
X142676238Y-74160692D01*
X142676237Y-74160688D01*
X142675526Y-74153834D01*
X142663461Y-74117669D01*
X142621868Y-73993002D01*
X142619550Y-73986054D01*
X142526478Y-73835652D01*
X142499308Y-73808529D01*
X142439537Y-73748862D01*
X142405458Y-73686579D01*
X142410461Y-73615759D01*
X142439382Y-73570671D01*
X142521739Y-73488171D01*
X142530751Y-73476760D01*
X142615816Y-73338757D01*
X142621963Y-73325576D01*
X142673138Y-73171290D01*
X142676005Y-73157914D01*
X142685672Y-73063562D01*
X142686000Y-73057146D01*
X142686000Y-72932115D01*
X142681525Y-72916876D01*
X142680135Y-72915671D01*
X142672452Y-72914000D01*
X140288116Y-72914000D01*
X140272877Y-72918475D01*
X140271672Y-72919865D01*
X140270001Y-72927548D01*
X140270001Y-73057095D01*
X140270338Y-73063614D01*
X140280257Y-73159206D01*
X140283149Y-73172600D01*
X140334588Y-73326784D01*
X140340761Y-73339962D01*
X140426063Y-73477807D01*
X140435099Y-73489208D01*
X140516462Y-73570430D01*
X140550541Y-73632713D01*
X140545538Y-73703533D01*
X140516617Y-73748620D01*
X140433870Y-73831512D01*
X140433866Y-73831517D01*
X140428695Y-73836697D01*
X140424855Y-73842927D01*
X140424854Y-73842928D01*
X140340670Y-73979500D01*
X140335885Y-73987262D01*
X140333581Y-73994209D01*
X140294023Y-74113474D01*
X140280203Y-74155139D01*
X140279503Y-74161975D01*
X140279502Y-74161978D01*
X140278107Y-74175598D01*
X140269500Y-74259600D01*
X140269500Y-75060400D01*
X140269837Y-75063646D01*
X140269837Y-75063650D01*
X140272937Y-75093522D01*
X140280474Y-75166166D01*
X140336450Y-75333946D01*
X140429522Y-75484348D01*
X140544444Y-75599069D01*
X140548109Y-75602728D01*
X140582188Y-75665010D01*
X140577185Y-75735830D01*
X140548264Y-75780919D01*
X140485494Y-75843799D01*
X140428695Y-75900697D01*
X140424855Y-75906927D01*
X140424854Y-75906928D01*
X140347374Y-76032624D01*
X140335885Y-76051262D01*
X140280203Y-76219139D01*
X140279503Y-76225975D01*
X140279502Y-76225978D01*
X140278012Y-76240521D01*
X140269500Y-76323600D01*
X140269500Y-77074400D01*
X140280474Y-77180166D01*
X140282655Y-77186702D01*
X140282655Y-77186704D01*
X140326728Y-77318806D01*
X140336450Y-77347946D01*
X140429522Y-77498348D01*
X140554697Y-77623305D01*
X140558916Y-77625906D01*
X140599417Y-77683030D01*
X140602649Y-77753953D01*
X140567024Y-77815365D01*
X140559470Y-77821922D01*
X140553652Y-77825522D01*
X140428695Y-77950697D01*
X140424855Y-77956927D01*
X140424854Y-77956928D01*
X140356328Y-78068098D01*
X140335885Y-78101262D01*
X140315650Y-78162269D01*
X140286591Y-78249881D01*
X140280203Y-78269139D01*
X140279503Y-78275975D01*
X140279502Y-78275978D01*
X140275091Y-78319031D01*
X140269500Y-78373600D01*
X140269500Y-79124400D01*
X140269837Y-79127646D01*
X140269837Y-79127650D01*
X140270533Y-79134357D01*
X140275487Y-79182097D01*
X140278406Y-79210232D01*
X140265541Y-79280053D01*
X140216971Y-79331836D01*
X140148115Y-79349138D01*
X140080835Y-79326468D01*
X140063984Y-79312331D01*
X139052614Y-78300961D01*
X139046760Y-78294695D01*
X139016470Y-78259973D01*
X139011476Y-78254248D01*
X138962898Y-78220107D01*
X138957604Y-78216175D01*
X138916855Y-78184223D01*
X138916856Y-78184223D01*
X138910879Y-78179537D01*
X138903955Y-78176411D01*
X138897824Y-78172698D01*
X138893204Y-78170062D01*
X138886822Y-78166640D01*
X138880603Y-78162269D01*
X138825286Y-78140701D01*
X138819207Y-78138146D01*
X138785577Y-78122962D01*
X138765088Y-78113711D01*
X138757612Y-78112325D01*
X138750734Y-78110170D01*
X138745609Y-78108710D01*
X138738645Y-78106922D01*
X138731566Y-78104162D01*
X138724034Y-78103170D01*
X138724032Y-78103170D01*
X138698804Y-78099849D01*
X138672700Y-78096413D01*
X138666202Y-78095384D01*
X138607803Y-78084560D01*
X138600223Y-78084997D01*
X138600222Y-78084997D01*
X138550033Y-78087891D01*
X138542780Y-78088100D01*
X137094355Y-78088100D01*
X137026234Y-78068098D01*
X136987211Y-78028403D01*
X136942332Y-77955880D01*
X136938478Y-77949652D01*
X136813303Y-77824695D01*
X136809084Y-77822094D01*
X136768583Y-77764970D01*
X136765351Y-77694047D01*
X136800976Y-77632635D01*
X136808530Y-77626078D01*
X136814348Y-77622478D01*
X136939305Y-77497303D01*
X136988882Y-77416875D01*
X137028275Y-77352968D01*
X137028276Y-77352966D01*
X137032115Y-77346738D01*
X137087797Y-77178861D01*
X137098500Y-77074400D01*
X137098500Y-76323600D01*
X137093239Y-76272891D01*
X137088238Y-76224692D01*
X137088237Y-76224688D01*
X137087526Y-76217834D01*
X137079738Y-76194489D01*
X137033868Y-76057002D01*
X137031550Y-76050054D01*
X136938478Y-75899652D01*
X136819890Y-75781271D01*
X136785812Y-75718990D01*
X136790815Y-75648170D01*
X136819736Y-75603081D01*
X136934134Y-75488483D01*
X136939305Y-75483303D01*
X136998855Y-75386695D01*
X137028275Y-75338968D01*
X137028276Y-75338966D01*
X137032115Y-75332738D01*
X137087797Y-75164861D01*
X137090391Y-75139549D01*
X137098172Y-75063598D01*
X137098500Y-75060400D01*
X137098500Y-74259600D01*
X137098163Y-74256350D01*
X137088238Y-74160692D01*
X137088237Y-74160688D01*
X137087526Y-74153834D01*
X137075461Y-74117669D01*
X137033868Y-73993002D01*
X137031550Y-73986054D01*
X136938478Y-73835652D01*
X136911308Y-73808529D01*
X136851537Y-73748862D01*
X136817458Y-73686579D01*
X136822461Y-73615759D01*
X136851382Y-73570671D01*
X136933739Y-73488171D01*
X136942751Y-73476760D01*
X137027816Y-73338757D01*
X137033963Y-73325576D01*
X137085138Y-73171290D01*
X137088005Y-73157914D01*
X137097672Y-73063562D01*
X137098000Y-73057146D01*
X137098000Y-72932115D01*
X137093525Y-72916876D01*
X137092135Y-72915671D01*
X137084452Y-72914000D01*
X135762000Y-72914000D01*
X135693879Y-72893998D01*
X135647386Y-72840342D01*
X135636000Y-72788000D01*
X135636000Y-72387885D01*
X136144000Y-72387885D01*
X136148475Y-72403124D01*
X136149865Y-72404329D01*
X136157548Y-72406000D01*
X137079884Y-72406000D01*
X137095123Y-72401525D01*
X137096328Y-72400135D01*
X137097999Y-72392452D01*
X137097999Y-72387885D01*
X140270000Y-72387885D01*
X140274475Y-72403124D01*
X140275865Y-72404329D01*
X140283548Y-72406000D01*
X141205885Y-72406000D01*
X141221124Y-72401525D01*
X141222329Y-72400135D01*
X141224000Y-72392452D01*
X141224000Y-72387885D01*
X141732000Y-72387885D01*
X141736475Y-72403124D01*
X141737865Y-72404329D01*
X141745548Y-72406000D01*
X142667884Y-72406000D01*
X142683123Y-72401525D01*
X142684328Y-72400135D01*
X142685999Y-72392452D01*
X142685999Y-72262905D01*
X142685662Y-72256386D01*
X142675743Y-72160794D01*
X142672851Y-72147400D01*
X142621412Y-71993216D01*
X142615239Y-71980038D01*
X142529937Y-71842193D01*
X142520901Y-71830792D01*
X142406171Y-71716261D01*
X142394760Y-71707249D01*
X142256757Y-71622184D01*
X142243576Y-71616037D01*
X142089290Y-71564862D01*
X142075914Y-71561995D01*
X141981562Y-71552328D01*
X141975145Y-71552000D01*
X141750115Y-71552000D01*
X141734876Y-71556475D01*
X141733671Y-71557865D01*
X141732000Y-71565548D01*
X141732000Y-72387885D01*
X141224000Y-72387885D01*
X141224000Y-71570116D01*
X141219525Y-71554877D01*
X141218135Y-71553672D01*
X141210452Y-71552001D01*
X140980905Y-71552001D01*
X140974386Y-71552338D01*
X140878794Y-71562257D01*
X140865400Y-71565149D01*
X140711216Y-71616588D01*
X140698038Y-71622761D01*
X140560193Y-71708063D01*
X140548792Y-71717099D01*
X140434261Y-71831829D01*
X140425249Y-71843240D01*
X140340184Y-71981243D01*
X140334037Y-71994424D01*
X140282862Y-72148710D01*
X140279995Y-72162086D01*
X140270328Y-72256438D01*
X140270000Y-72262855D01*
X140270000Y-72387885D01*
X137097999Y-72387885D01*
X137097999Y-72262905D01*
X137097662Y-72256386D01*
X137087743Y-72160794D01*
X137084851Y-72147400D01*
X137033412Y-71993216D01*
X137027239Y-71980038D01*
X136941937Y-71842193D01*
X136932901Y-71830792D01*
X136818171Y-71716261D01*
X136806760Y-71707249D01*
X136668757Y-71622184D01*
X136655576Y-71616037D01*
X136501290Y-71564862D01*
X136487914Y-71561995D01*
X136393562Y-71552328D01*
X136387145Y-71552000D01*
X136162115Y-71552000D01*
X136146876Y-71556475D01*
X136145671Y-71557865D01*
X136144000Y-71565548D01*
X136144000Y-72387885D01*
X135636000Y-72387885D01*
X135636000Y-71570116D01*
X135631525Y-71554877D01*
X135630135Y-71553672D01*
X135622452Y-71552001D01*
X135392905Y-71552001D01*
X135386386Y-71552338D01*
X135290794Y-71562257D01*
X135277400Y-71565149D01*
X135123216Y-71616588D01*
X135110038Y-71622761D01*
X135092203Y-71633798D01*
X135023751Y-71652636D01*
X134955982Y-71631475D01*
X134910410Y-71577034D01*
X134899900Y-71526654D01*
X134899900Y-64118978D01*
X134919902Y-64050857D01*
X134973558Y-64004364D01*
X135043832Y-63994260D01*
X135108412Y-64023754D01*
X135114995Y-64029883D01*
X146789589Y-75704477D01*
X146797166Y-75712803D01*
X146801291Y-75719303D01*
X146807069Y-75724729D01*
X146807070Y-75724730D01*
X146851125Y-75766100D01*
X146853967Y-75768855D01*
X146873750Y-75788638D01*
X146876958Y-75791126D01*
X146885987Y-75798837D01*
X146918338Y-75829217D01*
X146925287Y-75833037D01*
X146936173Y-75839022D01*
X146952697Y-75849876D01*
X146968777Y-75862349D01*
X146976054Y-75865498D01*
X147009494Y-75879969D01*
X147020155Y-75885192D01*
X147052091Y-75902749D01*
X147052096Y-75902751D01*
X147059041Y-75906569D01*
X147066715Y-75908539D01*
X147066722Y-75908542D01*
X147078757Y-75911632D01*
X147097462Y-75918036D01*
X147108857Y-75922967D01*
X147116136Y-75926117D01*
X147143186Y-75930401D01*
X147159971Y-75933060D01*
X147171584Y-75935465D01*
X147214562Y-75946500D01*
X147234909Y-75946500D01*
X147254621Y-75948051D01*
X147274723Y-75951235D01*
X147282615Y-75950489D01*
X147318900Y-75947059D01*
X147330758Y-75946500D01*
X147443470Y-75946500D01*
X147511591Y-75966502D01*
X147558084Y-76020158D01*
X147562994Y-76032624D01*
X147580450Y-76084946D01*
X147673522Y-76235348D01*
X147798697Y-76360305D01*
X147804927Y-76364145D01*
X147804928Y-76364146D01*
X147942090Y-76448694D01*
X147949262Y-76453115D01*
X148002503Y-76470774D01*
X148110611Y-76506632D01*
X148110613Y-76506632D01*
X148117139Y-76508797D01*
X148123975Y-76509497D01*
X148123978Y-76509498D01*
X148167031Y-76513909D01*
X148221600Y-76519500D01*
X149022400Y-76519500D01*
X149025646Y-76519163D01*
X149025650Y-76519163D01*
X149121308Y-76509238D01*
X149121312Y-76509237D01*
X149128166Y-76508526D01*
X149134702Y-76506345D01*
X149134704Y-76506345D01*
X149266806Y-76462272D01*
X149295946Y-76452550D01*
X149446348Y-76359478D01*
X149532784Y-76272891D01*
X149595066Y-76238812D01*
X149665886Y-76243815D01*
X149710975Y-76272736D01*
X149726506Y-76288240D01*
X149798697Y-76360305D01*
X149804927Y-76364145D01*
X149804928Y-76364146D01*
X149942090Y-76448694D01*
X149949262Y-76453115D01*
X150002503Y-76470774D01*
X150110611Y-76506632D01*
X150110613Y-76506632D01*
X150117139Y-76508797D01*
X150123975Y-76509497D01*
X150123978Y-76509498D01*
X150167031Y-76513909D01*
X150221600Y-76519500D01*
X151022400Y-76519500D01*
X151025646Y-76519163D01*
X151025650Y-76519163D01*
X151121308Y-76509238D01*
X151121312Y-76509237D01*
X151128166Y-76508526D01*
X151134702Y-76506345D01*
X151134704Y-76506345D01*
X151266806Y-76462272D01*
X151295946Y-76452550D01*
X151446348Y-76359478D01*
X151571305Y-76234303D01*
X151644174Y-76116088D01*
X151660275Y-76089968D01*
X151660276Y-76089966D01*
X151664115Y-76083738D01*
X151681000Y-76032832D01*
X151721432Y-75974472D01*
X151786996Y-75947236D01*
X151800593Y-75946500D01*
X155570500Y-75946500D01*
X155638621Y-75966502D01*
X155677933Y-76006666D01*
X155742287Y-76111683D01*
X155742291Y-76111688D01*
X155744987Y-76116088D01*
X155891250Y-76284938D01*
X156063126Y-76427632D01*
X156100164Y-76449275D01*
X156136955Y-76470774D01*
X156185679Y-76522412D01*
X156198750Y-76592195D01*
X156172019Y-76657967D01*
X156131562Y-76691327D01*
X156123457Y-76695546D01*
X156114738Y-76701036D01*
X155944433Y-76828905D01*
X155936726Y-76835748D01*
X155789590Y-76989717D01*
X155783104Y-76997727D01*
X155663098Y-77173649D01*
X155658000Y-77182623D01*
X155568338Y-77375783D01*
X155564775Y-77385470D01*
X155509389Y-77585183D01*
X155510912Y-77593607D01*
X155523292Y-77597000D01*
X158163344Y-77597000D01*
X158176875Y-77593027D01*
X158178180Y-77583947D01*
X158136214Y-77416875D01*
X158132894Y-77407124D01*
X158047972Y-77211814D01*
X158043105Y-77202739D01*
X157927426Y-77023926D01*
X157921136Y-77015757D01*
X157777806Y-76858240D01*
X157770273Y-76851215D01*
X157603139Y-76719222D01*
X157594556Y-76713520D01*
X157557602Y-76693120D01*
X157507631Y-76642687D01*
X157492859Y-76573245D01*
X157517975Y-76506839D01*
X157545327Y-76480232D01*
X157589542Y-76448694D01*
X157724860Y-76352173D01*
X157756795Y-76320350D01*
X157859669Y-76217834D01*
X157883096Y-76194489D01*
X157913574Y-76152075D01*
X158010435Y-76017277D01*
X158013453Y-76013077D01*
X158016622Y-76006666D01*
X158110136Y-75817453D01*
X158110137Y-75817451D01*
X158112430Y-75812811D01*
X158177370Y-75599069D01*
X158206529Y-75377590D01*
X158207512Y-75337356D01*
X158208074Y-75314365D01*
X158208074Y-75314361D01*
X158208156Y-75311000D01*
X158189852Y-75088361D01*
X158135431Y-74871702D01*
X158046354Y-74666840D01*
X157973470Y-74554178D01*
X157927822Y-74483617D01*
X157927820Y-74483614D01*
X157925014Y-74479277D01*
X157774670Y-74314051D01*
X157770619Y-74310852D01*
X157770615Y-74310848D01*
X157603414Y-74178800D01*
X157603410Y-74178798D01*
X157599359Y-74175598D01*
X157558053Y-74152796D01*
X157508084Y-74102364D01*
X157493312Y-74032921D01*
X157518428Y-73966516D01*
X157545780Y-73939909D01*
X157589603Y-73908650D01*
X157724860Y-73812173D01*
X157788636Y-73748620D01*
X157879435Y-73658137D01*
X157883096Y-73654489D01*
X157909399Y-73617885D01*
X158010435Y-73477277D01*
X158013453Y-73473077D01*
X158016622Y-73466666D01*
X158110136Y-73277453D01*
X158110137Y-73277451D01*
X158112430Y-73272811D01*
X158146946Y-73159206D01*
X158175865Y-73064023D01*
X158175865Y-73064021D01*
X158177370Y-73059069D01*
X158206529Y-72837590D01*
X158206998Y-72818404D01*
X158208074Y-72774365D01*
X158208074Y-72774361D01*
X158208156Y-72771000D01*
X158189852Y-72548361D01*
X158135431Y-72331702D01*
X158046354Y-72126840D01*
X157970120Y-72009000D01*
X157927822Y-71943617D01*
X157927820Y-71943614D01*
X157925014Y-71939277D01*
X157774670Y-71774051D01*
X157770619Y-71770852D01*
X157770615Y-71770848D01*
X157603414Y-71638800D01*
X157603410Y-71638798D01*
X157599359Y-71635598D01*
X157558053Y-71612796D01*
X157508084Y-71562364D01*
X157493312Y-71492921D01*
X157518428Y-71426516D01*
X157545780Y-71399909D01*
X157611768Y-71352840D01*
X157724860Y-71272173D01*
X157775447Y-71221763D01*
X157833597Y-71163815D01*
X157883096Y-71114489D01*
X157913574Y-71072075D01*
X158010435Y-70937277D01*
X158013453Y-70933077D01*
X158016622Y-70926666D01*
X158110136Y-70737453D01*
X158110137Y-70737451D01*
X158112430Y-70732811D01*
X158155694Y-70590412D01*
X158175865Y-70524023D01*
X158175865Y-70524021D01*
X158177370Y-70519069D01*
X158206529Y-70297590D01*
X158208156Y-70231000D01*
X158189852Y-70008361D01*
X158135431Y-69791702D01*
X158046354Y-69586840D01*
X157974322Y-69475495D01*
X157927822Y-69403617D01*
X157927820Y-69403614D01*
X157925014Y-69399277D01*
X157921532Y-69395450D01*
X157777798Y-69237488D01*
X157746746Y-69173642D01*
X157755141Y-69103143D01*
X157800317Y-69048375D01*
X157826761Y-69034706D01*
X157933297Y-68994767D01*
X157941705Y-68991615D01*
X158058261Y-68904261D01*
X158145615Y-68787705D01*
X158196745Y-68651316D01*
X158203500Y-68589134D01*
X158203500Y-66792866D01*
X158196745Y-66730684D01*
X158145615Y-66594295D01*
X158058261Y-66477739D01*
X157941705Y-66390385D01*
X157805316Y-66339255D01*
X157743134Y-66332500D01*
X155946866Y-66332500D01*
X155884684Y-66339255D01*
X155748295Y-66390385D01*
X155631739Y-66477739D01*
X155544385Y-66594295D01*
X155493255Y-66730684D01*
X155486500Y-66792866D01*
X155486500Y-66929500D01*
X155466498Y-66997621D01*
X155412842Y-67044114D01*
X155360500Y-67055500D01*
X151784530Y-67055500D01*
X151716409Y-67035498D01*
X151669916Y-66981842D01*
X151665006Y-66969376D01*
X151649868Y-66924002D01*
X151647550Y-66917054D01*
X151554478Y-66766652D01*
X151429303Y-66641695D01*
X151423072Y-66637854D01*
X151284968Y-66552725D01*
X151284966Y-66552724D01*
X151278738Y-66548885D01*
X151118254Y-66495655D01*
X151117389Y-66495368D01*
X151117387Y-66495368D01*
X151110861Y-66493203D01*
X151104025Y-66492503D01*
X151104022Y-66492502D01*
X151060969Y-66488091D01*
X151006400Y-66482500D01*
X150494500Y-66482500D01*
X150426379Y-66462498D01*
X150379886Y-66408842D01*
X150368500Y-66356500D01*
X150368500Y-65154530D01*
X150388502Y-65086409D01*
X150442158Y-65039916D01*
X150454624Y-65035006D01*
X150490432Y-65023059D01*
X150506946Y-65017550D01*
X150657348Y-64924478D01*
X150782305Y-64799303D01*
X150786146Y-64793072D01*
X150871275Y-64654968D01*
X150871276Y-64654966D01*
X150875115Y-64648738D01*
X150920847Y-64510861D01*
X150928632Y-64487389D01*
X150928632Y-64487387D01*
X150930797Y-64480861D01*
X150941500Y-64376400D01*
X150941500Y-63575600D01*
X150938143Y-63543247D01*
X150931238Y-63476692D01*
X150931237Y-63476688D01*
X150930526Y-63469834D01*
X150891348Y-63352402D01*
X150876868Y-63309002D01*
X150874550Y-63302054D01*
X150781478Y-63151652D01*
X150776296Y-63146479D01*
X150694537Y-63064862D01*
X150660458Y-63002579D01*
X150665461Y-62931759D01*
X150694382Y-62886671D01*
X150776739Y-62804171D01*
X150785751Y-62792760D01*
X150870816Y-62654757D01*
X150876963Y-62641576D01*
X150928138Y-62487290D01*
X150931005Y-62473914D01*
X150940672Y-62379562D01*
X150941000Y-62373146D01*
X150941000Y-62248115D01*
X150936525Y-62232876D01*
X150935135Y-62231671D01*
X150927452Y-62230000D01*
X148967115Y-62230000D01*
X148930007Y-62240896D01*
X148894509Y-62246000D01*
X142447116Y-62246000D01*
X142431877Y-62250475D01*
X142430672Y-62251865D01*
X142429001Y-62259548D01*
X142429001Y-62389095D01*
X142429338Y-62395614D01*
X142439257Y-62491206D01*
X142442149Y-62504600D01*
X142493588Y-62658784D01*
X142499761Y-62671962D01*
X142585063Y-62809807D01*
X142594099Y-62821208D01*
X142675462Y-62902430D01*
X142709541Y-62964713D01*
X142704538Y-63035533D01*
X142675617Y-63080620D01*
X142592870Y-63163512D01*
X142592866Y-63163517D01*
X142587695Y-63168697D01*
X142583855Y-63174927D01*
X142583854Y-63174928D01*
X142531986Y-63259074D01*
X142494885Y-63319262D01*
X142439203Y-63487139D01*
X142428500Y-63591600D01*
X142428500Y-64392400D01*
X142428837Y-64395646D01*
X142428837Y-64395650D01*
X142438356Y-64487389D01*
X142439474Y-64498166D01*
X142495450Y-64665946D01*
X142588522Y-64816348D01*
X142593704Y-64821521D01*
X142601500Y-64829303D01*
X142713697Y-64941305D01*
X142719927Y-64945145D01*
X142719928Y-64945146D01*
X142857090Y-65029694D01*
X142864262Y-65034115D01*
X142871207Y-65036419D01*
X142871208Y-65036419D01*
X142915168Y-65051000D01*
X142973528Y-65091432D01*
X143000764Y-65156996D01*
X143001500Y-65170593D01*
X143001500Y-65325980D01*
X143000970Y-65337214D01*
X142999292Y-65344719D01*
X143000582Y-65385781D01*
X143001438Y-65413012D01*
X143001500Y-65416969D01*
X143001500Y-65444983D01*
X143001996Y-65448908D01*
X143001996Y-65448909D01*
X143002008Y-65449004D01*
X143002942Y-65460856D01*
X143004049Y-65496086D01*
X143004335Y-65505205D01*
X143007199Y-65515063D01*
X143010013Y-65524748D01*
X143014023Y-65544112D01*
X143016573Y-65564299D01*
X143019489Y-65571663D01*
X143019490Y-65571668D01*
X143032907Y-65605556D01*
X143036752Y-65616785D01*
X143038900Y-65624178D01*
X143049131Y-65659393D01*
X143053169Y-65666220D01*
X143053170Y-65666223D01*
X143059488Y-65676906D01*
X143068188Y-65694664D01*
X143072761Y-65706215D01*
X143072765Y-65706221D01*
X143075681Y-65713588D01*
X143100748Y-65748089D01*
X143101764Y-65749488D01*
X143108281Y-65759410D01*
X143126826Y-65790768D01*
X143126829Y-65790772D01*
X143130866Y-65797598D01*
X143145250Y-65811982D01*
X143158091Y-65827016D01*
X143170058Y-65843487D01*
X143176166Y-65848540D01*
X143204255Y-65871777D01*
X143213035Y-65879767D01*
X143452210Y-66118942D01*
X143486236Y-66181254D01*
X143488425Y-66194867D01*
X143503601Y-66339255D01*
X143505458Y-66356928D01*
X143564473Y-66538556D01*
X143659960Y-66703944D01*
X143664378Y-66708851D01*
X143664379Y-66708852D01*
X143787138Y-66845190D01*
X143817856Y-66909197D01*
X143809091Y-66979651D01*
X143763628Y-67034182D01*
X143693502Y-67055500D01*
X141916422Y-67055500D01*
X141848301Y-67035498D01*
X141827327Y-67018595D01*
X136528617Y-61719885D01*
X142429000Y-61719885D01*
X142433475Y-61735124D01*
X142434865Y-61736329D01*
X142442548Y-61738000D01*
X143364885Y-61738000D01*
X143380124Y-61733525D01*
X143381329Y-61732135D01*
X143383000Y-61724452D01*
X143383000Y-61719885D01*
X143891000Y-61719885D01*
X143895475Y-61735124D01*
X143896865Y-61736329D01*
X143904548Y-61738000D01*
X145396885Y-61738000D01*
X145412124Y-61733525D01*
X145413329Y-61732135D01*
X145415000Y-61724452D01*
X145415000Y-61719885D01*
X145923000Y-61719885D01*
X145927475Y-61735124D01*
X145928865Y-61736329D01*
X145936548Y-61738000D01*
X147428885Y-61738000D01*
X147444124Y-61733525D01*
X147445329Y-61732135D01*
X147447000Y-61724452D01*
X147447000Y-61719885D01*
X147955000Y-61719885D01*
X147959475Y-61735124D01*
X147960865Y-61736329D01*
X147968548Y-61738000D01*
X148466885Y-61738000D01*
X148503993Y-61727104D01*
X148539491Y-61722000D01*
X149460885Y-61722000D01*
X149476124Y-61717525D01*
X149477329Y-61716135D01*
X149479000Y-61708452D01*
X149479000Y-61703885D01*
X149987000Y-61703885D01*
X149991475Y-61719124D01*
X149992865Y-61720329D01*
X150000548Y-61722000D01*
X150922884Y-61722000D01*
X150938123Y-61717525D01*
X150939328Y-61716135D01*
X150940999Y-61708452D01*
X150940999Y-61608966D01*
X155513257Y-61608966D01*
X155543565Y-61743446D01*
X155546645Y-61753275D01*
X155626770Y-61950603D01*
X155631413Y-61959794D01*
X155742694Y-62141388D01*
X155748777Y-62149699D01*
X155888213Y-62310667D01*
X155895580Y-62317883D01*
X156059434Y-62453916D01*
X156067881Y-62459831D01*
X156251756Y-62567279D01*
X156261042Y-62571729D01*
X156460001Y-62647703D01*
X156469899Y-62650579D01*
X156573250Y-62671606D01*
X156587299Y-62670410D01*
X156591000Y-62660065D01*
X156591000Y-62659517D01*
X157099000Y-62659517D01*
X157103064Y-62673359D01*
X157116478Y-62675393D01*
X157123184Y-62674534D01*
X157133262Y-62672392D01*
X157337255Y-62611191D01*
X157346842Y-62607433D01*
X157538095Y-62513739D01*
X157546945Y-62508464D01*
X157720328Y-62384792D01*
X157728200Y-62378139D01*
X157879052Y-62227812D01*
X157885730Y-62219965D01*
X158010003Y-62047020D01*
X158015313Y-62038183D01*
X158109670Y-61847267D01*
X158113469Y-61837672D01*
X158175377Y-61633910D01*
X158177555Y-61623837D01*
X158178986Y-61612962D01*
X158176775Y-61598778D01*
X158163617Y-61595000D01*
X157117115Y-61595000D01*
X157101876Y-61599475D01*
X157100671Y-61600865D01*
X157099000Y-61608548D01*
X157099000Y-62659517D01*
X156591000Y-62659517D01*
X156591000Y-61613115D01*
X156586525Y-61597876D01*
X156585135Y-61596671D01*
X156577452Y-61595000D01*
X155528225Y-61595000D01*
X155514694Y-61598973D01*
X155513257Y-61608966D01*
X150940999Y-61608966D01*
X150940999Y-61578905D01*
X150940662Y-61572386D01*
X150930743Y-61476794D01*
X150927851Y-61463400D01*
X150876412Y-61309216D01*
X150870239Y-61296038D01*
X150784937Y-61158193D01*
X150775901Y-61146792D01*
X150661171Y-61032261D01*
X150649760Y-61023249D01*
X150511757Y-60938184D01*
X150498576Y-60932037D01*
X150344290Y-60880862D01*
X150330914Y-60877995D01*
X150236562Y-60868328D01*
X150230145Y-60868000D01*
X150005115Y-60868000D01*
X149989876Y-60872475D01*
X149988671Y-60873865D01*
X149987000Y-60881548D01*
X149987000Y-61703885D01*
X149479000Y-61703885D01*
X149479000Y-60886116D01*
X149474525Y-60870877D01*
X149473135Y-60869672D01*
X149465452Y-60868001D01*
X149235905Y-60868001D01*
X149229386Y-60868338D01*
X149133794Y-60878257D01*
X149120400Y-60881149D01*
X148966216Y-60932588D01*
X148953038Y-60938761D01*
X148815193Y-61024063D01*
X148803790Y-61033101D01*
X148797588Y-61039313D01*
X148735304Y-61073390D01*
X148664484Y-61068384D01*
X148630323Y-61049172D01*
X148617757Y-61039247D01*
X148479757Y-60954184D01*
X148466576Y-60948037D01*
X148312290Y-60896862D01*
X148298914Y-60893995D01*
X148204562Y-60884328D01*
X148198145Y-60884000D01*
X147973115Y-60884000D01*
X147957876Y-60888475D01*
X147956671Y-60889865D01*
X147955000Y-60897548D01*
X147955000Y-61719885D01*
X147447000Y-61719885D01*
X147447000Y-60902116D01*
X147442525Y-60886877D01*
X147441135Y-60885672D01*
X147433452Y-60884001D01*
X147203905Y-60884001D01*
X147197386Y-60884338D01*
X147101794Y-60894257D01*
X147088400Y-60897149D01*
X146934216Y-60948588D01*
X146921038Y-60954761D01*
X146783193Y-61040063D01*
X146766055Y-61053646D01*
X146764704Y-61051942D01*
X146711786Y-61080896D01*
X146640966Y-61075893D01*
X146603606Y-61051926D01*
X146602917Y-61052799D01*
X146585760Y-61039249D01*
X146447757Y-60954184D01*
X146434576Y-60948037D01*
X146280290Y-60896862D01*
X146266914Y-60893995D01*
X146172562Y-60884328D01*
X146166145Y-60884000D01*
X145941115Y-60884000D01*
X145925876Y-60888475D01*
X145924671Y-60889865D01*
X145923000Y-60897548D01*
X145923000Y-61719885D01*
X145415000Y-61719885D01*
X145415000Y-60902116D01*
X145410525Y-60886877D01*
X145409135Y-60885672D01*
X145401452Y-60884001D01*
X145171905Y-60884001D01*
X145165386Y-60884338D01*
X145069794Y-60894257D01*
X145056400Y-60897149D01*
X144902216Y-60948588D01*
X144889038Y-60954761D01*
X144751193Y-61040063D01*
X144734055Y-61053646D01*
X144732704Y-61051942D01*
X144679786Y-61080896D01*
X144608966Y-61075893D01*
X144571606Y-61051926D01*
X144570917Y-61052799D01*
X144553760Y-61039249D01*
X144415757Y-60954184D01*
X144402576Y-60948037D01*
X144248290Y-60896862D01*
X144234914Y-60893995D01*
X144140562Y-60884328D01*
X144134145Y-60884000D01*
X143909115Y-60884000D01*
X143893876Y-60888475D01*
X143892671Y-60889865D01*
X143891000Y-60897548D01*
X143891000Y-61719885D01*
X143383000Y-61719885D01*
X143383000Y-60902116D01*
X143378525Y-60886877D01*
X143377135Y-60885672D01*
X143369452Y-60884001D01*
X143139905Y-60884001D01*
X143133386Y-60884338D01*
X143037794Y-60894257D01*
X143024400Y-60897149D01*
X142870216Y-60948588D01*
X142857038Y-60954761D01*
X142719193Y-61040063D01*
X142707792Y-61049099D01*
X142593261Y-61163829D01*
X142584249Y-61175240D01*
X142499184Y-61313243D01*
X142493037Y-61326424D01*
X142441862Y-61480710D01*
X142438995Y-61494086D01*
X142429328Y-61588438D01*
X142429000Y-61594855D01*
X142429000Y-61719885D01*
X136528617Y-61719885D01*
X128384254Y-53575521D01*
X128350228Y-53513209D01*
X128355293Y-53442394D01*
X128397840Y-53385558D01*
X128464360Y-53360747D01*
X128477966Y-53360511D01*
X128506673Y-53361564D01*
X128506677Y-53361564D01*
X128511837Y-53361753D01*
X128516957Y-53361097D01*
X128516959Y-53361097D01*
X128728288Y-53334025D01*
X128728289Y-53334025D01*
X128733416Y-53333368D01*
X128738366Y-53331883D01*
X128942429Y-53270661D01*
X128942434Y-53270659D01*
X128947384Y-53269174D01*
X129147994Y-53170896D01*
X129329860Y-53041173D01*
X129373271Y-52997914D01*
X129473400Y-52898134D01*
X129488096Y-52883489D01*
X129529203Y-52826283D01*
X129618453Y-52702077D01*
X129619776Y-52703028D01*
X129666645Y-52659857D01*
X129736580Y-52647625D01*
X129802026Y-52675144D01*
X129829875Y-52706994D01*
X129889987Y-52805088D01*
X130036250Y-52973938D01*
X130208126Y-53116632D01*
X130401000Y-53229338D01*
X130405825Y-53231180D01*
X130405826Y-53231181D01*
X130478612Y-53258975D01*
X130609692Y-53309030D01*
X130614760Y-53310061D01*
X130614763Y-53310062D01*
X130722003Y-53331880D01*
X130828597Y-53353567D01*
X130833772Y-53353757D01*
X130833774Y-53353757D01*
X131046673Y-53361564D01*
X131046677Y-53361564D01*
X131051837Y-53361753D01*
X131056957Y-53361097D01*
X131056959Y-53361097D01*
X131268288Y-53334025D01*
X131268289Y-53334025D01*
X131273416Y-53333368D01*
X131278366Y-53331883D01*
X131482429Y-53270661D01*
X131482434Y-53270659D01*
X131487384Y-53269174D01*
X131687994Y-53170896D01*
X131869860Y-53041173D01*
X131913271Y-52997914D01*
X132013400Y-52898134D01*
X132028096Y-52883489D01*
X132069203Y-52826283D01*
X132158453Y-52702077D01*
X132159776Y-52703028D01*
X132206645Y-52659857D01*
X132276580Y-52647625D01*
X132342026Y-52675144D01*
X132369875Y-52706994D01*
X132429987Y-52805088D01*
X132576250Y-52973938D01*
X132748126Y-53116632D01*
X132941000Y-53229338D01*
X132945825Y-53231180D01*
X132945826Y-53231181D01*
X133018612Y-53258975D01*
X133149692Y-53309030D01*
X133154760Y-53310061D01*
X133154763Y-53310062D01*
X133262003Y-53331880D01*
X133368597Y-53353567D01*
X133373772Y-53353757D01*
X133373774Y-53353757D01*
X133586673Y-53361564D01*
X133586677Y-53361564D01*
X133591837Y-53361753D01*
X133596957Y-53361097D01*
X133596959Y-53361097D01*
X133808288Y-53334025D01*
X133808289Y-53334025D01*
X133813416Y-53333368D01*
X133818366Y-53331883D01*
X134022429Y-53270661D01*
X134022434Y-53270659D01*
X134027384Y-53269174D01*
X134227994Y-53170896D01*
X134409860Y-53041173D01*
X134453271Y-52997914D01*
X134553400Y-52898134D01*
X134568096Y-52883489D01*
X134609203Y-52826283D01*
X134698453Y-52702077D01*
X134699776Y-52703028D01*
X134746645Y-52659857D01*
X134816580Y-52647625D01*
X134882026Y-52675144D01*
X134909875Y-52706994D01*
X134969987Y-52805088D01*
X135116250Y-52973938D01*
X135288126Y-53116632D01*
X135481000Y-53229338D01*
X135485825Y-53231180D01*
X135485826Y-53231181D01*
X135558612Y-53258975D01*
X135689692Y-53309030D01*
X135694760Y-53310061D01*
X135694763Y-53310062D01*
X135802003Y-53331880D01*
X135908597Y-53353567D01*
X135913772Y-53353757D01*
X135913774Y-53353757D01*
X136126673Y-53361564D01*
X136126677Y-53361564D01*
X136131837Y-53361753D01*
X136136957Y-53361097D01*
X136136959Y-53361097D01*
X136348288Y-53334025D01*
X136348289Y-53334025D01*
X136353416Y-53333368D01*
X136358373Y-53331881D01*
X136452080Y-53303767D01*
X136550335Y-53274289D01*
X136621330Y-53273872D01*
X136681280Y-53311905D01*
X136698983Y-53339883D01*
X136699131Y-53340393D01*
X136703168Y-53347219D01*
X136703169Y-53347221D01*
X136709488Y-53357906D01*
X136718188Y-53375664D01*
X136722761Y-53387215D01*
X136722765Y-53387221D01*
X136725681Y-53394588D01*
X136730339Y-53400999D01*
X136730340Y-53401001D01*
X136751764Y-53430488D01*
X136758281Y-53440410D01*
X136776826Y-53471768D01*
X136776829Y-53471772D01*
X136780866Y-53478598D01*
X136795250Y-53492982D01*
X136808091Y-53508016D01*
X136820058Y-53524487D01*
X136826166Y-53529540D01*
X136854255Y-53552777D01*
X136863035Y-53560767D01*
X142496750Y-59194483D01*
X142504326Y-59202809D01*
X142508447Y-59209303D01*
X142514222Y-59214726D01*
X142558265Y-59256085D01*
X142561107Y-59258840D01*
X142580906Y-59278639D01*
X142584037Y-59281068D01*
X142584042Y-59281072D01*
X142584128Y-59281139D01*
X142593153Y-59288847D01*
X142625494Y-59319217D01*
X142632439Y-59323035D01*
X142632443Y-59323038D01*
X142643334Y-59329026D01*
X142659855Y-59339878D01*
X142675934Y-59352350D01*
X142716662Y-59369974D01*
X142727319Y-59375196D01*
X142759246Y-59392748D01*
X142759249Y-59392749D01*
X142766197Y-59396569D01*
X142785915Y-59401632D01*
X142804611Y-59408033D01*
X142823293Y-59416117D01*
X142831117Y-59417356D01*
X142831123Y-59417358D01*
X142867120Y-59423060D01*
X142878740Y-59425466D01*
X142914037Y-59434528D01*
X142921718Y-59436500D01*
X142942066Y-59436500D01*
X142961778Y-59438051D01*
X142981880Y-59441235D01*
X143026055Y-59437059D01*
X143037914Y-59436500D01*
X155570500Y-59436500D01*
X155638621Y-59456502D01*
X155677933Y-59496666D01*
X155742287Y-59601683D01*
X155742291Y-59601688D01*
X155744987Y-59606088D01*
X155891250Y-59774938D01*
X156063126Y-59917632D01*
X156136955Y-59960774D01*
X156185679Y-60012412D01*
X156198750Y-60082195D01*
X156172019Y-60147967D01*
X156131562Y-60181327D01*
X156123457Y-60185546D01*
X156114738Y-60191036D01*
X155944433Y-60318905D01*
X155936726Y-60325748D01*
X155789590Y-60479717D01*
X155783104Y-60487727D01*
X155663098Y-60663649D01*
X155658000Y-60672623D01*
X155568338Y-60865783D01*
X155564775Y-60875470D01*
X155509389Y-61075183D01*
X155510912Y-61083607D01*
X155523292Y-61087000D01*
X158163344Y-61087000D01*
X158176875Y-61083027D01*
X158178180Y-61073947D01*
X158136214Y-60906875D01*
X158132894Y-60897124D01*
X158047972Y-60701814D01*
X158043105Y-60692739D01*
X157927426Y-60513926D01*
X157921136Y-60505757D01*
X157777806Y-60348240D01*
X157770273Y-60341215D01*
X157603139Y-60209222D01*
X157594556Y-60203520D01*
X157557602Y-60183120D01*
X157507631Y-60132687D01*
X157492859Y-60063245D01*
X157517975Y-59996839D01*
X157545327Y-59970232D01*
X157568797Y-59953491D01*
X157724860Y-59842173D01*
X157745631Y-59821475D01*
X157879435Y-59688137D01*
X157883096Y-59684489D01*
X158013453Y-59503077D01*
X158016622Y-59496666D01*
X158110136Y-59307453D01*
X158110137Y-59307451D01*
X158112430Y-59302811D01*
X158177370Y-59089069D01*
X158206529Y-58867590D01*
X158208156Y-58801000D01*
X158189852Y-58578361D01*
X158135431Y-58361702D01*
X158046354Y-58156840D01*
X157978269Y-58051597D01*
X157927822Y-57973617D01*
X157927820Y-57973614D01*
X157925014Y-57969277D01*
X157774670Y-57804051D01*
X157770619Y-57800852D01*
X157770615Y-57800848D01*
X157603414Y-57668800D01*
X157603410Y-57668798D01*
X157599359Y-57665598D01*
X157558053Y-57642796D01*
X157508084Y-57592364D01*
X157493312Y-57522921D01*
X157518428Y-57456516D01*
X157545780Y-57429909D01*
X157612956Y-57381993D01*
X157724860Y-57302173D01*
X157883096Y-57144489D01*
X157892670Y-57131166D01*
X158010435Y-56967277D01*
X158013453Y-56963077D01*
X158016622Y-56956666D01*
X158110136Y-56767453D01*
X158110137Y-56767451D01*
X158112430Y-56762811D01*
X158177370Y-56549069D01*
X158206529Y-56327590D01*
X158208156Y-56261000D01*
X158189852Y-56038361D01*
X158135431Y-55821702D01*
X158046354Y-55616840D01*
X158004907Y-55552772D01*
X157927822Y-55433617D01*
X157927820Y-55433614D01*
X157925014Y-55429277D01*
X157914560Y-55417788D01*
X157777798Y-55267488D01*
X157746746Y-55203642D01*
X157755141Y-55133143D01*
X157800317Y-55078375D01*
X157826761Y-55064706D01*
X157933297Y-55024767D01*
X157941705Y-55021615D01*
X158058261Y-54934261D01*
X158145615Y-54817705D01*
X158196745Y-54681316D01*
X158203500Y-54619134D01*
X158203500Y-52822866D01*
X158196745Y-52760684D01*
X158145615Y-52624295D01*
X158058261Y-52507739D01*
X157941705Y-52420385D01*
X157805316Y-52369255D01*
X157743134Y-52362500D01*
X155946866Y-52362500D01*
X155884684Y-52369255D01*
X155748295Y-52420385D01*
X155631739Y-52507739D01*
X155544385Y-52624295D01*
X155493255Y-52760684D01*
X155486500Y-52822866D01*
X155486500Y-52883300D01*
X155466498Y-52951421D01*
X155412842Y-52997914D01*
X155360500Y-53009300D01*
X151665448Y-53009300D01*
X151597327Y-52989298D01*
X151550834Y-52935642D01*
X151550066Y-52933693D01*
X151547867Y-52928998D01*
X151545550Y-52922054D01*
X151452478Y-52771652D01*
X151327303Y-52646695D01*
X151279306Y-52617109D01*
X151182968Y-52557725D01*
X151182966Y-52557724D01*
X151176738Y-52553885D01*
X151096995Y-52527436D01*
X151015389Y-52500368D01*
X151015387Y-52500368D01*
X151008861Y-52498203D01*
X151002025Y-52497503D01*
X151002022Y-52497502D01*
X150958969Y-52493091D01*
X150904400Y-52487500D01*
X150128600Y-52487500D01*
X150125354Y-52487837D01*
X150125350Y-52487837D01*
X150029692Y-52497762D01*
X150029688Y-52497763D01*
X150022834Y-52498474D01*
X150016298Y-52500655D01*
X150016296Y-52500655D01*
X150011192Y-52502358D01*
X149855054Y-52554450D01*
X149704652Y-52647522D01*
X149579695Y-52772697D01*
X149576898Y-52777235D01*
X149519647Y-52817824D01*
X149448724Y-52821054D01*
X149387313Y-52785428D01*
X149379938Y-52776932D01*
X149371902Y-52766793D01*
X149257171Y-52652261D01*
X149245760Y-52643249D01*
X149107757Y-52558184D01*
X149094576Y-52552037D01*
X148940290Y-52500862D01*
X148926914Y-52497995D01*
X148832562Y-52488328D01*
X148826145Y-52488000D01*
X148713615Y-52488000D01*
X148698376Y-52492475D01*
X148697171Y-52493865D01*
X148695500Y-52501548D01*
X148695500Y-54935884D01*
X148699975Y-54951123D01*
X148701365Y-54952328D01*
X148709048Y-54953999D01*
X148826095Y-54953999D01*
X148832614Y-54953662D01*
X148928206Y-54943743D01*
X148941600Y-54940851D01*
X149095784Y-54889412D01*
X149108962Y-54883239D01*
X149246807Y-54797937D01*
X149258208Y-54788901D01*
X149372738Y-54674172D01*
X149379794Y-54665238D01*
X149437712Y-54624177D01*
X149508635Y-54620947D01*
X149570046Y-54656574D01*
X149576846Y-54664407D01*
X149580522Y-54670348D01*
X149705697Y-54795305D01*
X149711927Y-54799145D01*
X149711928Y-54799146D01*
X149849288Y-54883816D01*
X149856262Y-54888115D01*
X149936005Y-54914564D01*
X150017611Y-54941632D01*
X150017613Y-54941632D01*
X150024139Y-54943797D01*
X150030975Y-54944497D01*
X150030978Y-54944498D01*
X150074031Y-54948909D01*
X150128600Y-54954500D01*
X150904400Y-54954500D01*
X150907646Y-54954163D01*
X150907650Y-54954163D01*
X151003308Y-54944238D01*
X151003312Y-54944237D01*
X151010166Y-54943526D01*
X151016702Y-54941345D01*
X151016704Y-54941345D01*
X151148806Y-54897272D01*
X151177946Y-54887550D01*
X151328348Y-54794478D01*
X151453305Y-54669303D01*
X151478457Y-54628500D01*
X151542274Y-54524969D01*
X151546115Y-54518738D01*
X151548420Y-54511787D01*
X151551374Y-54505453D01*
X151598290Y-54452167D01*
X151665570Y-54432700D01*
X155360500Y-54432700D01*
X155428621Y-54452702D01*
X155475114Y-54506358D01*
X155486500Y-54558700D01*
X155486500Y-54619134D01*
X155493255Y-54681316D01*
X155544385Y-54817705D01*
X155631739Y-54934261D01*
X155748295Y-55021615D01*
X155756704Y-55024767D01*
X155756705Y-55024768D01*
X155865451Y-55065535D01*
X155922216Y-55108176D01*
X155946916Y-55174738D01*
X155931709Y-55244087D01*
X155912316Y-55270568D01*
X155790570Y-55397968D01*
X155785629Y-55403138D01*
X155703585Y-55523411D01*
X155671460Y-55570504D01*
X155616549Y-55615507D01*
X155567372Y-55625500D01*
X143186422Y-55625500D01*
X143118301Y-55605498D01*
X143097327Y-55588595D01*
X141751828Y-54243095D01*
X147346001Y-54243095D01*
X147346338Y-54249614D01*
X147356257Y-54345206D01*
X147359149Y-54358600D01*
X147410588Y-54512784D01*
X147416761Y-54525962D01*
X147502063Y-54663807D01*
X147511099Y-54675208D01*
X147625829Y-54789739D01*
X147637240Y-54798751D01*
X147775243Y-54883816D01*
X147788424Y-54889963D01*
X147942710Y-54941138D01*
X147956086Y-54944005D01*
X148050438Y-54953672D01*
X148056854Y-54954000D01*
X148169385Y-54954000D01*
X148184624Y-54949525D01*
X148185829Y-54948135D01*
X148187500Y-54940452D01*
X148187500Y-53993115D01*
X148183025Y-53977876D01*
X148181635Y-53976671D01*
X148173952Y-53975000D01*
X147364116Y-53975000D01*
X147348877Y-53979475D01*
X147347672Y-53980865D01*
X147346001Y-53988548D01*
X147346001Y-54243095D01*
X141751828Y-54243095D01*
X141082328Y-53573595D01*
X141048302Y-53511283D01*
X141052765Y-53448885D01*
X147346000Y-53448885D01*
X147350475Y-53464124D01*
X147351865Y-53465329D01*
X147359548Y-53467000D01*
X148169385Y-53467000D01*
X148184624Y-53462525D01*
X148185829Y-53461135D01*
X148187500Y-53453452D01*
X148187500Y-52506116D01*
X148183025Y-52490877D01*
X148181635Y-52489672D01*
X148173952Y-52488001D01*
X148056905Y-52488001D01*
X148050386Y-52488338D01*
X147954794Y-52498257D01*
X147941400Y-52501149D01*
X147787216Y-52552588D01*
X147774038Y-52558761D01*
X147636193Y-52644063D01*
X147624792Y-52653099D01*
X147510261Y-52767829D01*
X147501249Y-52779240D01*
X147416184Y-52917243D01*
X147410037Y-52930424D01*
X147358862Y-53084710D01*
X147355995Y-53098086D01*
X147346328Y-53192438D01*
X147346000Y-53198855D01*
X147346000Y-53448885D01*
X141052765Y-53448885D01*
X141053367Y-53440467D01*
X141095914Y-53383632D01*
X141162434Y-53358821D01*
X141171423Y-53358500D01*
X142048134Y-53358500D01*
X142110316Y-53351745D01*
X142246705Y-53300615D01*
X142363261Y-53213261D01*
X142450615Y-53096705D01*
X142501745Y-52960316D01*
X142508500Y-52898134D01*
X142508500Y-51101866D01*
X142501745Y-51039684D01*
X142450615Y-50903295D01*
X142363261Y-50786739D01*
X142326435Y-50759139D01*
X142294661Y-50735326D01*
X142252146Y-50678467D01*
X142247120Y-50607648D01*
X142281180Y-50545355D01*
X142343511Y-50511365D01*
X142370226Y-50508500D01*
X164365500Y-50508500D01*
X164433621Y-50528502D01*
G37*
%TD.AperFunction*%
%TA.AperFunction,Conductor*%
G36*
X155405259Y-93791561D02*
G01*
X155462095Y-93834108D01*
X155487017Y-93902363D01*
X155495110Y-94042715D01*
X155521327Y-94159046D01*
X155516791Y-94229896D01*
X155487505Y-94275841D01*
X153151961Y-96611386D01*
X153145696Y-96617239D01*
X153105248Y-96652524D01*
X153100881Y-96658738D01*
X153071109Y-96701099D01*
X153067177Y-96706393D01*
X153030537Y-96753121D01*
X153027411Y-96760045D01*
X153023698Y-96766176D01*
X153021062Y-96770796D01*
X153017640Y-96777178D01*
X153013269Y-96783397D01*
X153010509Y-96790476D01*
X152991702Y-96838713D01*
X152989146Y-96844792D01*
X152964711Y-96898912D01*
X152963325Y-96906388D01*
X152961170Y-96913266D01*
X152959710Y-96918391D01*
X152957922Y-96925355D01*
X152955162Y-96932434D01*
X152954170Y-96939966D01*
X152954170Y-96939968D01*
X152947414Y-96991292D01*
X152946384Y-96997798D01*
X152935560Y-97056197D01*
X152935997Y-97063777D01*
X152935997Y-97063778D01*
X152938891Y-97113967D01*
X152939100Y-97121220D01*
X152939100Y-98515500D01*
X152919098Y-98583621D01*
X152865442Y-98630114D01*
X152813100Y-98641500D01*
X152701866Y-98641500D01*
X152639684Y-98648255D01*
X152503295Y-98699385D01*
X152386739Y-98786739D01*
X152299385Y-98903295D01*
X152296233Y-98911703D01*
X152254919Y-99021907D01*
X152212277Y-99078671D01*
X152145716Y-99103371D01*
X152076367Y-99088163D01*
X152043743Y-99062476D01*
X151993151Y-99006875D01*
X151993142Y-99006866D01*
X151989670Y-99003051D01*
X151985619Y-98999852D01*
X151985615Y-98999848D01*
X151818414Y-98867800D01*
X151818410Y-98867798D01*
X151814359Y-98864598D01*
X151786007Y-98848947D01*
X151736036Y-98798514D01*
X151720900Y-98738638D01*
X151720900Y-97423944D01*
X151740902Y-97355823D01*
X151757805Y-97334849D01*
X155272132Y-93820522D01*
X155334444Y-93786496D01*
X155405259Y-93791561D01*
G37*
%TD.AperFunction*%
%TA.AperFunction,Conductor*%
G36*
X155638621Y-73426502D02*
G01*
X155677933Y-73466666D01*
X155742287Y-73571683D01*
X155742291Y-73571688D01*
X155744987Y-73576088D01*
X155891250Y-73744938D01*
X156063126Y-73887632D01*
X156125575Y-73924124D01*
X156136445Y-73930476D01*
X156185169Y-73982114D01*
X156198240Y-74051897D01*
X156171509Y-74117669D01*
X156131055Y-74151027D01*
X156118607Y-74157507D01*
X156114474Y-74160610D01*
X156114471Y-74160612D01*
X155972954Y-74266866D01*
X155939965Y-74291635D01*
X155785629Y-74453138D01*
X155782715Y-74457410D01*
X155782714Y-74457411D01*
X155671460Y-74620504D01*
X155616549Y-74665507D01*
X155567372Y-74675500D01*
X151800530Y-74675500D01*
X151732409Y-74655498D01*
X151685916Y-74601842D01*
X151681006Y-74589376D01*
X151665868Y-74544002D01*
X151663550Y-74537054D01*
X151570478Y-74386652D01*
X151445303Y-74261695D01*
X151310823Y-74178800D01*
X151300968Y-74172725D01*
X151300966Y-74172724D01*
X151294738Y-74168885D01*
X151261547Y-74157876D01*
X151203187Y-74117446D01*
X151175949Y-74051882D01*
X151188482Y-73982001D01*
X151236806Y-73929988D01*
X151261334Y-73918760D01*
X151272997Y-73914869D01*
X151273002Y-73914867D01*
X151279946Y-73912550D01*
X151430348Y-73819478D01*
X151555305Y-73694303D01*
X151602410Y-73617885D01*
X151644275Y-73549968D01*
X151644276Y-73549966D01*
X151648115Y-73543738D01*
X151665000Y-73492832D01*
X151705432Y-73434472D01*
X151770996Y-73407236D01*
X151784593Y-73406500D01*
X155570500Y-73406500D01*
X155638621Y-73426502D01*
G37*
%TD.AperFunction*%
%TA.AperFunction,Conductor*%
G36*
X155638621Y-70886502D02*
G01*
X155677933Y-70926666D01*
X155742287Y-71031683D01*
X155742291Y-71031688D01*
X155744987Y-71036088D01*
X155891250Y-71204938D01*
X156063126Y-71347632D01*
X156100164Y-71369275D01*
X156136445Y-71390476D01*
X156185169Y-71442114D01*
X156198240Y-71511897D01*
X156171509Y-71577669D01*
X156131055Y-71611027D01*
X156118607Y-71617507D01*
X156114474Y-71620610D01*
X156114471Y-71620612D01*
X155972954Y-71726866D01*
X155939965Y-71751635D01*
X155785629Y-71913138D01*
X155673427Y-72077621D01*
X155671460Y-72080504D01*
X155616549Y-72125507D01*
X155567372Y-72135500D01*
X151784530Y-72135500D01*
X151716409Y-72115498D01*
X151669916Y-72061842D01*
X151665006Y-72049376D01*
X151649868Y-72004002D01*
X151647550Y-71997054D01*
X151554478Y-71846652D01*
X151429303Y-71721695D01*
X151421847Y-71717099D01*
X151284968Y-71632725D01*
X151284966Y-71632724D01*
X151278738Y-71628885D01*
X151261592Y-71623198D01*
X151203232Y-71582768D01*
X151175995Y-71517204D01*
X151188528Y-71447322D01*
X151236853Y-71395310D01*
X151261383Y-71384081D01*
X151277207Y-71378802D01*
X151295946Y-71372550D01*
X151446348Y-71279478D01*
X151571305Y-71154303D01*
X151575146Y-71148072D01*
X151660275Y-71009968D01*
X151660276Y-71009966D01*
X151664115Y-71003738D01*
X151681000Y-70952832D01*
X151721432Y-70894472D01*
X151786996Y-70867236D01*
X151800593Y-70866500D01*
X155570500Y-70866500D01*
X155638621Y-70886502D01*
G37*
%TD.AperFunction*%
%TA.AperFunction,Conductor*%
G36*
X155428621Y-68346502D02*
G01*
X155475114Y-68400158D01*
X155486500Y-68452500D01*
X155486500Y-68589134D01*
X155493255Y-68651316D01*
X155544385Y-68787705D01*
X155631739Y-68904261D01*
X155748295Y-68991615D01*
X155756704Y-68994767D01*
X155756705Y-68994768D01*
X155865451Y-69035535D01*
X155922216Y-69078176D01*
X155946916Y-69144738D01*
X155931709Y-69214087D01*
X155912316Y-69240568D01*
X155849165Y-69306652D01*
X155785629Y-69373138D01*
X155782715Y-69377410D01*
X155782714Y-69377411D01*
X155671460Y-69540504D01*
X155616549Y-69585507D01*
X155567372Y-69595500D01*
X151800530Y-69595500D01*
X151732409Y-69575498D01*
X151685916Y-69521842D01*
X151681006Y-69509376D01*
X151665868Y-69464002D01*
X151663550Y-69457054D01*
X151570478Y-69306652D01*
X151445303Y-69181695D01*
X151317869Y-69103143D01*
X151300968Y-69092725D01*
X151300966Y-69092724D01*
X151294738Y-69088885D01*
X151261547Y-69077876D01*
X151203187Y-69037446D01*
X151175949Y-68971882D01*
X151188482Y-68902001D01*
X151236806Y-68849988D01*
X151261334Y-68838760D01*
X151272997Y-68834869D01*
X151273002Y-68834867D01*
X151279946Y-68832550D01*
X151430348Y-68739478D01*
X151555305Y-68614303D01*
X151568726Y-68592531D01*
X151644275Y-68469968D01*
X151644276Y-68469966D01*
X151648115Y-68463738D01*
X151650419Y-68456792D01*
X151665000Y-68412832D01*
X151705432Y-68354472D01*
X151770996Y-68327236D01*
X151784593Y-68326500D01*
X155360500Y-68326500D01*
X155428621Y-68346502D01*
G37*
%TD.AperFunction*%
%TA.AperFunction,Conductor*%
G36*
X139062954Y-53351687D02*
G01*
X142365750Y-56654483D01*
X142373326Y-56662809D01*
X142377447Y-56669303D01*
X142383222Y-56674726D01*
X142427265Y-56716085D01*
X142430107Y-56718840D01*
X142449906Y-56738639D01*
X142453031Y-56741063D01*
X142453040Y-56741071D01*
X142453126Y-56741137D01*
X142462151Y-56748845D01*
X142494494Y-56779217D01*
X142501438Y-56783035D01*
X142501440Y-56783036D01*
X142512329Y-56789022D01*
X142528847Y-56799873D01*
X142544933Y-56812350D01*
X142585666Y-56829976D01*
X142596314Y-56835193D01*
X142635197Y-56856569D01*
X142642872Y-56858540D01*
X142642878Y-56858542D01*
X142654911Y-56861631D01*
X142673613Y-56868034D01*
X142692292Y-56876117D01*
X142726128Y-56881476D01*
X142736127Y-56883060D01*
X142747740Y-56885465D01*
X142790718Y-56896500D01*
X142811065Y-56896500D01*
X142830777Y-56898051D01*
X142850879Y-56901235D01*
X142858771Y-56900489D01*
X142895056Y-56897059D01*
X142906914Y-56896500D01*
X155570500Y-56896500D01*
X155638621Y-56916502D01*
X155677933Y-56956666D01*
X155742287Y-57061683D01*
X155742291Y-57061688D01*
X155744987Y-57066088D01*
X155891250Y-57234938D01*
X156063126Y-57377632D01*
X156070589Y-57381993D01*
X156136445Y-57420476D01*
X156185169Y-57472114D01*
X156198240Y-57541897D01*
X156171509Y-57607669D01*
X156131055Y-57641027D01*
X156118607Y-57647507D01*
X156114474Y-57650610D01*
X156114471Y-57650612D01*
X155944100Y-57778530D01*
X155939965Y-57781635D01*
X155785629Y-57943138D01*
X155782715Y-57947410D01*
X155782714Y-57947411D01*
X155772897Y-57961802D01*
X155682851Y-58093806D01*
X155671460Y-58110504D01*
X155616549Y-58155507D01*
X155567372Y-58165500D01*
X143317423Y-58165500D01*
X143249302Y-58145498D01*
X143228328Y-58128595D01*
X138666838Y-53567105D01*
X138632812Y-53504793D01*
X138637877Y-53433978D01*
X138680424Y-53377142D01*
X138739923Y-53353031D01*
X138771616Y-53348971D01*
X138893416Y-53333368D01*
X138898369Y-53331882D01*
X138898374Y-53331881D01*
X138933614Y-53321308D01*
X138937651Y-53320097D01*
X139008646Y-53319679D01*
X139062954Y-53351687D01*
G37*
%TD.AperFunction*%
%TD*%
%TA.AperFunction,Conductor*%
%TO.N,+5V*%
G36*
X124221931Y-58440002D02*
G01*
X124242905Y-58456905D01*
X128233095Y-62447095D01*
X128267121Y-62509407D01*
X128270000Y-62536190D01*
X128270000Y-81535000D01*
X128249998Y-81603121D01*
X128196342Y-81649614D01*
X128144000Y-81661000D01*
X123982927Y-81661000D01*
X123943262Y-81654594D01*
X123896861Y-81639203D01*
X123890025Y-81638503D01*
X123890022Y-81638502D01*
X123846969Y-81634091D01*
X123792400Y-81628500D01*
X122691600Y-81628500D01*
X122688354Y-81628837D01*
X122688350Y-81628837D01*
X122592693Y-81638762D01*
X122592689Y-81638763D01*
X122585835Y-81639474D01*
X122579299Y-81641655D01*
X122579288Y-81641657D01*
X122540725Y-81654523D01*
X122500849Y-81661000D01*
X114553000Y-81661000D01*
X114484879Y-81640998D01*
X114438386Y-81587342D01*
X114427000Y-81535000D01*
X114427000Y-58546000D01*
X114447002Y-58477879D01*
X114500658Y-58431386D01*
X114553000Y-58420000D01*
X124153810Y-58420000D01*
X124221931Y-58440002D01*
G37*
%TD.AperFunction*%
%TD*%
M02*
