%TF.GenerationSoftware,KiCad,Pcbnew,(6.0.9-0)*%
%TF.CreationDate,2023-01-06T11:38:35+01:00*%
%TF.ProjectId,HumidityLoggerBreakout,48756d69-6469-4747-994c-6f6767657242,rev?*%
%TF.SameCoordinates,Original*%
%TF.FileFunction,Soldermask,Top*%
%TF.FilePolarity,Negative*%
%FSLAX46Y46*%
G04 Gerber Fmt 4.6, Leading zero omitted, Abs format (unit mm)*
G04 Created by KiCad (PCBNEW (6.0.9-0)) date 2023-01-06 11:38:35*
%MOMM*%
%LPD*%
G01*
G04 APERTURE LIST*
G04 Aperture macros list*
%AMRoundRect*
0 Rectangle with rounded corners*
0 $1 Rounding radius*
0 $2 $3 $4 $5 $6 $7 $8 $9 X,Y pos of 4 corners*
0 Add a 4 corners polygon primitive as box body*
4,1,4,$2,$3,$4,$5,$6,$7,$8,$9,$2,$3,0*
0 Add four circle primitives for the rounded corners*
1,1,$1+$1,$2,$3*
1,1,$1+$1,$4,$5*
1,1,$1+$1,$6,$7*
1,1,$1+$1,$8,$9*
0 Add four rect primitives between the rounded corners*
20,1,$1+$1,$2,$3,$4,$5,0*
20,1,$1+$1,$4,$5,$6,$7,0*
20,1,$1+$1,$6,$7,$8,$9,0*
20,1,$1+$1,$8,$9,$2,$3,0*%
G04 Aperture macros list end*
%ADD10C,0.250000*%
%ADD11RoundRect,0.250000X0.450000X-0.350000X0.450000X0.350000X-0.450000X0.350000X-0.450000X-0.350000X0*%
%ADD12R,2.400000X2.400000*%
%ADD13C,2.400000*%
%ADD14RoundRect,0.250000X0.337500X0.475000X-0.337500X0.475000X-0.337500X-0.475000X0.337500X-0.475000X0*%
%ADD15RoundRect,0.250000X0.450000X-0.325000X0.450000X0.325000X-0.450000X0.325000X-0.450000X-0.325000X0*%
%ADD16R,1.700000X1.700000*%
%ADD17O,1.700000X1.700000*%
%ADD18R,2.200000X1.200000*%
%ADD19R,6.400000X5.800000*%
%ADD20RoundRect,0.250000X-0.350000X-0.450000X0.350000X-0.450000X0.350000X0.450000X-0.350000X0.450000X0*%
%ADD21RoundRect,0.250001X0.499999X0.924999X-0.499999X0.924999X-0.499999X-0.924999X0.499999X-0.924999X0*%
%ADD22RoundRect,0.250000X-0.337500X-0.475000X0.337500X-0.475000X0.337500X0.475000X-0.337500X0.475000X0*%
%ADD23RoundRect,0.250000X-0.450000X0.350000X-0.450000X-0.350000X0.450000X-0.350000X0.450000X0.350000X0*%
%ADD24RoundRect,0.250000X-0.475000X0.337500X-0.475000X-0.337500X0.475000X-0.337500X0.475000X0.337500X0*%
%ADD25R,3.500000X3.500000*%
%ADD26RoundRect,0.750000X-0.750000X-1.000000X0.750000X-1.000000X0.750000X1.000000X-0.750000X1.000000X0*%
%ADD27RoundRect,0.875000X-0.875000X-0.875000X0.875000X-0.875000X0.875000X0.875000X-0.875000X0.875000X0*%
%ADD28RoundRect,0.250000X-0.450000X0.325000X-0.450000X-0.325000X0.450000X-0.325000X0.450000X0.325000X0*%
G04 APERTURE END LIST*
D10*
X91078595Y-51844380D02*
X91078595Y-50844380D01*
X91078595Y-51320571D02*
X91650023Y-51320571D01*
X91650023Y-51844380D02*
X91650023Y-50844380D01*
X92554785Y-51177714D02*
X92554785Y-51844380D01*
X92126214Y-51177714D02*
X92126214Y-51701523D01*
X92173833Y-51796761D01*
X92269071Y-51844380D01*
X92411928Y-51844380D01*
X92507166Y-51796761D01*
X92554785Y-51749142D01*
X93030976Y-51844380D02*
X93030976Y-50844380D01*
X93030976Y-51225333D02*
X93126214Y-51177714D01*
X93316690Y-51177714D01*
X93411928Y-51225333D01*
X93459547Y-51272952D01*
X93507166Y-51368190D01*
X93507166Y-51653904D01*
X93459547Y-51749142D01*
X93411928Y-51796761D01*
X93316690Y-51844380D01*
X93126214Y-51844380D01*
X93030976Y-51796761D01*
X94316690Y-51796761D02*
X94221452Y-51844380D01*
X94030976Y-51844380D01*
X93935738Y-51796761D01*
X93888119Y-51701523D01*
X93888119Y-51320571D01*
X93935738Y-51225333D01*
X94030976Y-51177714D01*
X94221452Y-51177714D01*
X94316690Y-51225333D01*
X94364309Y-51320571D01*
X94364309Y-51415809D01*
X93888119Y-51511047D01*
X94792880Y-51844380D02*
X94792880Y-51177714D01*
X94792880Y-51368190D02*
X94840500Y-51272952D01*
X94888119Y-51225333D01*
X94983357Y-51177714D01*
X95078595Y-51177714D01*
X95269071Y-51177714D02*
X95650023Y-51177714D01*
X95411928Y-50844380D02*
X95411928Y-51701523D01*
X95459547Y-51796761D01*
X95554785Y-51844380D01*
X95650023Y-51844380D01*
X96602404Y-51177714D02*
X96983357Y-51177714D01*
X96745261Y-50844380D02*
X96745261Y-51701523D01*
X96792880Y-51796761D01*
X96888119Y-51844380D01*
X96983357Y-51844380D01*
X97316690Y-51844380D02*
X97316690Y-50844380D01*
X97745261Y-51844380D02*
X97745261Y-51320571D01*
X97697642Y-51225333D01*
X97602404Y-51177714D01*
X97459547Y-51177714D01*
X97364309Y-51225333D01*
X97316690Y-51272952D01*
X98602404Y-51796761D02*
X98507166Y-51844380D01*
X98316690Y-51844380D01*
X98221452Y-51796761D01*
X98173833Y-51701523D01*
X98173833Y-51320571D01*
X98221452Y-51225333D01*
X98316690Y-51177714D01*
X98507166Y-51177714D01*
X98602404Y-51225333D01*
X98650023Y-51320571D01*
X98650023Y-51415809D01*
X98173833Y-51511047D01*
X99840500Y-51844380D02*
X99840500Y-50844380D01*
X99840500Y-51320571D02*
X100411928Y-51320571D01*
X100411928Y-51844380D02*
X100411928Y-50844380D01*
X101316690Y-51177714D02*
X101316690Y-51844380D01*
X100888119Y-51177714D02*
X100888119Y-51701523D01*
X100935738Y-51796761D01*
X101030976Y-51844380D01*
X101173833Y-51844380D01*
X101269071Y-51796761D01*
X101316690Y-51749142D01*
X101792880Y-51844380D02*
X101792880Y-51177714D01*
X101792880Y-51272952D02*
X101840500Y-51225333D01*
X101935738Y-51177714D01*
X102078595Y-51177714D01*
X102173833Y-51225333D01*
X102221452Y-51320571D01*
X102221452Y-51844380D01*
X102221452Y-51320571D02*
X102269071Y-51225333D01*
X102364309Y-51177714D01*
X102507166Y-51177714D01*
X102602404Y-51225333D01*
X102650023Y-51320571D01*
X102650023Y-51844380D01*
X103126214Y-51844380D02*
X103126214Y-51177714D01*
X103126214Y-50844380D02*
X103078595Y-50892000D01*
X103126214Y-50939619D01*
X103173833Y-50892000D01*
X103126214Y-50844380D01*
X103126214Y-50939619D01*
X104030976Y-51844380D02*
X104030976Y-50844380D01*
X104030976Y-51796761D02*
X103935738Y-51844380D01*
X103745261Y-51844380D01*
X103650023Y-51796761D01*
X103602404Y-51749142D01*
X103554785Y-51653904D01*
X103554785Y-51368190D01*
X103602404Y-51272952D01*
X103650023Y-51225333D01*
X103745261Y-51177714D01*
X103935738Y-51177714D01*
X104030976Y-51225333D01*
X104507166Y-51844380D02*
X104507166Y-51177714D01*
X104507166Y-50844380D02*
X104459547Y-50892000D01*
X104507166Y-50939619D01*
X104554785Y-50892000D01*
X104507166Y-50844380D01*
X104507166Y-50939619D01*
X104840500Y-51177714D02*
X105221452Y-51177714D01*
X104983357Y-50844380D02*
X104983357Y-51701523D01*
X105030976Y-51796761D01*
X105126214Y-51844380D01*
X105221452Y-51844380D01*
X105459547Y-51177714D02*
X105697642Y-51844380D01*
X105935738Y-51177714D02*
X105697642Y-51844380D01*
X105602404Y-52082476D01*
X105554785Y-52130095D01*
X105459547Y-52177714D01*
X107554785Y-51844380D02*
X107078595Y-51844380D01*
X107078595Y-50844380D01*
X108030976Y-51844380D02*
X107935738Y-51796761D01*
X107888119Y-51749142D01*
X107840500Y-51653904D01*
X107840500Y-51368190D01*
X107888119Y-51272952D01*
X107935738Y-51225333D01*
X108030976Y-51177714D01*
X108173833Y-51177714D01*
X108269071Y-51225333D01*
X108316690Y-51272952D01*
X108364309Y-51368190D01*
X108364309Y-51653904D01*
X108316690Y-51749142D01*
X108269071Y-51796761D01*
X108173833Y-51844380D01*
X108030976Y-51844380D01*
X109221452Y-51177714D02*
X109221452Y-51987238D01*
X109173833Y-52082476D01*
X109126214Y-52130095D01*
X109030976Y-52177714D01*
X108888119Y-52177714D01*
X108792880Y-52130095D01*
X109221452Y-51796761D02*
X109126214Y-51844380D01*
X108935738Y-51844380D01*
X108840500Y-51796761D01*
X108792880Y-51749142D01*
X108745261Y-51653904D01*
X108745261Y-51368190D01*
X108792880Y-51272952D01*
X108840500Y-51225333D01*
X108935738Y-51177714D01*
X109126214Y-51177714D01*
X109221452Y-51225333D01*
X110126214Y-51177714D02*
X110126214Y-51987238D01*
X110078595Y-52082476D01*
X110030976Y-52130095D01*
X109935738Y-52177714D01*
X109792880Y-52177714D01*
X109697642Y-52130095D01*
X110126214Y-51796761D02*
X110030976Y-51844380D01*
X109840500Y-51844380D01*
X109745261Y-51796761D01*
X109697642Y-51749142D01*
X109650023Y-51653904D01*
X109650023Y-51368190D01*
X109697642Y-51272952D01*
X109745261Y-51225333D01*
X109840500Y-51177714D01*
X110030976Y-51177714D01*
X110126214Y-51225333D01*
X110983357Y-51796761D02*
X110888119Y-51844380D01*
X110697642Y-51844380D01*
X110602404Y-51796761D01*
X110554785Y-51701523D01*
X110554785Y-51320571D01*
X110602404Y-51225333D01*
X110697642Y-51177714D01*
X110888119Y-51177714D01*
X110983357Y-51225333D01*
X111030976Y-51320571D01*
X111030976Y-51415809D01*
X110554785Y-51511047D01*
X111459547Y-51844380D02*
X111459547Y-51177714D01*
X111459547Y-51368190D02*
X111507166Y-51272952D01*
X111554785Y-51225333D01*
X111650023Y-51177714D01*
X111745261Y-51177714D01*
X91078595Y-53454380D02*
X91078595Y-52454380D01*
X91411928Y-53168666D01*
X91745261Y-52454380D01*
X91745261Y-53454380D01*
X92650023Y-53454380D02*
X92650023Y-52930571D01*
X92602404Y-52835333D01*
X92507166Y-52787714D01*
X92316690Y-52787714D01*
X92221452Y-52835333D01*
X92650023Y-53406761D02*
X92554785Y-53454380D01*
X92316690Y-53454380D01*
X92221452Y-53406761D01*
X92173833Y-53311523D01*
X92173833Y-53216285D01*
X92221452Y-53121047D01*
X92316690Y-53073428D01*
X92554785Y-53073428D01*
X92650023Y-53025809D01*
X93126214Y-53454380D02*
X93126214Y-52787714D01*
X93126214Y-52978190D02*
X93173833Y-52882952D01*
X93221452Y-52835333D01*
X93316690Y-52787714D01*
X93411928Y-52787714D01*
X94173833Y-53406761D02*
X94078595Y-53454380D01*
X93888119Y-53454380D01*
X93792880Y-53406761D01*
X93745261Y-53359142D01*
X93697642Y-53263904D01*
X93697642Y-52978190D01*
X93745261Y-52882952D01*
X93792880Y-52835333D01*
X93888119Y-52787714D01*
X94078595Y-52787714D01*
X94173833Y-52835333D01*
X94602404Y-53454380D02*
X94602404Y-52787714D01*
X94602404Y-52454380D02*
X94554785Y-52502000D01*
X94602404Y-52549619D01*
X94650023Y-52502000D01*
X94602404Y-52454380D01*
X94602404Y-52549619D01*
X95078595Y-52787714D02*
X95078595Y-53454380D01*
X95078595Y-52882952D02*
X95126214Y-52835333D01*
X95221452Y-52787714D01*
X95364309Y-52787714D01*
X95459547Y-52835333D01*
X95507166Y-52930571D01*
X95507166Y-53454380D01*
X96745261Y-53454380D02*
X96745261Y-52454380D01*
X96983357Y-52454380D01*
X97126214Y-52502000D01*
X97221452Y-52597238D01*
X97269071Y-52692476D01*
X97316690Y-52882952D01*
X97316690Y-53025809D01*
X97269071Y-53216285D01*
X97221452Y-53311523D01*
X97126214Y-53406761D01*
X96983357Y-53454380D01*
X96745261Y-53454380D01*
X97650023Y-52787714D02*
X97888119Y-53454380D01*
X98126214Y-52787714D02*
X97888119Y-53454380D01*
X97792880Y-53692476D01*
X97745261Y-53740095D01*
X97650023Y-53787714D01*
X98507166Y-53454380D02*
X98507166Y-52787714D01*
X98507166Y-52882952D02*
X98554785Y-52835333D01*
X98650023Y-52787714D01*
X98792880Y-52787714D01*
X98888119Y-52835333D01*
X98935738Y-52930571D01*
X98935738Y-53454380D01*
X98935738Y-52930571D02*
X98983357Y-52835333D01*
X99078595Y-52787714D01*
X99221452Y-52787714D01*
X99316690Y-52835333D01*
X99364309Y-52930571D01*
X99364309Y-53454380D01*
X100269071Y-53406761D02*
X100173833Y-53454380D01*
X99983357Y-53454380D01*
X99888119Y-53406761D01*
X99840500Y-53359142D01*
X99792880Y-53263904D01*
X99792880Y-52978190D01*
X99840500Y-52882952D01*
X99888119Y-52835333D01*
X99983357Y-52787714D01*
X100173833Y-52787714D01*
X100269071Y-52835333D01*
X100602404Y-52787714D02*
X101126214Y-52787714D01*
X100602404Y-53454380D01*
X101126214Y-53454380D01*
X101411928Y-52787714D02*
X101650023Y-53454380D01*
X101888119Y-52787714D02*
X101650023Y-53454380D01*
X101554785Y-53692476D01*
X101507166Y-53740095D01*
X101411928Y-53787714D01*
X102269071Y-53454380D02*
X102269071Y-52454380D01*
X102364309Y-53073428D02*
X102650023Y-53454380D01*
X102650023Y-52787714D02*
X102269071Y-53168666D01*
X103792880Y-52549619D02*
X103840500Y-52502000D01*
X103935738Y-52454380D01*
X104173833Y-52454380D01*
X104269071Y-52502000D01*
X104316690Y-52549619D01*
X104364309Y-52644857D01*
X104364309Y-52740095D01*
X104316690Y-52882952D01*
X103745261Y-53454380D01*
X104364309Y-53454380D01*
X104983357Y-52454380D02*
X105078595Y-52454380D01*
X105173833Y-52502000D01*
X105221452Y-52549619D01*
X105269071Y-52644857D01*
X105316690Y-52835333D01*
X105316690Y-53073428D01*
X105269071Y-53263904D01*
X105221452Y-53359142D01*
X105173833Y-53406761D01*
X105078595Y-53454380D01*
X104983357Y-53454380D01*
X104888119Y-53406761D01*
X104840500Y-53359142D01*
X104792880Y-53263904D01*
X104745261Y-53073428D01*
X104745261Y-52835333D01*
X104792880Y-52644857D01*
X104840500Y-52549619D01*
X104888119Y-52502000D01*
X104983357Y-52454380D01*
X105697642Y-52549619D02*
X105745261Y-52502000D01*
X105840500Y-52454380D01*
X106078595Y-52454380D01*
X106173833Y-52502000D01*
X106221452Y-52549619D01*
X106269071Y-52644857D01*
X106269071Y-52740095D01*
X106221452Y-52882952D01*
X105650023Y-53454380D01*
X106269071Y-53454380D01*
X106602404Y-52454380D02*
X107221452Y-52454380D01*
X106888119Y-52835333D01*
X107030976Y-52835333D01*
X107126214Y-52882952D01*
X107173833Y-52930571D01*
X107221452Y-53025809D01*
X107221452Y-53263904D01*
X107173833Y-53359142D01*
X107126214Y-53406761D01*
X107030976Y-53454380D01*
X106745261Y-53454380D01*
X106650023Y-53406761D01*
X106602404Y-53359142D01*
D11*
%TO.C,R12*%
X135890000Y-74660000D03*
X135890000Y-72660000D03*
%TD*%
%TO.C,R10*%
X141478000Y-74660000D03*
X141478000Y-72660000D03*
%TD*%
D12*
%TO.C,J2*%
X95377000Y-56642000D03*
D13*
X95377000Y-60142000D03*
%TD*%
D14*
%TO.C,C7*%
X150516500Y-53721000D03*
X148441500Y-53721000D03*
%TD*%
D15*
%TO.C,D3*%
X115062000Y-93227000D03*
X115062000Y-91177000D03*
%TD*%
D16*
%TO.C,J3*%
X156845000Y-67691000D03*
D17*
X156845000Y-70231000D03*
X156845000Y-72771000D03*
X156845000Y-75311000D03*
X156845000Y-77851000D03*
X156845000Y-80391000D03*
%TD*%
D16*
%TO.C,J6*%
X141150000Y-100000000D03*
D17*
X138610000Y-100000000D03*
X136070000Y-100000000D03*
X133530000Y-100000000D03*
X130990000Y-100000000D03*
X128450000Y-100000000D03*
X125910000Y-100000000D03*
X123370000Y-100000000D03*
X120830000Y-100000000D03*
X118290000Y-100000000D03*
X115750000Y-100000000D03*
%TD*%
D18*
%TO.C,U1*%
X112767000Y-67316000D03*
D19*
X119067000Y-69596000D03*
D18*
X112767000Y-71876000D03*
%TD*%
D20*
%TO.C,R8*%
X148622000Y-75311000D03*
X150622000Y-75311000D03*
%TD*%
D16*
%TO.C,J9*%
X156845000Y-86233000D03*
D17*
X156845000Y-88773000D03*
X156845000Y-91313000D03*
X156845000Y-93853000D03*
%TD*%
D16*
%TO.C,J7*%
X141150000Y-52000000D03*
D17*
X138610000Y-52000000D03*
X136070000Y-52000000D03*
X133530000Y-52000000D03*
X130990000Y-52000000D03*
X128450000Y-52000000D03*
X125910000Y-52000000D03*
X123370000Y-52000000D03*
X120830000Y-52000000D03*
X118290000Y-52000000D03*
X115750000Y-52000000D03*
%TD*%
D16*
%TO.C,J4*%
X156845000Y-53721000D03*
D17*
X156845000Y-56261000D03*
X156845000Y-58801000D03*
X156845000Y-61341000D03*
%TD*%
D21*
%TO.C,C5*%
X126492000Y-83312000D03*
X123242000Y-83312000D03*
%TD*%
D22*
%TO.C,C3*%
X107039500Y-63881000D03*
X109114500Y-63881000D03*
%TD*%
D16*
%TO.C,J5*%
X131318000Y-89911000D03*
D17*
X131318000Y-92451000D03*
%TD*%
D23*
%TO.C,R4*%
X143637000Y-61992000D03*
X143637000Y-63992000D03*
%TD*%
D24*
%TO.C,C10*%
X104267000Y-86846500D03*
X104267000Y-88921500D03*
%TD*%
D25*
%TO.C,J1*%
X104100000Y-68960000D03*
D26*
X98100000Y-68960000D03*
D27*
X101100000Y-73660000D03*
%TD*%
D24*
%TO.C,C12*%
X99949000Y-86846500D03*
X99949000Y-88921500D03*
%TD*%
D23*
%TO.C,R14*%
X118364000Y-85360000D03*
X118364000Y-87360000D03*
%TD*%
%TO.C,R13*%
X115062000Y-85376000D03*
X115062000Y-87376000D03*
%TD*%
%TO.C,R1*%
X149733000Y-61976000D03*
X149733000Y-63976000D03*
%TD*%
D11*
%TO.C,R11*%
X112776000Y-64500000D03*
X112776000Y-62500000D03*
%TD*%
D22*
%TO.C,C2*%
X107039500Y-59563000D03*
X109114500Y-59563000D03*
%TD*%
D28*
%TO.C,D1*%
X141478000Y-76699000D03*
X141478000Y-78749000D03*
%TD*%
D16*
%TO.C,J8*%
X153600000Y-100000000D03*
D17*
X151060000Y-100000000D03*
X148520000Y-100000000D03*
X145980000Y-100000000D03*
%TD*%
D20*
%TO.C,R6*%
X148622000Y-70231000D03*
X150622000Y-70231000D03*
%TD*%
%TO.C,R5*%
X148606000Y-67691000D03*
X150606000Y-67691000D03*
%TD*%
D11*
%TO.C,R15*%
X130302000Y-74660000D03*
X130302000Y-72660000D03*
%TD*%
D14*
%TO.C,C9*%
X150389500Y-86233000D03*
X148314500Y-86233000D03*
%TD*%
D23*
%TO.C,R3*%
X145669000Y-61992000D03*
X145669000Y-63992000D03*
%TD*%
D28*
%TO.C,D2*%
X135890000Y-76699000D03*
X135890000Y-78749000D03*
%TD*%
D22*
%TO.C,C4*%
X131529000Y-81534000D03*
X133604000Y-81534000D03*
%TD*%
%TO.C,C1*%
X107039500Y-61722000D03*
X109114500Y-61722000D03*
%TD*%
D14*
%TO.C,C6*%
X150389500Y-80391000D03*
X148314500Y-80391000D03*
%TD*%
D20*
%TO.C,R7*%
X148606000Y-72771000D03*
X150606000Y-72771000D03*
%TD*%
D28*
%TO.C,D5*%
X130302000Y-76699000D03*
X130302000Y-78749000D03*
%TD*%
D15*
%TO.C,D4*%
X120396000Y-93227000D03*
X120396000Y-91177000D03*
%TD*%
D12*
%TO.C,J10*%
X95061000Y-86388000D03*
D13*
X95061000Y-89888000D03*
%TD*%
D23*
%TO.C,R9*%
X112776000Y-58563000D03*
X112776000Y-60563000D03*
%TD*%
%TO.C,R2*%
X147701000Y-61992000D03*
X147701000Y-63992000D03*
%TD*%
D24*
%TO.C,C11*%
X102108000Y-86846500D03*
X102108000Y-88921500D03*
%TD*%
%TO.C,C8*%
X134366000Y-89916000D03*
X134366000Y-91991000D03*
%TD*%
M02*
