M48
; DRILL file {KiCad (6.0.9-0)} date 2023 January 06, Friday 11:38:42
; FORMAT={-:-/ absolute / inch / decimal}
; #@! TF.CreationDate,2023-01-06T11:38:42+01:00
; #@! TF.GenerationSoftware,Kicad,Pcbnew,(6.0.9-0)
; #@! TF.FileFunction,Plated,1,2,PTH
FMAT,2
INCH
; #@! TA.AperFunction,Plated,PTH,ViaDrill
T1C0.0157
; #@! TA.AperFunction,Plated,PTH,ViaDrill
T2C0.0236
; #@! TA.AperFunction,Plated,PTH,ComponentDrill
T3C0.0394
; #@! TA.AperFunction,Plated,PTH,ComponentDrill
T4C0.0472
%
G90
G05
T1
X3.8Y-2.1
X3.8Y-3.1
X3.8Y-3.8
X3.9Y-2.5
X4.255Y-2.1
X4.255Y-2.7
X4.3Y-3.1
X4.3Y-3.5
X4.3Y-3.8
X4.58Y-2.54
X4.58Y-2.58
X4.58Y-2.9
X4.58Y-2.94
X4.63Y-2.54
X4.63Y-2.58
X4.63Y-2.9
X4.63Y-2.94
X4.68Y-2.54
X4.68Y-2.58
X4.68Y-2.9
X4.68Y-2.94
X4.73Y-2.54
X4.73Y-2.58
X4.73Y-2.9
X4.73Y-2.94
X4.78Y-2.54
X4.78Y-2.58
X4.78Y-2.9
X4.78Y-2.94
X4.85Y-2.59
X4.85Y-2.64
X4.85Y-2.69
X4.85Y-2.74
X4.85Y-2.79
X4.85Y-2.84
X4.85Y-2.89
X4.89Y-2.59
X4.89Y-2.64
X4.89Y-2.69
X4.89Y-2.74
X4.89Y-2.79
X4.89Y-2.84
X4.89Y-2.89
X4.9Y-3.5
X4.9Y-3.7
X4.93Y-2.59
X4.93Y-2.64
X4.93Y-2.69
X4.93Y-2.74
X4.93Y-2.79
X4.93Y-2.84
X4.93Y-2.89
X4.97Y-2.59
X4.97Y-2.64
X4.97Y-2.69
X4.97Y-2.74
X4.97Y-2.79
X4.97Y-2.84
X4.97Y-2.89
X4.99Y-2.215
X5.01Y-2.59
X5.01Y-2.64
X5.01Y-2.69
X5.01Y-2.74
X5.01Y-2.79
X5.01Y-2.84
X5.01Y-2.89
X5.1Y-2.6
X5.4Y-2.3
X5.4Y-2.7
X5.4Y-3.375
X5.4Y-3.7
X5.685Y-2.605
X5.69Y-2.26
X5.7Y-3.2
X5.7Y-3.7
X5.735Y-2.605
X5.78Y-2.835
X5.785Y-2.61
X5.785Y-2.715
X5.79Y-2.91
X5.86Y-2.26
X6.0Y-3.84
X6.02Y-2.72
X6.02Y-2.82
X6.02Y-2.92
X6.4Y-2.115
X6.4Y-3.0
X6.4Y-3.8
T2
X5.3Y-3.3
T3
X4.5571Y-2.0472
X4.5571Y-3.937
X4.6571Y-2.0472
X4.6571Y-3.937
X4.7571Y-2.0472
X4.7571Y-3.937
X4.8571Y-2.0472
X4.8571Y-3.937
X4.9571Y-2.0472
X4.9571Y-3.937
X5.0571Y-2.0472
X5.0571Y-3.937
X5.1571Y-2.0472
X5.1571Y-3.937
X5.17Y-3.5398
X5.17Y-3.6398
X5.2571Y-2.0472
X5.2571Y-3.937
X5.3571Y-2.0472
X5.3571Y-3.937
X5.4571Y-2.0472
X5.4571Y-3.937
X5.5571Y-2.0472
X5.5571Y-3.937
X5.7472Y-3.937
X5.8472Y-3.937
X5.9472Y-3.937
X6.0472Y-3.937
X6.175Y-2.115
X6.175Y-2.215
X6.175Y-2.315
X6.175Y-2.415
X6.175Y-2.665
X6.175Y-2.765
X6.175Y-2.865
X6.175Y-2.965
X6.175Y-3.065
X6.175Y-3.165
X6.175Y-3.395
X6.175Y-3.495
X6.175Y-3.595
X6.175Y-3.695
T4
X3.7426Y-3.4011
X3.7426Y-3.5389
X3.755Y-2.23
X3.755Y-2.3678
T3
G00X3.8622Y-2.6756
M15
G01X3.8622Y-2.7543
M16
G05
G00X3.9409Y-2.9
M15
G01X4.0197Y-2.9
M16
G05
G00X4.0984Y-2.6756
M15
G01X4.0984Y-2.7543
M16
G05
T0
M30
